<svg xmlns="http://www.w3.org/2000/svg" xmlns:xlink="http://www.w3.org/1999/xlink" viewBox="0 0 572 573.43"><defs><style>.a{opacity:0.02;}.b{fill:#003c00;}.c{fill:none;stroke:#000;}.c,.d,.e,.f,.g,.h,.i,.j,.k,.l,.m,.n,.o,.p,.q{stroke-miterlimit:10;}.d,.e,.f,.g,.h,.i,.j,.k,.l,.m,.n,.o,.p,.q{stroke:#7a0063;stroke-opacity:0.49;stroke-width:0.605px;}.d{fill:url(#a);}.e{fill:url(#b);}.f{fill:url(#c);}.g{fill:url(#d);}.h{fill:url(#e);}.i{fill:url(#f);}.j{fill:url(#g);}.k{fill:url(#h);}.l{fill:url(#i);}.m{fill:url(#j);}.n{fill:url(#k);}.o{fill:url(#l);}.p{fill:url(#m);}.q{fill:url(#n);}</style><radialGradient id="a" cx="325.856" cy="128.159" r="27.64" gradientTransform="translate(13.221 -177.598) rotate(21) scale(1 4)" gradientUnits="userSpaceOnUse"><stop offset="0" stop-color="#923302"/><stop offset="0.295" stop-color="#b12e00"/><stop offset="0.544" stop-color="#d64f00"/><stop offset="0.91" stop-color="#7c3101"/><stop offset="1" stop-color="#873101"/></radialGradient><radialGradient id="b" cx="208.914" cy="345.806" r="27.64" gradientTransform="translate(1555.258 -171.674) rotate(76.916) scale(1 4)" xlink:href="#a"/><radialGradient id="c" cx="320.923" cy="23.796" r="27.64" gradientTransform="translate(-78.513 519.81) rotate(-30.147) scale(1 4)" xlink:href="#a"/><radialGradient id="d" cx="211.608" cy="175.287" r="27.64" gradientTransform="matrix(0.142, 0.99, -3.959, 0.568, 927.139, 222.532)" xlink:href="#a"/><radialGradient id="e" cx="454.286" cy="-39.852" r="27.64" gradientTransform="translate(-18.463 941.684) rotate(-48.992) scale(1 4)" xlink:href="#a"/><radialGradient id="f" cx="577.072" cy="126.076" r="27.64" gradientTransform="translate(-661.173 615.209) rotate(-61.177) scale(1 4)" xlink:href="#a"/><radialGradient id="g" cx="615.056" cy="263.388" r="27.64" gradientTransform="translate(-218.822 1508.41) rotate(-132.577) scale(1 4)" xlink:href="#a"/><radialGradient id="h" cx="392.321" cy="203.923" r="27.64" gradientTransform="translate(497.056 1128.313) rotate(-169.768) scale(1 4)" xlink:href="#a"/><radialGradient id="i" cx="188.111" cy="458.843" r="27.64" gradientTransform="translate(1543.984 -1165.292) rotate(49.978) scale(1 4)" xlink:href="#a"/><radialGradient id="j" cx="227.096" cy="647.8" r="27.64" gradientTransform="translate(2836.235 -292.295) rotate(87.063) scale(1 4)" xlink:href="#a"/><radialGradient id="k" cx="447.636" cy="208.615" r="27.64" gradientTransform="matrix(0.631, -0.776, 3.104, 2.522, -761.041, 65.393)" xlink:href="#a"/><radialGradient id="l" cx="692.014" cy="271.751" r="27.64" gradientTransform="translate(-659.882 1321.423) rotate(-112.857) scale(1 4)" xlink:href="#a"/><radialGradient id="m" cx="381.587" cy="533.431" r="27.64" gradientTransform="matrix(-0.168, 0.986, -3.943, -0.671, 2284.432, 155.941)" xlink:href="#a"/><radialGradient id="n" cx="287.211" cy="459.45" r="27.64" gradientTransform="translate(816.248 -1634.764) rotate(29.351) scale(1 4)" xlink:href="#a"/></defs><title>hamleft</title><g class="a"><path class="b" d="M300,14.965a285.076,285.076,0,0,1,110.935,547.6A285.075,285.075,0,0,1,189.065,37.361,283.22,283.22,0,0,1,300,14.965m0-1c-157.953,0-286,128.047-286,286s128.047,286,286,286,286-128.047,286-286-128.047-286-286-286Z" transform="translate(-14 -12.535)"/><line class="c" x1="286.477" x2="286.477" y2="570.093"/><line class="c" x1="571.047" y1="286.953" x2="0.953" y2="286.953"/></g><path class="d" d="M113.941,418.95c-2.482,9.993-2.818,20.617.839,24.027,2.925,2.728,20.033,6.376,26.9.476,6.82-7.314,16.022-27.446,19.185-38.169.82-7.007-5.075-11.852-19.549-12.761C117.984,391.058,120.527,396.794,113.941,418.95Z" transform="translate(-14 -12.535)"/><path class="e" d="M243.167,329.222c-9.666,3.545-18.654,9.22-19.429,14.16-.62,3.951,5.946,20.165,14.682,22.548,9.879,1.55,31.711-2.111,42.365-5.5,6.262-3.248,6.971-10.846-.387-23.342C268.534,316.94,265.208,322.26,243.167,329.222Z" transform="translate(-14 -12.535)"/><path class="f" d="M235.319,457.1c6.225,8.2,14.288,15.128,19.238,14.419,3.959-.567,17.532-11.6,17.247-20.652-1.417-9.9-11.322-29.7-17.689-38.886-4.942-5.034-12.414-3.483-22.2,7.219C216.134,436.448,222.2,438.066,235.319,457.1Z" transform="translate(-14 -12.535)"/><path class="g" d="M252.473,514.862c-9.935,2.7-19.377,7.586-20.573,12.441-.956,3.884,4.195,20.6,12.695,23.724,9.71,2.392,31.775.617,42.68-1.846,6.518-2.7,7.876-10.208,1.617-23.29C278.8,504.8,275.03,509.816,252.473,514.862Z" transform="translate(-14 -12.535)"/><path class="h" d="M153.677,513.266c8.54,5.75,18.408,9.7,22.864,7.432,3.564-1.815,12.845-16.643,9.652-25.116-4.539-8.911-20.308-24.446-29.3-31.088-6.3-3.167-12.873.714-18.679,14C128.851,499.923,135.111,499.5,153.677,513.266Z" transform="translate(-14 -12.535)"/><path class="i" d="M57.345,372.514c9.561,3.818,20.041,5.6,23.917,2.439,3.1-2.526,9.044-18.979,4.133-26.587-6.317-7.752-25.009-19.61-35.2-24.2-6.831-1.766-12.433,3.415-15.3,17.63C30.262,364.712,36.291,362.974,57.345,372.514Z" transform="translate(-14 -12.535)"/><path class="j" d="M159.094,350.436c6.669-7.844,11.7-17.209,9.941-21.89-1.406-3.745-15.1-14.625-23.881-12.4-9.362,3.514-26.562,17.449-34.167,25.644-3.852,5.91-.728,12.872,11.829,20.127C143.061,373.615,143.337,367.347,159.094,350.436Z" transform="translate(-14 -12.535)"/><path class="k" d="M275.076,251.045c.571-10.279-1.084-20.78-5.313-23.447-3.384-2.133-20.872-2.52-26.518,4.559-5.334,8.459-10.613,29.957-11.717,41.082.5,7.037,7.2,10.7,21.589,8.884C276.315,279.2,272.746,274.042,275.076,251.045Z" transform="translate(-14 -12.535)"/><path class="l" d="M241.549,150.5c-7.012,7.539-12.453,16.671-10.907,21.425,1.238,3.8,14.437,15.284,23.305,13.45,9.509-3.093,27.313-16.247,35.276-24.095,4.112-5.733,1.3-12.827-10.92-20.634C258.6,128.061,258.045,134.31,241.549,150.5Z" transform="translate(-14 -12.535)"/><path class="m" d="M250.966,49.673c-10.139,1.786-19.987,5.79-21.62,10.515-1.306,3.781,2.3,20.9,10.481,24.782,9.451,3.267,31.586,3.509,42.671,2.049,6.737-2.093,8.773-9.447,3.731-23.045C278.1,42.052,273.889,46.7,250.966,49.673Z" transform="translate(-14 -12.535)"/><path class="n" d="M163.849,263.367c8.727,5.462,18.722,9.082,23.1,6.665,3.5-1.934,12.283-17.063,8.808-25.425-4.834-8.754-21.112-23.755-30.323-30.092-6.406-2.955-12.842,1.144-18.2,14.619C138.592,250.86,144.834,250.225,163.849,263.367Z" transform="translate(-14 -12.535)"/><path class="o" d="M87.529,274.968c8.925-5.134,16.819-12.252,16.744-17.252-.06-4-9.283-18.863-18.3-19.729-10,.15-30.892,7.463-40.816,12.612-5.62,4.264-5.029,11.872,4.344,22.938C64.615,291.378,66.99,285.571,87.529,274.968Z" transform="translate(-14 -12.535)"/><path class="p" d="M111.884,154.946c-10.285-.467-20.769,1.292-23.393,5.548-2.1,3.405-2.312,20.9,4.824,26.471,8.512,5.249,30.061,10.313,41.2,11.305,7.031-.574,10.622-7.307,8.667-21.676C140.027,153.426,134.9,157.047,111.884,154.946Z" transform="translate(-14 -12.535)"/><path class="q" d="M146.045,106.205c-3.906,9.526-5.782,19.989-2.66,23.894,2.5,3.124,18.9,9.218,26.549,4.378,7.81-6.246,19.839-24.828,24.526-34.979,1.828-6.813-3.3-12.463-17.489-15.464C154.1,79.195,155.779,85.24,146.045,106.205Z" transform="translate(-14 -12.535)"/></svg>