<svg xmlns="http://www.w3.org/2000/svg" xmlns:xlink="http://www.w3.org/1999/xlink" viewBox="0 0 572 573.43"><defs><style>.a{opacity:0.02;}.b{fill:#003c00;}.c{fill:none;stroke:#000;}.c,.d,.e,.f,.g,.h,.i,.j,.k,.l,.m,.n,.o,.p,.q{stroke-miterlimit:10;}.d,.e,.f,.g,.h,.i,.j,.k,.l,.m,.n,.o,.p,.q{stroke:#7a0063;stroke-opacity:0.49;stroke-width:0.605px;}.d{fill:url(#a);}.e{fill:url(#b);}.f{fill:url(#c);}.g{fill:url(#d);}.h{fill:url(#e);}.i{fill:url(#f);}.j{fill:url(#g);}.k{fill:url(#h);}.l{fill:url(#i);}.m{fill:url(#j);}.n{fill:url(#k);}.o{fill:url(#l);}.p{fill:url(#m);}.q{fill:url(#n);}</style><radialGradient id="a" cx="467.856" cy="191.159" r="27.64" gradientTransform="translate(1001.554 -529.067) rotate(68) scale(1 4)" gradientUnits="userSpaceOnUse"><stop offset="0" stop-color="#923302"/><stop offset="0.295" stop-color="#b12e00"/><stop offset="0.544" stop-color="#d64f00"/><stop offset="0.91" stop-color="#7c3101"/><stop offset="1" stop-color="#873101"/></radialGradient><radialGradient id="b" cx="340.669" cy="263.504" r="27.64" gradientTransform="translate(1411.622 564.578) rotate(123.916) scale(1 4)" xlink:href="#a"/><radialGradient id="c" cx="360.943" cy="173.901" r="27.64" gradientTransform="translate(205.088 -603.214) rotate(16.853) scale(1 4)" xlink:href="#a"/><radialGradient id="d" cx="335.819" cy="81.988" r="27.64" gradientTransform="translate(804.901 17.235) rotate(128.837) scale(1 4)" xlink:href="#a"/><radialGradient id="e" cx="443.674" cy="115.133" r="27.64" gradientTransform="translate(-18.556 -331.675) rotate(-1.992) scale(1 4)" xlink:href="#a"/><radialGradient id="f" cx="533.987" cy="275.33" r="27.64" gradientTransform="translate(-244.601 -681.836) rotate(-14.177) scale(1 4)" xlink:href="#a"/><radialGradient id="g" cx="459.856" cy="270.159" r="27.64" gradientTransform="matrix(0.077, -0.997, 3.988, 0.309, -653.031, 645.299)" xlink:href="#a"/><radialGradient id="h" cx="345.856" cy="352.159" r="27.64" gradientTransform="translate(-363.395 -913.084) rotate(-15.479) scale(1 4)" xlink:href="#a"/><radialGradient id="i" cx="342.856" cy="445.159" r="27.64" gradientTransform="translate(2151.957 321.179) rotate(96.978) scale(1 4)" xlink:href="#a"/><radialGradient id="j" cx="342.292" cy="543.575" r="27.64" gradientTransform="translate(2142.301 1804.31) rotate(134.063) scale(1 4)" xlink:href="#a"/><radialGradient id="k" cx="431.856" cy="363.159" r="27.64" gradientTransform="matrix(0.998, -0.068, 0.272, 3.991, -97.929, -1056.694)" xlink:href="#a"/><radialGradient id="l" cx="548.201" cy="330.493" r="27.64" gradientTransform="translate(-902.704 312.692) rotate(-65.857) scale(1 4)" xlink:href="#a"/><radialGradient id="m" cx="471.281" cy="406.592" r="27.64" gradientTransform="translate(1772.452 1532.828) rotate(146.659) scale(1 4)" xlink:href="#a"/><radialGradient id="n" cx="436.856" cy="501.159" r="27.64" gradientTransform="translate(2281.79 -396.411) rotate(76.351) scale(1 4)" xlink:href="#a"/></defs><title>hamright</title><g class="a"><path class="b" d="M300,14.965a285.076,285.076,0,0,1,110.935,547.6A285.075,285.075,0,0,1,189.065,37.361,283.22,283.22,0,0,1,300,14.965m0-1c-157.953,0-286,128.047-286,286s128.047,286,286,286,286-128.047,286-286-128.047-286-286-286Z" transform="translate(-14 -12.535)"/><line class="c" x1="286.477" x2="286.477" y2="570.093"/><line class="c" x1="571.047" y1="286.953" x2="0.953" y2="286.953"/></g><path class="d" d="M453.5,177.5c-9,5-17,12-17,17,0,4,9,19,18,20,10,0,31-7,41-12,5.684-4.179,5.206-11.795-4-23C476.657,161.435,474.2,167.206,453.5,177.5Z" transform="translate(-14 -12.535)"/><path class="e" d="M350.124,239.615c-9.185-4.652-19.466-7.355-23.607-4.553-3.313,2.242-10.692,18.1-6.477,26.116,5.6,8.282,23.17,21.752,32.915,27.232,6.647,2.366,12.687-2.3,16.808-16.2C376.407,249.791,370.247,250.987,350.124,239.615Z" transform="translate(-14 -12.535)"/><path class="f" d="M329.213,169.77c-1.753,10.145-1.32,20.767,2.574,23.9,3.115,2.51,20.442,4.911,26.867-1.471,6.273-7.787,14-28.532,16.375-39.457.311-7.047-5.919-11.453-20.42-11.313C331.229,141.658,334.179,147.2,329.213,169.77Z" transform="translate(-14 -12.535)"/><path class="g" d="M343.788,53.967c-8.752-5.422-18.763-9-23.129-6.56-3.493,1.949-12.206,17.118-8.693,25.464,4.873,8.732,21.219,23.659,30.458,29.955,6.419,2.926,12.837-1.2,18.135-14.7C369.1,66.36,362.862,67.023,343.788,53.967Z" transform="translate(-14 -12.535)"/><path class="h" d="M423.109,121.975c1.618,10.167,5.459,20.08,10.157,21.79,3.759,1.369,20.933-1.955,24.952-10.07,3.421-9.4,4.029-31.524,2.752-42.631-1.982-6.771-9.3-8.928-22.98-4.111C415.936,94.719,420.517,99.006,423.109,121.975Z" transform="translate(-14 -12.535)"/><path class="i" d="M527.369,267.522c3.729,9.6,9.575,18.475,14.528,19.156,3.963.544,20.048-6.33,22.264-15.11,1.361-9.907-2.715-31.665-6.308-42.252-3.367-6.2-10.976-6.764-23.33.832C514.605,242.394,519.988,245.618,527.369,267.522Z" transform="translate(-14 -12.535)"/><path class="j" d="M466.633,288.78c10.285-.473,20.564-3.181,22.789-7.659,1.78-3.582.395-21.02-7.22-25.921-8.955-4.45-30.876-7.526-42.056-7.5-6.95,1.213-9.912,8.246-6.653,22.377C438.746,292.862,443.518,288.789,466.633,288.78Z" transform="translate(-14 -12.535)"/><path class="k" d="M330.654,364.871c3.946,9.509,9.992,18.253,14.959,18.82,3.975.455,19.9-6.783,21.915-15.612,1.136-9.935-3.434-31.594-7.266-42.1-3.507-6.122-11.127-6.512-23.305,1.362C317.323,340.039,322.777,343.14,330.654,364.871Z" transform="translate(-14 -12.535)"/><path class="l" d="M336.915,426.255c-10.3.014-20.685,2.262-23.108,6.636-1.938,3.5-1.332,20.981,6.057,26.216,8.748,4.845,30.51,8.9,41.681,9.366,7-.9,10.269-7.8,7.644-22.058C364.956,423.42,360.007,427.277,336.915,426.255Z" transform="translate(-14 -12.535)"/><path class="m" d="M348.516,519.5c-8.222-6.2-17.866-10.67-22.436-8.641-3.656,1.623-13.714,15.935-10.976,24.567,4.057,9.14,18.975,25.493,27.6,32.605,6.125,3.5,12.893-.028,19.4-12.988C372.6,534.144,366.321,534.236,348.516,519.5Z" transform="translate(-14 -12.535)"/><path class="n" d="M414.413,372.562c1.957,10.108,6.126,19.887,10.879,21.44,3.8,1.242,20.856-2.654,24.6-10.9,3.106-9.506,2.974-31.641,1.327-42.7-2.207-6.7-9.594-8.612-23.105-3.341C406.334,345.561,411.056,349.693,414.413,372.562Z" transform="translate(-14 -12.535)"/><path class="o" d="M527.952,372.975c9.841,3.025,20.432,3.944,24.037.48,2.884-2.772,7.465-19.654,1.95-26.837-6.928-7.211-26.526-17.5-37.06-21.25-6.951-1.2-12.112,4.418-13.813,18.82C500.324,367.408,506.19,365.184,527.952,372.975Z" transform="translate(-14 -12.535)"/><path class="p" d="M495.425,416.4c-6.672-7.841-15.108-14.308-20.011-13.325-3.922.787-16.859,12.561-16.07,21.581,1.967,9.805,12.96,29.019,19.829,37.84,5.215,4.751,12.588,2.785,21.764-8.445C515.731,435.944,509.588,434.666,495.425,416.4Z" transform="translate(-14 -12.535)"/><path class="q" d="M424.636,485.56c-9.631,3.64-18.563,9.4-19.289,14.351-.581,3.957,6.145,20.1,14.905,22.4,9.894,1.452,31.688-2.424,42.308-5.918,6.23-3.31,6.864-10.914-.617-23.337C449.881,473.028,446.607,478.381,424.636,485.56Z" transform="translate(-14 -12.535)"/></svg>