<svg xmlns="http://www.w3.org/2000/svg" xmlns:xlink="http://www.w3.org/1999/xlink" viewBox="0 0 572 573.43"><defs><style>.a{opacity:0.02;}.b{fill:#003c00;}.c{fill:none;stroke:#000;stroke-miterlimit:10;}.d{fill:url(#a);}.e{opacity:0.34;}.f{fill:url(#b);}.g{fill:url(#c);}.h{fill:url(#d);}.i{fill:url(#e);}.j{fill:url(#f);}.k{fill:url(#g);}.l{fill:url(#h);}.m{fill:url(#i);}.n{fill:url(#j);}.o{fill:url(#k);}.p{fill:url(#l);}.q{fill:url(#m);}.r{fill:url(#n);}.s{fill:url(#o);}.t{fill:url(#p);}.u{fill:url(#q);}.v{fill:url(#r);}.w{fill:url(#s);}.x{fill:url(#t);}.y{fill:url(#u);}.z{fill:url(#v);}.aa{fill:url(#w);}</style><radialGradient id="a" cx="299.14" cy="298.2" r="15.748" gradientTransform="translate(-3.235 586.326) rotate(-90) scale(1 0.92)" gradientUnits="userSpaceOnUse"><stop offset="0.295"/><stop offset="0.632" stop-color="#302b00"/><stop offset="0.79" stop-color="#322d00"/><stop offset="0.929" stop-color="#373500"/><stop offset="1"/></radialGradient><radialGradient id="b" cx="372.14" cy="278.2" r="15.747" gradientTransform="translate(-57.835 679.326) rotate(-90) scale(1 0.92)" xlink:href="#a"/><radialGradient id="c" cx="424.14" cy="325.2" r="15.748" gradientTransform="translate(-153.075 684.326) rotate(-90) scale(1 0.92)" xlink:href="#a"/><radialGradient id="d" cx="477.14" cy="289.2" r="15.744" gradientTransform="translate(-172.955 773.326) rotate(-90) scale(1 0.92)" xlink:href="#a"/><radialGradient id="e" cx="370.14" cy="382.2" r="15.748" gradientTransform="translate(-151.515 573.326) rotate(-90) scale(1 0.92)" xlink:href="#a"/><radialGradient id="f" cx="306.14" cy="395.2" r="15.748" gradientTransform="translate(-99.475 496.326) rotate(-90) scale(1 0.92)" xlink:href="#a"/><radialGradient id="g" cx="294.14" cy="487.2" r="15.744" gradientTransform="translate(-172.115 392.326) rotate(-90) scale(1 0.92)" xlink:href="#a"/><radialGradient id="h" cx="362.14" cy="494.2" r="15.747" gradientTransform="translate(-246.555 453.326) rotate(-90) scale(1 0.92)" xlink:href="#a"/><radialGradient id="i" cx="426.14" cy="498.2" r="15.746" gradientTransform="translate(-314.235 513.326) rotate(-90) scale(1 0.92)" xlink:href="#a"/><radialGradient id="j" cx="414.14" cy="429.2" r="15.745" gradientTransform="translate(-238.755 570.326) rotate(-90) scale(1 0.92)" xlink:href="#a"/><radialGradient id="k" cx="489.14" cy="389.2" r="15.749" gradientTransform="translate(-276.955 685.326) rotate(-90) scale(1 0.92)" xlink:href="#a"/><radialGradient id="l" cx="483.14" cy="444.2" r="15.748" gradientTransform="translate(-321.555 624.326) rotate(-90) scale(1 0.92)" xlink:href="#a"/><radialGradient id="m" cx="531.14" cy="304.2" r="15.744" gradientTransform="translate(-240.755 812.326) rotate(-90) scale(1 0.92)" xlink:href="#a"/><radialGradient id="n" cx="504.14" cy="185.2" r="15.748" gradientTransform="translate(-104.275 904.326) rotate(-90) scale(1 0.92)" xlink:href="#a"/><radialGradient id="o" cx="461.14" cy="133.2" r="15.745" gradientTransform="translate(-13.435 913.326) rotate(-90) scale(1 0.92)" xlink:href="#a"/><radialGradient id="p" cx="301.14" cy="193.2" r="15.745" gradientTransform="translate(91.365 693.326) rotate(-90) scale(1 0.92)" xlink:href="#a"/><radialGradient id="q" cx="369.14" cy="191.2" r="15.747" gradientTransform="translate(25.205 763.326) rotate(-90) scale(1 0.92)" xlink:href="#a"/><radialGradient id="r" cx="382.14" cy="112.2" r="15.746" gradientTransform="translate(84.885 855.326) rotate(-90) scale(1 0.92)" xlink:href="#a"/><radialGradient id="s" cx="299.14" cy="23.2" r="15.747" gradientTransform="translate(249.765 861.326) rotate(-90) scale(1 0.92)" xlink:href="#a"/><radialGradient id="t" cx="421.14" cy="66.2" r="15.747" gradientTransform="translate(88.205 940.326) rotate(-90) scale(1 0.92)" xlink:href="#a"/><radialGradient id="u" cx="312.14" cy="86.2" r="15.747" gradientTransform="translate(-58.632 557.458) rotate(-24.68) scale(1 0.92)" xlink:href="#a"/><radialGradient id="v" cx="438.14" cy="226.2" r="15.747" gradientTransform="translate(-75.995 797.326) rotate(-90) scale(1 0.92)" xlink:href="#a"/><radialGradient id="w" cx="309.14" cy="550.2" r="15.745" gradientTransform="translate(-245.075 344.326) rotate(-90) scale(1 0.92)" xlink:href="#a"/></defs><title>olivesleft</title><g class="a"><path class="b" d="M300,14.965a285.076,285.076,0,0,1,110.935,547.6A285.075,285.075,0,0,1,189.065,37.361,283.22,283.22,0,0,1,300,14.965m0-1c-157.953,0-286,128.047-286,286s128.047,286,286,286,286-128.047,286-286-128.047-286-286-286Z" transform="translate(-14 -12.535)"/><line class="c" x1="286.477" x2="286.477" y2="570.093"/><line class="c" x1="571.047" y1="286.953" x2="0.953" y2="286.953"/></g><path class="d" d="M255.245,291.345c2.109,8.046,10.922,12.706,19.683,10.409s14.154-10.68,12.045-18.726-10.921-12.706-19.682-10.409S253.136,283.3,255.245,291.345Zm23.216-6.086c.977,3.729-1.522,7.614-5.582,8.679s-8.144-1.1-9.121-4.824,1.521-7.614,5.582-8.678S277.484,281.531,278.461,285.259Z" transform="translate(-14 -12.535)"/><g class="e"><path d="M271.8,273.033c6.782,0,12.624,4.214,14.206,10.249a13.38,13.38,0,0,1-1.82,10.724,16.056,16.056,0,0,1-9.512,6.781,16.8,16.8,0,0,1-4.255.553c-6.783,0-12.625-4.214-14.206-10.249a13.38,13.38,0,0,1,1.819-10.724,16.062,16.062,0,0,1,9.512-6.781,16.8,16.8,0,0,1,4.256-.553m-1.011,22.176a9.232,9.232,0,0,0,2.343-.3,8.9,8.9,0,0,0,5.268-3.767,7.643,7.643,0,0,0,1.028-6.132,8.12,8.12,0,0,0-8-5.842,9.238,9.238,0,0,0-2.343.3,8.9,8.9,0,0,0-5.268,3.767,7.651,7.651,0,0,0-1.028,6.132,8.12,8.12,0,0,0,8,5.842m1.011-23.176a17.768,17.768,0,0,0-4.51.586c-8.761,2.3-14.154,10.68-12.045,18.726,1.745,6.656,8.078,10.995,15.173,10.995a17.762,17.762,0,0,0,4.51-.586c8.761-2.3,14.154-10.68,12.045-18.726-1.744-6.656-8.077-11-15.173-11Zm-1.011,22.176a7.1,7.1,0,0,1-7.031-5.1c-.978-3.729,1.521-7.614,5.582-8.678a8.227,8.227,0,0,1,2.089-.272,7.1,7.1,0,0,1,7.032,5.1c.977,3.729-1.522,7.614-5.582,8.679a8.278,8.278,0,0,1-2.09.271Z" transform="translate(-14 -12.535)"/></g><path class="f" d="M212.066,315.8c4.368-7.079,1.66-16.672-6.049-21.428s-17.5-2.874-21.865,4.2S182.493,315.247,190.2,320,207.7,322.877,212.066,315.8Zm-20.425-12.6c2.024-3.28,6.561-4.153,10.133-1.949s4.827,6.65,2.8,9.93-6.56,4.153-10.132,1.949S189.617,306.476,191.641,303.2Z" transform="translate(-14 -12.535)"/><g class="e"><path d="M196.9,292.744a16.362,16.362,0,0,1,8.588,2.477,16.057,16.057,0,0,1,7.116,9.264,13.381,13.381,0,0,1-1.393,10.788,13.765,13.765,0,0,1-11.9,6.356,16.368,16.368,0,0,1-8.589-2.477,16.055,16.055,0,0,1-7.115-9.264A13.381,13.381,0,0,1,185,299.1a13.768,13.768,0,0,1,11.9-6.356m1.764,22.6a7.832,7.832,0,0,0,6.76-3.641,7.643,7.643,0,0,0,.808-6.165A8.9,8.9,0,0,0,202.3,300.4a9.042,9.042,0,0,0-4.748-1.366,7.833,7.833,0,0,0-6.761,3.641c-2.31,3.744-.906,8.816,3.129,11.306a9.048,9.048,0,0,0,4.749,1.366m-1.764-23.6a14.762,14.762,0,0,0-12.752,6.831c-4.367,7.079-1.659,16.672,6.049,21.428a17.369,17.369,0,0,0,9.114,2.626,14.761,14.761,0,0,0,12.751-6.831c4.368-7.079,1.66-16.672-6.049-21.428a17.363,17.363,0,0,0-9.113-2.626Zm1.764,22.6a8.044,8.044,0,0,1-4.223-1.217c-3.573-2.2-4.828-6.65-2.8-9.93a6.843,6.843,0,0,1,5.91-3.166,8.049,8.049,0,0,1,4.223,1.217c3.572,2.2,4.827,6.65,2.8,9.93a6.84,6.84,0,0,1-5.909,3.166Z" transform="translate(-14 -12.535)"/></g><path class="g" d="M141.317,275.871c7.954,2.43,16.548-2.622,19.195-11.284s-1.656-17.654-9.611-20.085-16.548,2.622-19.2,11.284S133.363,273.44,141.317,275.871Zm7.013-22.953c3.686,1.127,5.68,5.294,4.454,9.308s-5.209,6.355-8.9,5.229-5.68-5.294-4.453-9.308S144.644,251.792,148.33,252.918Z" transform="translate(-14 -12.535)"/><g class="e"><path d="M146.824,244.892a12.93,12.93,0,0,1,3.785.567,13.382,13.382,0,0,1,8.171,7.18,16.062,16.062,0,0,1,.776,11.656c-2.013,6.586-7.836,11.186-14.162,11.186a12.935,12.935,0,0,1-3.785-.567c-7.414-2.265-11.428-10.715-8.946-18.836,2.012-6.586,7.836-11.186,14.161-11.186m-1.046,23.845a8.563,8.563,0,0,0,7.962-6.219,8.9,8.9,0,0,0-.439-6.461,7.646,7.646,0,0,0-4.679-4.1,7.436,7.436,0,0,0-2.181-.326,8.563,8.563,0,0,0-7.963,6.219,8.908,8.908,0,0,0,.439,6.461,7.648,7.648,0,0,0,4.679,4.1,7.448,7.448,0,0,0,2.182.326m1.046-24.845c-6.625,0-12.92,4.7-15.118,11.894-2.646,8.662,1.657,17.654,9.611,20.085a13.919,13.919,0,0,0,4.077.61c6.626,0,12.921-4.7,15.118-11.894,2.647-8.662-1.656-17.654-9.611-20.085a13.919,13.919,0,0,0-4.077-.61Zm-1.046,23.845a6.468,6.468,0,0,1-1.89-.282c-3.686-1.127-5.68-5.294-4.453-9.308a7.533,7.533,0,0,1,7.006-5.511,6.462,6.462,0,0,1,1.889.282c3.686,1.127,5.68,5.294,4.454,9.308a7.534,7.534,0,0,1-7.006,5.511Z" transform="translate(-14 -12.535)"/></g><path class="h" d="M93.109,312.587c8.318,0,15.06-7.343,15.06-16.4s-6.742-16.4-15.06-16.4-15.06,7.342-15.06,16.4S84.792,312.587,93.109,312.587Zm0-24c3.855,0,6.979,3.4,6.979,7.6s-3.124,7.6-6.979,7.6-6.979-3.4-6.979-7.6S89.255,288.587,93.109,288.587Z" transform="translate(-14 -12.535)"/><g class="e"><path d="M93.109,280.786c7.753,0,14.06,6.909,14.06,15.4s-6.307,15.4-14.06,15.4-14.06-6.909-14.06-15.4,6.307-15.4,14.06-15.4m0,24c4.4,0,7.979-3.857,7.979-8.6s-3.579-8.6-7.979-8.6-7.979,3.857-7.979,8.6,3.58,8.6,7.979,8.6m0-25c-8.317,0-15.06,7.343-15.06,16.4s6.743,16.4,15.06,16.4,15.06-7.343,15.06-16.4-6.742-16.4-15.06-16.4Zm0,24c-3.854,0-6.979-3.4-6.979-7.6s3.125-7.6,6.979-7.6,6.979,3.4,6.979,7.6-3.124,7.6-6.979,7.6Z" transform="translate(-14 -12.535)"/></g><path class="i" d="M206.546,218.27c7.65-3.264,10.97-12.664,7.415-21s-12.639-12.437-20.289-9.172-10.969,12.664-7.414,21S198.9,221.535,206.546,218.27Zm-9.42-22.074c3.545-1.512,7.755.391,9.4,4.251s.109,8.217-3.436,9.73-7.754-.391-9.4-4.251S193.581,197.709,197.126,196.2Z" transform="translate(-14 -12.535)"/><g class="e"><path d="M199.166,187.981a15.352,15.352,0,0,1,13.875,9.687,16.062,16.062,0,0,1,.472,11.672,13.387,13.387,0,0,1-7.359,8.011,12.939,12.939,0,0,1-5.1,1.041,15.354,15.354,0,0,1-13.876-9.687,16.062,16.062,0,0,1-.471-11.672,13.381,13.381,0,0,1,7.359-8.011,12.935,12.935,0,0,1,5.1-1.041m1.38,23.715a7.45,7.45,0,0,0,2.939-.6c4.046-1.726,5.824-6.68,3.963-11.041a8.573,8.573,0,0,0-7.776-5.378,7.441,7.441,0,0,0-2.938.6c-4.047,1.727-5.825,6.68-3.964,11.041a8.575,8.575,0,0,0,7.776,5.378m-1.38-24.715a13.946,13.946,0,0,0-5.494,1.122c-7.65,3.264-10.969,12.664-7.414,21a16.438,16.438,0,0,0,14.795,10.294,13.941,13.941,0,0,0,5.493-1.122c7.65-3.264,10.97-12.664,7.415-21a16.439,16.439,0,0,0-14.8-10.294Zm1.38,23.715a7.617,7.617,0,0,1-6.856-4.77c-1.647-3.861-.109-8.217,3.436-9.73a6.475,6.475,0,0,1,2.546-.519,7.616,7.616,0,0,1,6.856,4.77c1.648,3.861.109,8.217-3.436,9.73a6.471,6.471,0,0,1-2.546.519Z" transform="translate(-14 -12.535)"/></g><path class="j" d="M259.913,206.041c8.04,2.128,16.437-3.245,18.755-12s-2.322-17.579-10.362-19.708-16.438,3.245-18.756,12S251.872,203.912,259.913,206.041Zm6.141-23.2c3.726.986,5.876,5.075,4.8,9.132s-4.965,6.548-8.691,5.561-5.877-5.075-4.8-9.132S262.328,181.853,266.054,182.84Z" transform="translate(-14 -12.535)"/><g class="e"><path d="M264.736,174.867a12.943,12.943,0,0,1,3.314.432c7.494,1.984,11.824,10.276,9.651,18.485-1.826,6.9-7.674,11.722-14.219,11.722a12.941,12.941,0,0,1-3.313-.432,13.386,13.386,0,0,1-8.437-6.867,16.064,16.064,0,0,1-1.215-11.618c1.827-6.9,7.674-11.722,14.219-11.722m-.917,23.882a8.481,8.481,0,0,0,8-6.521,8.9,8.9,0,0,0-.683-6.439,7.646,7.646,0,0,0-4.83-3.916,7.478,7.478,0,0,0-1.91-.249,8.48,8.48,0,0,0-8,6.521,8.9,8.9,0,0,0,.682,6.439,7.648,7.648,0,0,0,4.831,3.916,7.472,7.472,0,0,0,1.91.249m.917-24.882c-6.822,0-13.21,5-15.186,12.466-2.317,8.756,2.322,17.579,10.363,19.708a13.954,13.954,0,0,0,3.569.465c6.822,0,13.211-5,15.186-12.466,2.318-8.756-2.322-17.579-10.362-19.707a13.919,13.919,0,0,0-3.57-.466Zm-.917,23.882a6.444,6.444,0,0,1-1.654-.216c-3.727-.986-5.877-5.075-4.8-9.132a7.5,7.5,0,0,1,7.037-5.777,6.45,6.45,0,0,1,1.654.216c3.726.986,5.876,5.075,4.8,9.132a7.5,7.5,0,0,1-7.037,5.777Z" transform="translate(-14 -12.535)"/></g><path class="k" d="M287.592,109.9c5.939-5.823,5.611-15.787-.73-22.253s-16.3-6.988-22.236-1.164-5.611,15.787.731,22.253S281.654,115.719,287.592,109.9Zm-16.8-17.135c2.752-2.7,7.365-2.457,10.3.54s3.091,7.614.339,10.313-7.366,2.457-10.305-.54S268.036,95.459,270.788,92.76Z" transform="translate(-14 -12.535)"/><g class="e"><path d="M274.767,83.429a16.423,16.423,0,0,1,16.066,15.613,13.186,13.186,0,0,1-13.381,13.9,16.111,16.111,0,0,1-11.381-4.913c-5.946-6.062-6.28-15.411-.745-20.839a13.364,13.364,0,0,1,9.441-3.763m1.964,23.06a7.572,7.572,0,0,0,7.664-7.954,9.074,9.074,0,0,0-8.908-8.651,7.648,7.648,0,0,0-5.4,2.162c-3.142,3.081-3,8.342.325,11.727a8.935,8.935,0,0,0,6.318,2.716m-1.964-24.06a14.34,14.34,0,0,0-10.141,4.049c-5.938,5.823-5.611,15.787.731,22.253a17.032,17.032,0,0,0,12.095,5.213,14.339,14.339,0,0,0,10.14-4.049c5.939-5.823,5.611-15.787-.73-22.253a17.035,17.035,0,0,0-12.1-5.213Zm1.964,23.06a7.9,7.9,0,0,1-5.605-2.416c-2.938-3-3.09-7.614-.338-10.313a6.645,6.645,0,0,1,4.7-1.876,7.894,7.894,0,0,1,5.6,2.416c2.939,3,3.091,7.614.339,10.313a6.648,6.648,0,0,1-4.7,1.876Z" transform="translate(-14 -12.535)"/></g><path class="l" d="M204.964,107.282c8.163,1.595,16.189-4.318,17.926-13.207s-3.472-17.389-11.635-18.984S195.066,79.409,193.329,88.3,196.8,105.687,204.964,107.282Zm4.6-23.554c3.783.739,6.2,4.678,5.392,8.8s-4.525,6.86-8.307,6.12-6.2-4.678-5.392-8.8S205.784,82.988,209.567,83.728Z" transform="translate(-14 -12.535)"/><g class="e"><path d="M208.577,75.831a13.009,13.009,0,0,1,2.486.241c7.609,1.487,12.474,9.477,10.845,17.811-1.433,7.335-7.433,12.659-14.267,12.659a12.991,12.991,0,0,1-2.485-.241c-7.609-1.487-12.475-9.477-10.846-17.811,1.434-7.335,7.434-12.659,14.267-12.659m-.685,23.935a8.442,8.442,0,0,0,8.048-7.049c.91-4.654-1.863-9.127-6.181-9.971a7.507,7.507,0,0,0-1.433-.139,8.442,8.442,0,0,0-8.048,7.049,8.9,8.9,0,0,0,1.105,6.381,7.647,7.647,0,0,0,5.077,3.59,7.5,7.5,0,0,0,1.432.139m.685-24.935c-7.173,0-13.7,5.554-15.248,13.467-1.737,8.889,3.472,17.389,11.635,18.984a13.968,13.968,0,0,0,2.677.26c7.174,0,13.7-5.554,15.249-13.467,1.737-8.889-3.472-17.389-11.635-18.984a13.978,13.978,0,0,0-2.678-.26Zm-.685,23.935a6.393,6.393,0,0,1-1.24-.121c-3.783-.739-6.2-4.678-5.392-8.8a7.452,7.452,0,0,1,7.066-6.241,6.4,6.4,0,0,1,1.241.121c3.783.739,6.2,4.678,5.392,8.8a7.454,7.454,0,0,1-7.067,6.241Z" transform="translate(-14 -12.535)"/></g><path class="m" d="M157.636,96.459c4.7-6.86,2.459-16.573-5.011-21.694s-17.34-3.712-22.042,3.149-2.46,16.573,5.011,21.694S152.933,103.32,157.636,96.459Zm-19.795-13.57c2.179-3.179,6.752-3.832,10.214-1.459s4.5,6.875,2.323,10.054-6.753,3.832-10.215,1.459S135.661,86.068,137.841,82.889Z" transform="translate(-14 -12.535)"/><g class="e"><path d="M142.853,72.684a16.242,16.242,0,0,1,9.206,2.906c7,4.8,9.136,13.91,4.752,20.3a13.586,13.586,0,0,1-11.446,5.795,16.244,16.244,0,0,1-9.206-2.906c-7-4.8-9.135-13.909-4.752-20.3a13.591,13.591,0,0,1,11.446-5.8m1.838,22.686a7.841,7.841,0,0,0,6.512-3.321,7.645,7.645,0,0,0,1.1-6.119A9.111,9.111,0,0,0,143.527,79a7.841,7.841,0,0,0-6.511,3.321,7.649,7.649,0,0,0-1.1,6.119,9.113,9.113,0,0,0,8.779,6.927m-1.838-23.686a14.671,14.671,0,0,0-12.27,6.23c-4.7,6.86-2.46,16.573,5.011,21.694a17.3,17.3,0,0,0,9.771,3.081,14.672,14.672,0,0,0,12.271-6.23c4.7-6.86,2.459-16.573-5.011-21.694a17.305,17.305,0,0,0-9.772-3.081Zm1.838,22.686a8.018,8.018,0,0,1-4.528-1.427c-3.462-2.373-4.5-6.875-2.322-10.054A6.8,6.8,0,0,1,143.527,80a8.014,8.014,0,0,1,4.528,1.427c3.462,2.373,4.5,6.875,2.323,10.054a6.8,6.8,0,0,1-5.687,2.886Z" transform="translate(-14 -12.535)"/></g><path class="n" d="M145.963,169.071c6.535,5.146,16.375,3.549,21.978-3.567s4.849-17.056-1.685-22.2-16.375-3.549-21.979,3.567S139.428,163.925,145.963,169.071Zm14.848-18.855c3.028,2.384,3.378,6.991.781,10.288s-7.156,4.038-10.185,1.653-3.378-6.991-.781-10.288S157.783,147.831,160.811,150.216Z" transform="translate(-14 -12.535)"/><g class="e"><path d="M157.411,141.285a13.151,13.151,0,0,1,8.226,2.8,13.379,13.379,0,0,1,5.016,9.652,16.357,16.357,0,0,1-15.845,17.348,13.149,13.149,0,0,1-8.226-2.8,13.38,13.38,0,0,1-5.017-9.652,16.358,16.358,0,0,1,15.846-17.348m-1.905,23.271a8.87,8.87,0,0,0,6.872-3.433c2.934-3.726,2.508-8.971-.948-11.693a7.546,7.546,0,0,0-4.718-1.613,9.043,9.043,0,0,0-8.8,9.614,7.646,7.646,0,0,0,2.879,5.512,7.543,7.543,0,0,0,4.717,1.613m1.905-24.271a16.868,16.868,0,0,0-13.134,6.584c-5.6,7.116-4.849,17.056,1.686,22.2a14.183,14.183,0,0,0,8.845,3.017,16.868,16.868,0,0,0,13.133-6.584c5.6-7.116,4.849-17.056-1.685-22.2a14.185,14.185,0,0,0-8.845-3.017Zm-1.905,23.271a6.574,6.574,0,0,1-4.1-1.4c-3.028-2.384-3.378-6.991-.781-10.288a7.82,7.82,0,0,1,6.086-3.052,6.572,6.572,0,0,1,4.1,1.4c3.028,2.384,3.378,6.991.781,10.288a7.815,7.815,0,0,1-6.086,3.052Z" transform="translate(-14 -12.535)"/></g><path class="o" d="M86.362,211.723c7.879-2.664,11.915-11.779,9.014-20.36s-11.64-13.376-19.519-10.713-11.915,11.779-9.015,20.36S78.482,214.386,86.362,211.723Zm-7.687-22.736c3.652-1.235,7.7.988,9.046,4.964s-.526,8.2-4.178,9.435-7.7-.988-9.045-4.964S75.024,190.221,78.675,188.987Z" transform="translate(-14 -12.535)"/><g class="e"><path d="M80.328,180.915c6.256,0,11.923,4.327,14.1,10.769A16.06,16.06,0,0,1,94,203.357a13.379,13.379,0,0,1-7.956,7.418,12.915,12.915,0,0,1-4.15.684c-6.257,0-11.924-4.328-14.1-10.77-2.72-8.044,1.043-16.608,8.387-19.091a12.915,12.915,0,0,1,4.151-.683m1.143,23.812a7.454,7.454,0,0,0,2.392-.393A7.65,7.65,0,0,0,88.42,200.1a8.9,8.9,0,0,0,.248-6.471,8.519,8.519,0,0,0-7.921-5.985,7.454,7.454,0,0,0-2.392.393,7.648,7.648,0,0,0-4.556,4.232,8.9,8.9,0,0,0-.249,6.471,8.52,8.52,0,0,0,7.921,5.985m-1.143-24.812a13.94,13.94,0,0,0-4.471.735c-7.879,2.664-11.915,11.779-9.015,20.36,2.358,6.974,8.574,11.449,15.049,11.449a13.945,13.945,0,0,0,4.471-.736c7.879-2.664,11.915-11.779,9.014-20.36-2.358-6.974-8.573-11.448-15.048-11.448Zm1.143,23.812a7.556,7.556,0,0,1-6.973-5.305c-1.344-3.977.526-8.2,4.177-9.435a6.459,6.459,0,0,1,2.072-.341,7.557,7.557,0,0,1,6.974,5.305c1.344,3.977-.526,8.2-4.178,9.435a6.454,6.454,0,0,1-2.072.341Z" transform="translate(-14 -12.535)"/></g><path class="p" d="M80.84,156.341c7.685,3.179,16.723-1.028,20.185-9.4s.039-17.732-7.646-20.912-16.723,1.028-20.186,9.4S73.154,153.161,80.84,156.341Zm9.175-22.177c3.561,1.473,5.148,5.812,3.543,9.691s-5.792,5.828-9.354,4.354-5.148-5.812-3.544-9.69S86.453,132.69,90.015,134.164Z" transform="translate(-14 -12.535)"/><g class="e"><path d="M88.031,125.971a12.933,12.933,0,0,1,4.965.985,13.384,13.384,0,0,1,7.448,7.929,16.056,16.056,0,0,1-.343,11.676c-2.435,5.886-8.026,9.841-13.913,9.841a12.92,12.92,0,0,1-4.966-.985c-7.164-2.964-10.351-11.759-7.1-19.6,2.435-5.886,8.027-9.841,13.914-9.841M86.682,149.7a8.661,8.661,0,0,0,7.8-5.464,8.9,8.9,0,0,0,.181-6.473A7.649,7.649,0,0,0,90.4,133.24a7.443,7.443,0,0,0-2.861-.568,8.662,8.662,0,0,0-7.8,5.464c-1.813,4.382.02,9.315,4.086,11a7.438,7.438,0,0,0,2.86.568m1.349-24.73a16.419,16.419,0,0,0-14.838,10.458c-3.463,8.37-.039,17.732,7.647,20.912a13.943,13.943,0,0,0,5.348,1.061,16.418,16.418,0,0,0,14.837-10.458c3.463-8.37.039-17.732-7.646-20.912a13.943,13.943,0,0,0-5.348-1.061ZM86.682,148.7a6.453,6.453,0,0,1-2.478-.492c-3.562-1.473-5.148-5.812-3.544-9.69a7.61,7.61,0,0,1,6.876-4.847,6.458,6.458,0,0,1,2.479.492c3.561,1.473,5.148,5.812,3.543,9.691a7.609,7.609,0,0,1-6.876,4.846Z" transform="translate(-14 -12.535)"/></g><path class="q" d="M50.322,293.154c6.07-5.686,5.97-15.655-.223-22.264s-16.133-7.358-22.2-1.671-5.97,15.655.223,22.264S44.252,298.841,50.322,293.154ZM33.913,275.64c2.813-2.635,7.419-2.288,10.289.775s2.916,7.682.1,10.318-7.419,2.288-10.289-.775S31.1,278.276,33.913,275.64Z" transform="translate(-14 -12.535)"/><g class="e"><path d="M37.77,266.4a16.041,16.041,0,0,1,11.6,5.175c5.805,6.2,5.926,15.551.268,20.852a13.359,13.359,0,0,1-9.19,3.55,16.037,16.037,0,0,1-11.6-5.175c-5.806-6.2-5.927-15.551-.269-20.852a13.359,13.359,0,0,1,9.19-3.55m1.96,23.1a7.647,7.647,0,0,0,5.259-2.041c3.211-3.008,3.185-8.27-.057-11.731a8.9,8.9,0,0,0-6.443-2.861,7.569,7.569,0,0,0-7.655,7.779,9.066,9.066,0,0,0,8.9,8.854m-1.96-24.1a14.3,14.3,0,0,0-9.874,3.821c-6.069,5.686-5.97,15.655.223,22.264a17,17,0,0,0,12.329,5.492,14.3,14.3,0,0,0,9.874-3.821c6.07-5.686,5.97-15.655-.223-22.264A17,17,0,0,0,37.77,265.4Zm1.96,23.1a7.878,7.878,0,0,1-5.714-2.545c-2.87-3.063-2.916-7.682-.1-10.318a6.631,6.631,0,0,1,4.576-1.77,7.877,7.877,0,0,1,5.713,2.545c2.87,3.063,2.916,7.682.1,10.318a6.629,6.629,0,0,1-4.575,1.77Z" transform="translate(-14 -12.535)"/></g><path class="r" d="M59.046,414.987c7.506,3.583,16.754-.14,20.655-8.314s.978-17.7-6.528-21.287-16.754.14-20.655,8.314S51.539,411.405,59.046,414.987Zm10.337-21.659c3.478,1.66,4.833,6.076,3.025,9.865s-6.094,5.513-9.572,3.852-4.833-6.076-3.025-9.864S65.9,391.667,69.383,393.328Z" transform="translate(-14 -12.535)"/><g class="e"><path d="M67.131,385.023a12.918,12.918,0,0,1,5.611,1.265c7,3.339,9.714,12.291,6.056,19.954a15.519,15.519,0,0,1-13.711,9.108,12.925,12.925,0,0,1-5.611-1.265,13.382,13.382,0,0,1-7.016-8.313,16.056,16.056,0,0,1,.96-11.641,15.521,15.521,0,0,1,13.711-9.108m-1.5,23.654a8.66,8.66,0,0,0,7.674-5.054,8.9,8.9,0,0,0,.524-6.454,7.649,7.649,0,0,0-4.021-4.744,7.434,7.434,0,0,0-3.23-.729,8.662,8.662,0,0,0-7.675,5.054,8.9,8.9,0,0,0-.523,6.454,7.648,7.648,0,0,0,4.02,4.744,7.442,7.442,0,0,0,3.231.729m1.5-24.654A16.508,16.508,0,0,0,52.518,393.7c-3.9,8.174-.979,17.7,6.528,21.287a13.969,13.969,0,0,0,6.041,1.363A16.508,16.508,0,0,0,79.7,406.673c3.9-8.174.978-17.7-6.528-21.287a13.971,13.971,0,0,0-6.042-1.363Zm-1.5,23.654a6.468,6.468,0,0,1-2.8-.632c-3.479-1.66-4.833-6.076-3.025-9.864a7.65,7.65,0,0,1,6.772-4.485,6.475,6.475,0,0,1,2.8.632c3.478,1.66,4.833,6.076,3.025,9.865a7.652,7.652,0,0,1-6.772,4.484Z" transform="translate(-14 -12.535)"/></g><path class="s" d="M119.975,464.47c6.23-5.51,6.416-15.477.415-22.262s-15.917-7.816-22.147-2.305-6.415,15.477-.414,22.262S113.745,469.981,119.975,464.47Zm-15.9-17.976c2.887-2.554,7.482-2.075,10.263,1.069s2.695,7.762-.192,10.316-7.482,2.075-10.263-1.069S101.187,449.048,104.074,446.494Z" transform="translate(-14 -12.535)"/><g class="e"><path d="M107.778,437.36A16.392,16.392,0,0,1,123.769,453.8a13.379,13.379,0,0,1-4.457,9.923,13.167,13.167,0,0,1-8.872,3.292A15.94,15.94,0,0,1,98.578,461.5c-5.626-6.36-5.479-15.714.328-20.85a13.167,13.167,0,0,1,8.872-3.292m1.948,23.161a7.646,7.646,0,0,0,5.081-1.893c3.3-2.915,3.421-8.176.279-11.728a8.85,8.85,0,0,0-6.594-3.048,7.656,7.656,0,0,0-5.081,1.893c-3.3,2.915-3.42,8.176-.278,11.728a8.848,8.848,0,0,0,6.593,3.048m-1.948-24.161a14.266,14.266,0,0,0-9.535,3.543c-6.229,5.51-6.415,15.477-.414,22.262a16.958,16.958,0,0,0,12.611,5.848,14.264,14.264,0,0,0,9.535-3.543c6.23-5.51,6.416-15.477.415-22.262a16.96,16.96,0,0,0-12.612-5.848Zm1.948,23.161a7.856,7.856,0,0,1-5.844-2.711c-2.781-3.143-2.7-7.762.192-10.316a6.61,6.61,0,0,1,4.418-1.642,7.858,7.858,0,0,1,5.845,2.711c2.781,3.143,2.695,7.762-.192,10.316a6.615,6.615,0,0,1-4.419,1.642Z" transform="translate(-14 -12.535)"/></g><path class="t" d="M256.286,402.411c5.186,6.5,15.13,7.2,22.212,1.551s8.619-15.5,3.434-22-15.13-7.2-22.212-1.551S251.1,395.907,256.286,402.411Zm18.766-14.963c2.4,3.014,1.69,7.579-1.592,10.195s-7.89,2.3-10.293-.718-1.691-7.579,1.591-10.195S272.649,384.435,275.052,387.448Z" transform="translate(-14 -12.535)"/><g class="e"><path d="M270.42,377.592a13.574,13.574,0,0,1,10.73,4.994,13.381,13.381,0,0,1,2.677,10.543,16.064,16.064,0,0,1-5.952,10.051,16.269,16.269,0,0,1-10.077,3.6,13.577,13.577,0,0,1-10.73-4.994,13.381,13.381,0,0,1-2.677-10.543,16.061,16.061,0,0,1,5.953-10.051,16.267,16.267,0,0,1,10.076-3.6M268.5,400.413a9.009,9.009,0,0,0,5.582-1.988,8.9,8.9,0,0,0,3.292-5.576,7.648,7.648,0,0,0-1.543-6.024,7.746,7.746,0,0,0-6.116-2.865,9.007,9.007,0,0,0-5.582,1.988,8.9,8.9,0,0,0-3.292,5.576,7.648,7.648,0,0,0,1.542,6.024,7.746,7.746,0,0,0,6.117,2.865m1.918-23.821a17.208,17.208,0,0,0-10.7,3.819c-7.082,5.647-8.619,15.5-3.434,22a14.547,14.547,0,0,0,11.512,5.37,17.2,17.2,0,0,0,10.7-3.819c7.082-5.647,8.619-15.5,3.434-22a14.546,14.546,0,0,0-11.512-5.37ZM268.5,399.413a6.741,6.741,0,0,1-5.335-2.488c-2.4-3.014-1.691-7.579,1.591-10.195a7.974,7.974,0,0,1,4.959-1.77,6.744,6.744,0,0,1,5.335,2.488c2.4,3.014,1.69,7.579-1.592,10.195a7.969,7.969,0,0,1-4.958,1.77Z" transform="translate(-14 -12.535)"/></g><path class="u" d="M209.661,408.18c7.1-4.337,9.022-14.118,4.3-21.846s-14.305-10.478-21.4-6.141-9.022,14.118-4.3,21.846S202.564,412.518,209.661,408.18ZM197.146,387.7c3.289-2.01,7.73-.736,9.918,2.845s1.3,8.115-1.992,10.125-7.729.735-9.918-2.846S193.857,389.711,197.146,387.7Z" transform="translate(-14 -12.535)"/><g class="e"><path d="M199.926,379.137a15.723,15.723,0,0,1,13.181,7.718c4.427,7.246,2.648,16.43-3.968,20.472a13.115,13.115,0,0,1-6.847,1.909,15.722,15.722,0,0,1-13.18-7.718c-4.428-7.246-2.648-16.43,3.967-20.472a13.117,13.117,0,0,1,6.847-1.909m1.732,23.487a7.544,7.544,0,0,0,3.936-1.1,7.651,7.651,0,0,0,3.51-5.133,8.907,8.907,0,0,0-1.186-6.366,8.759,8.759,0,0,0-7.357-4.277,7.544,7.544,0,0,0-3.936,1.1c-3.754,2.294-4.8,7.453-2.324,11.5a8.757,8.757,0,0,0,7.357,4.277m-1.732-24.487a14.045,14.045,0,0,0-7.368,2.056c-7.1,4.337-9.022,14.118-4.3,21.846a16.68,16.68,0,0,0,14.033,8.2,14.049,14.049,0,0,0,7.369-2.056c7.1-4.337,9.022-14.118,4.3-21.846a16.682,16.682,0,0,0-14.034-8.2Zm1.732,23.487a7.731,7.731,0,0,1-6.5-3.8c-2.189-3.582-1.3-8.115,1.992-10.124a6.511,6.511,0,0,1,3.415-.953,7.729,7.729,0,0,1,6.5,3.8c2.189,3.582,1.3,8.115-1.992,10.125a6.519,6.519,0,0,1-3.414.952Z" transform="translate(-14 -12.535)"/></g><path class="v" d="M179.381,487.071c7.042,4.427,16.658,1.8,21.478-5.869s3.02-17.473-4.022-21.9-16.657-1.8-21.478,5.869S172.339,482.644,179.381,487.071Zm12.773-20.319c3.263,2.052,4.1,6.595,1.864,10.149s-6.69,4.771-9.954,2.72-4.1-6.595-1.863-10.149S188.891,464.7,192.154,466.752Z" transform="translate(-14 -12.535)"/><g class="e"><path d="M189.309,458.152a13.114,13.114,0,0,1,7,2c6.564,4.126,8.227,13.331,3.708,20.52a15.772,15.772,0,0,1-13.1,7.552,13.117,13.117,0,0,1-7-2,13.381,13.381,0,0,1-6.008-9.068,16.058,16.058,0,0,1,2.3-11.452,15.772,15.772,0,0,1,13.1-7.552m-1.756,23.465a8.78,8.78,0,0,0,7.311-4.184c2.524-4.015,1.547-9.186-2.178-11.527a7.534,7.534,0,0,0-4.021-1.15,8.782,8.782,0,0,0-7.311,4.184,8.9,8.9,0,0,0-1.266,6.35,7.646,7.646,0,0,0,3.444,5.177,7.536,7.536,0,0,0,4.021,1.15m1.756-24.465a16.7,16.7,0,0,0-13.95,8.019c-4.82,7.669-3.02,17.473,4.022,21.9a14.066,14.066,0,0,0,7.529,2.15,16.7,16.7,0,0,0,13.949-8.019c4.821-7.669,3.02-17.473-4.022-21.9a14.062,14.062,0,0,0-7.528-2.15Zm-1.756,23.465a6.521,6.521,0,0,1-3.489-1c-3.263-2.052-4.1-6.595-1.863-10.149a7.739,7.739,0,0,1,6.464-3.716,6.519,6.519,0,0,1,3.489,1c3.263,2.052,4.1,6.595,1.864,10.149a7.742,7.742,0,0,1-6.465,3.716Z" transform="translate(-14 -12.535)"/></g><path class="w" d="M279.292,576.4c7.209-4.15,9.388-13.878,4.869-21.727s-14.027-10.848-21.235-6.7-9.388,13.878-4.868,21.727S272.084,580.549,279.292,576.4Zm-11.975-20.8c3.34-1.923,7.746-.533,9.84,3.1s1.085,8.146-2.256,10.069-7.746.533-9.84-3.1S263.977,557.524,267.317,555.6Z" transform="translate(-14 -12.535)"/><g class="e"><path d="M269.962,547.106a15.623,15.623,0,0,1,13.332,8.065,16.063,16.063,0,0,1,1.855,11.533,13.383,13.383,0,0,1-6.355,8.828,12.935,12.935,0,0,1-6.538,1.735,15.62,15.62,0,0,1-13.331-8.065c-4.238-7.359-2.219-16.493,4.5-20.361a12.934,12.934,0,0,1,6.537-1.735m1.679,23.532a7.534,7.534,0,0,0,3.759-1c3.813-2.2,4.99-7.324,2.624-11.434a8.706,8.706,0,0,0-7.446-4.47,7.538,7.538,0,0,0-3.76,1c-3.813,2.195-4.99,7.324-2.624,11.434a8.706,8.706,0,0,0,7.447,4.47m-1.679-24.532a14.025,14.025,0,0,0-7.036,1.868c-7.208,4.15-9.388,13.878-4.868,21.727a16.64,16.64,0,0,0,14.2,8.566,14.023,14.023,0,0,0,7.036-1.868c7.209-4.15,9.388-13.878,4.869-21.727a16.64,16.64,0,0,0-14.2-8.566Zm1.679,23.532a7.71,7.71,0,0,1-6.58-3.969c-2.094-3.638-1.084-8.146,2.256-10.069a6.5,6.5,0,0,1,3.261-.865,7.709,7.709,0,0,1,6.579,3.969c2.1,3.638,1.085,8.145-2.256,10.069a6.5,6.5,0,0,1-3.26.865Z" transform="translate(-14 -12.535)"/></g><path class="x" d="M163.414,527.208c4.068-7.255.961-16.728-6.939-21.157s-17.6-2.14-21.67,5.114-.962,16.728,6.939,21.157S159.346,534.462,163.414,527.208ZM142.48,515.469c1.885-3.362,6.382-4.423,10.043-2.37s5.1,6.443,3.215,9.8-6.381,4.423-10.042,2.37S140.6,518.831,142.48,515.469Z" transform="translate(-14 -12.535)"/><g class="e"><path d="M147.956,504.793a16.478,16.478,0,0,1,8.03,2.13c7.407,4.153,10.347,13.033,6.556,19.8a13.767,13.767,0,0,1-12.279,6.861,16.461,16.461,0,0,1-8.03-2.13,16.056,16.056,0,0,1-7.5-8.958,13.382,13.382,0,0,1,.941-10.837,13.763,13.763,0,0,1,12.279-6.862m1.688,22.527a7.822,7.822,0,0,0,6.966-3.927,7.644,7.644,0,0,0,.55-6.194,8.9,8.9,0,0,0-4.148-4.972,9.1,9.1,0,0,0-4.437-1.174,7.823,7.823,0,0,0-6.967,3.927c-2.152,3.838-.537,8.847,3.6,11.166a9.1,9.1,0,0,0,4.437,1.174m-1.688-23.527a14.841,14.841,0,0,0-13.151,7.372c-4.068,7.255-.962,16.728,6.939,21.157a17.421,17.421,0,0,0,8.519,2.258,14.842,14.842,0,0,0,13.151-7.372c4.068-7.255.961-16.728-6.939-21.157a17.426,17.426,0,0,0-8.519-2.258Zm1.688,22.527a8.071,8.071,0,0,1-3.948-1.046c-3.661-2.053-5.1-6.443-3.216-9.8a6.879,6.879,0,0,1,6.095-3.416,8.071,8.071,0,0,1,3.948,1.046c3.661,2.053,5.1,6.443,3.215,9.8a6.878,6.878,0,0,1-6.094,3.416Z" transform="translate(-14 -12.535)"/></g><path class="y" d="M256.112,515.464c8.256,1.013,15.842-5.453,16.945-14.443s-4.695-17.1-12.951-18.112-15.842,5.453-16.945,14.443S247.856,514.452,256.112,515.464Zm2.923-23.821c3.826.469,6.513,4.227,6,8.393s-4.027,7.163-7.852,6.694-6.513-4.227-6-8.393S255.209,491.174,259.035,491.643Z" transform="translate(-14 -12.535)"/><g class="e"><path d="M258.4,483.8a13.137,13.137,0,0,1,1.583.1c7.695.944,13.114,8.569,12.08,17-.956,7.793-7.082,13.67-14.248,13.67a13.112,13.112,0,0,1-1.583-.1c-7.695-.944-13.114-8.569-12.08-17,.956-7.793,7.081-13.67,14.248-13.67m-.428,23.974a8.388,8.388,0,0,0,8.055-7.62c.577-4.707-2.506-8.972-6.872-9.507a7.333,7.333,0,0,0-.912-.056,8.387,8.387,0,0,0-8.055,7.62,8.9,8.9,0,0,0,1.553,6.286,7.649,7.649,0,0,0,5.319,3.222,7.529,7.529,0,0,0,.912.055M258.4,482.8c-7.572,0-14.214,6.181-15.241,14.548-1.1,8.991,4.695,17.1,12.951,18.112a13.834,13.834,0,0,0,1.7.1c7.571,0,14.214-6.181,15.24-14.548,1.1-8.99-4.695-17.1-12.951-18.112a13.818,13.818,0,0,0-1.7-.105Zm-.428,23.974a6.38,6.38,0,0,1-.79-.048c-3.826-.469-6.513-4.227-6-8.393a7.4,7.4,0,0,1,7.063-6.742,6.593,6.593,0,0,1,.79.048c3.826.469,6.513,4.227,6,8.393a7.4,7.4,0,0,1-7.062,6.742Z" transform="translate(-14 -12.535)"/></g><path class="z" d="M146.066,367.8c4.368-7.079,1.66-16.672-6.049-21.428s-17.5-2.874-21.865,4.2S116.493,367.247,124.2,372,141.7,374.877,146.066,367.8Zm-20.425-12.6c2.024-3.28,6.561-4.153,10.133-1.949s4.827,6.65,2.8,9.93-6.56,4.153-10.132,1.949S123.617,358.476,125.641,355.2Z" transform="translate(-14 -12.535)"/><g class="e"><path d="M130.9,344.744a16.362,16.362,0,0,1,8.588,2.477,16.057,16.057,0,0,1,7.116,9.264,13.381,13.381,0,0,1-1.393,10.788,13.765,13.765,0,0,1-11.9,6.356,16.368,16.368,0,0,1-8.589-2.477,16.055,16.055,0,0,1-7.115-9.264A13.381,13.381,0,0,1,119,351.1a13.768,13.768,0,0,1,11.9-6.356m1.764,22.6a7.832,7.832,0,0,0,6.76-3.641,7.643,7.643,0,0,0,.808-6.165A8.9,8.9,0,0,0,136.3,352.4a9.042,9.042,0,0,0-4.748-1.366,7.833,7.833,0,0,0-6.761,3.641c-2.31,3.744-.906,8.816,3.129,11.306a9.048,9.048,0,0,0,4.749,1.366m-1.764-23.6a14.762,14.762,0,0,0-12.752,6.831c-4.367,7.079-1.659,16.672,6.049,21.428a17.369,17.369,0,0,0,9.114,2.626,14.761,14.761,0,0,0,12.751-6.831c4.368-7.079,1.66-16.672-6.049-21.428a17.363,17.363,0,0,0-9.113-2.626Zm1.764,22.6a8.044,8.044,0,0,1-4.223-1.217c-3.573-2.2-4.828-6.65-2.8-9.93a6.843,6.843,0,0,1,5.91-3.166,8.049,8.049,0,0,1,4.223,1.217c3.572,2.2,4.827,6.65,2.8,9.93a6.84,6.84,0,0,1-5.909,3.166Z" transform="translate(-14 -12.535)"/></g><path class="aa" d="M277.475,34.129c-.536-8.3-8.3-14.556-17.337-13.971s-15.931,7.786-15.395,16.087,8.3,14.555,17.338,13.97S278.012,42.429,277.475,34.129Zm-23.95,1.548c-.249-3.847,2.945-7.184,7.134-7.455s7.786,2.628,8.034,6.474-2.945,7.184-7.134,7.455S253.774,39.523,253.525,35.677Z" transform="translate(-14 -12.535)"/><g class="e"><path d="M261.306,21.12c8.033,0,14.7,5.742,15.171,13.073.5,7.737-5.987,14.477-14.461,15.024-.366.024-.738.036-1.1.036-8.033,0-14.7-5.742-15.171-13.073A13.385,13.385,0,0,1,249.572,26a16.056,16.056,0,0,1,10.63-4.843c.367-.024.738-.036,1.1-.036m-.288,22.049c.2,0,.4-.007.606-.02,4.732-.306,8.351-4.127,8.067-8.517A8.277,8.277,0,0,0,261.2,27.2q-.3,0-.6.02c-4.733.306-8.352,4.127-8.068,8.517a8.277,8.277,0,0,0,8.491,7.428m.288-23.049q-.58,0-1.168.038c-9.039.584-15.931,7.786-15.395,16.087.514,7.939,7.64,14.008,16.169,14.008q.58,0,1.169-.038c9.038-.584,15.931-7.786,15.394-16.086-.513-7.94-7.639-14.009-16.169-14.009Zm-.288,22.049a7.257,7.257,0,0,1-7.493-6.492c-.249-3.847,2.945-7.184,7.134-7.455.182-.012.362-.018.542-.018a7.256,7.256,0,0,1,7.492,6.492c.249,3.847-2.945,7.184-7.134,7.455-.181.012-.362.018-.541.018Z" transform="translate(-14 -12.535)"/></g></svg>