<svg xmlns="http://www.w3.org/2000/svg" xmlns:xlink="http://www.w3.org/1999/xlink" viewBox="0 0 572.841 573.43"><defs><style>.a{opacity:0;}.b{fill:#003c00;}.c{fill:none;stroke:#000;stroke-miterlimit:10;}.d{fill:url(#a);}.e{opacity:0.34;}.f{fill:url(#b);}.g{fill:url(#c);}.h{fill:url(#d);}.i{fill:url(#e);}.j{fill:url(#f);}.k{fill:url(#g);}.l{fill:url(#h);}.m{fill:url(#i);}.n{fill:url(#j);}.o{fill:url(#k);}.p{fill:url(#l);}.q{fill:url(#m);}.r{fill:url(#n);}.s{fill:url(#o);}.t{fill:url(#p);}.u{fill:url(#q);}.v{fill:url(#r);}.w{fill:url(#s);}.x{fill:url(#t);}.y{fill:url(#u);}.z{fill:url(#v);}.aa{fill:url(#w);}</style><radialGradient id="a" cx="323.14" cy="298.2" r="15.744" gradientTransform="translate(705.283 481.641) rotate(165.311) scale(1 0.92)" gradientUnits="userSpaceOnUse"><stop offset="0.295"/><stop offset="0.632" stop-color="#302b00"/><stop offset="0.79" stop-color="#322d00"/><stop offset="0.929" stop-color="#373500"/><stop offset="1"/></radialGradient><radialGradient id="b" cx="397.14" cy="285.2" r="15.744" gradientTransform="matrix(0.851, 0.525, -0.483, 0.783, 196.932, -146.636)" xlink:href="#a"/><radialGradient id="c" cx="448.337" cy="317.826" r="15.744" gradientTransform="translate(859.786 -24.127) rotate(106.99) scale(1 0.92)" xlink:href="#a"/><radialGradient id="d" cx="502.14" cy="296.2" r="15.744" gradientTransform="translate(774.644 -205.94) rotate(90) scale(1 0.92)" xlink:href="#a"/><radialGradient id="e" cx="395.14" cy="389.2" r="15.744" gradientTransform="translate(569.378 -114.771) rotate(66.89) scale(1 0.92)" xlink:href="#a"/><radialGradient id="f" cx="331.14" cy="402.2" r="15.744" gradientTransform="matrix(-0.256, 0.967, -0.889, -0.235, 773.578, 176.766)" xlink:href="#a"/><radialGradient id="g" cx="319.14" cy="494.2" r="15.744" gradientTransform="translate(420.295 -52.003) rotate(45.558) scale(1 0.92)" xlink:href="#a"/><radialGradient id="h" cx="387.443" cy="502.332" r="15.744" gradientTransform="matrix(-0.192, 0.981, -0.903, -0.176, 915.016, 209.587)" xlink:href="#a"/><radialGradient id="i" cx="460.771" cy="547.512" r="15.744" gradientTransform="translate(359.904 -157.792) rotate(34.432) scale(1 0.92)" xlink:href="#a"/><radialGradient id="j" cx="433.14" cy="441.2" r="15.744" gradientTransform="matrix(-0.619, 0.786, -0.723, -0.569, 1020.01, 352.028)" xlink:href="#a"/><radialGradient id="k" cx="515.859" cy="401.746" r="15.744" gradientTransform="translate(699.069 -210.859) rotate(71.321) scale(1 0.92)" xlink:href="#a"/><radialGradient id="l" cx="523.14" cy="451.2" r="15.744" gradientTransform="translate(1106.703 126.483) rotate(112.475) scale(1 0.92)" xlink:href="#a"/><radialGradient id="m" cx="568.581" cy="323.675" r="15.744" gradientTransform="translate(399.701 -303.319) rotate(46.866) scale(1 0.92)" xlink:href="#a"/><radialGradient id="n" cx="529.14" cy="192.2" r="15.744" gradientTransform="translate(916.63 -209.181) rotate(115.513) scale(1 0.92)" xlink:href="#a"/><radialGradient id="o" cx="494.772" cy="187.412" r="15.744" gradientTransform="translate(287.476 -344.63) rotate(48.506) scale(1 0.92)" xlink:href="#a"/><radialGradient id="p" cx="326.14" cy="200.2" r="15.744" gradientTransform="translate(695.968 140.884) rotate(141.433) scale(1 0.92)" xlink:href="#a"/><radialGradient id="q" cx="395.117" cy="200.726" r="15.744" gradientTransform="matrix(0.521, 0.853, -0.785, 0.48, 345.685, -235.242)" xlink:href="#a"/><radialGradient id="r" cx="406.977" cy="114.636" r="15.744" gradientTransform="matrix(-0.532, 0.847, -0.779, -0.49, 713.025, -169.223)" xlink:href="#a"/><radialGradient id="s" cx="348.59" cy="36.736" r="15.744" gradientTransform="translate(179.491 -288.757) rotate(60.068) scale(1 0.92)" xlink:href="#a"/><radialGradient id="t" cx="446.14" cy="73.2" r="15.744" gradientTransform="matrix(0.872, 0.489, -0.45, 0.802, 89.939, -203.742)" xlink:href="#a"/><radialGradient id="u" cx="529.035" cy="133.32" r="15.744" gradientTransform="matrix(0.851, 0.525, -0.483, 0.783, -48.688, -288.976)" xlink:href="#a"/><radialGradient id="v" cx="476.05" cy="314.064" r="15.744" gradientTransform="matrix(0.851, 0.525, -0.483, 0.783, 209.719, -262.671)" xlink:href="#a"/><radialGradient id="w" cx="126.617" cy="378.085" r="15.744" gradientTransform="translate(185.347 225.255) rotate(-3.699) scale(1 0.92)" xlink:href="#a"/></defs><title>olivesright</title><g class="a"><path class="b" d="M300,14.965a285.076,285.076,0,0,1,110.935,547.6A285.075,285.075,0,0,1,189.065,37.361,283.22,283.22,0,0,1,300,14.965m0-1c-157.953,0-286,128.047-286,286s128.047,286,286,286,286-128.047,286-286-128.047-286-286-286Z" transform="translate(-14 -12.535)"/><line class="c" x1="286.477" x2="286.477" y2="570.093"/><line class="c" x1="571.047" y1="286.953" x2="0.953" y2="286.953"/></g><path class="d" d="M339,294.042c-2.109-8.046-10.921-12.707-19.683-10.41s-14.154,10.681-12.045,18.726,10.921,12.707,19.683,10.41S341.113,302.087,339,294.042Zm-23.216,6.085c-.977-3.728,1.522-7.614,5.582-8.678s8.144,1.095,9.121,4.824-1.521,7.614-5.581,8.678S316.766,303.856,315.788,300.127Z" transform="translate(-14 -12.535)"/><g class="e"><path d="M323.831,284.046c6.782,0,12.624,4.215,14.206,10.249a13.387,13.387,0,0,1-1.82,10.725,16.063,16.063,0,0,1-9.512,6.781,16.8,16.8,0,0,1-4.256.553c-6.782,0-12.624-4.215-14.206-10.249-1.966-7.5,3.118-15.352,11.332-17.506a16.8,16.8,0,0,1,4.256-.553m-1.011,22.176a9.238,9.238,0,0,0,2.343-.3,8.9,8.9,0,0,0,5.268-3.766,7.653,7.653,0,0,0,1.028-6.133,8.118,8.118,0,0,0-8-5.841,9.232,9.232,0,0,0-2.343.3,8.9,8.9,0,0,0-5.268,3.766,7.649,7.649,0,0,0-1.028,6.133,8.12,8.12,0,0,0,8,5.841m1.011-23.176a17.768,17.768,0,0,0-4.51.586c-8.761,2.3-14.154,10.681-12.045,18.726,1.745,6.656,8.077,11,15.173,11a17.768,17.768,0,0,0,4.51-.586c8.761-2.3,14.154-10.681,12.045-18.726-1.745-6.656-8.077-11-15.173-11Zm-1.011,22.176a7.1,7.1,0,0,1-7.032-5.095c-.977-3.728,1.522-7.614,5.582-8.678a8.233,8.233,0,0,1,2.09-.271,7.1,7.1,0,0,1,7.031,5.1c.978,3.728-1.521,7.614-5.581,8.678a8.238,8.238,0,0,1-2.09.271Z" transform="translate(-14 -12.535)"/></g><path class="f" d="M383.183,276.588c-4.368,7.079-1.659,16.673,6.049,21.429s17.5,2.873,21.865-4.2,1.659-16.673-6.049-21.429S387.55,269.51,383.183,276.588Zm20.425,12.6c-2.024,3.28-6.561,4.153-10.133,1.949s-4.827-6.65-2.8-9.931,6.56-4.153,10.133-1.949S405.632,285.91,403.608,289.191Z" transform="translate(-14 -12.535)"/><g class="e"><path d="M395.934,270.757a16.375,16.375,0,0,1,8.589,2.477c7.226,4.459,9.794,13.454,5.723,20.052a13.767,13.767,0,0,1-11.9,6.357,16.371,16.371,0,0,1-8.588-2.477,16.064,16.064,0,0,1-7.116-9.264,13.381,13.381,0,0,1,1.393-10.788,13.765,13.765,0,0,1,11.9-6.357m1.764,22.6a7.835,7.835,0,0,0,6.761-3.64c2.31-3.745.906-8.817-3.129-11.307a9.057,9.057,0,0,0-4.749-1.365,7.833,7.833,0,0,0-6.76,3.64,7.646,7.646,0,0,0-.808,6.166,8.9,8.9,0,0,0,3.937,5.141,9.051,9.051,0,0,0,4.748,1.365m-1.764-23.6a14.759,14.759,0,0,0-12.751,6.832c-4.368,7.078-1.659,16.672,6.049,21.428a17.372,17.372,0,0,0,9.113,2.626,14.761,14.761,0,0,0,12.752-6.831c4.367-7.079,1.659-16.673-6.049-21.429a17.375,17.375,0,0,0-9.114-2.626Zm1.764,22.6a8.057,8.057,0,0,1-4.223-1.216c-3.572-2.2-4.827-6.65-2.8-9.931a6.841,6.841,0,0,1,5.909-3.165,8.057,8.057,0,0,1,4.224,1.216c3.572,2.2,4.827,6.65,2.8,9.931a6.842,6.842,0,0,1-5.91,3.165Z" transform="translate(-14 -12.535)"/></g><path class="g" d="M453.932,303.516c-7.954-2.431-16.548,2.621-19.195,11.283s1.656,17.655,9.611,20.085,16.548-2.621,19.195-11.283S461.887,305.946,453.932,303.516Zm-7.013,22.952c-3.686-1.126-5.68-5.293-4.454-9.307s5.209-6.356,8.9-5.229,5.68,5.293,4.453,9.307S450.605,327.6,446.919,326.468Z" transform="translate(-14 -12.535)"/><g class="e"><path d="M449.855,303.906a12.934,12.934,0,0,1,3.785.566c7.414,2.266,11.428,10.716,8.946,18.837-2.012,6.585-7.835,11.185-14.161,11.185a12.929,12.929,0,0,1-3.785-.566,13.383,13.383,0,0,1-8.171-7.181,16.062,16.062,0,0,1-.776-11.656c2.013-6.585,7.836-11.185,14.162-11.185m-1.047,23.845a8.565,8.565,0,0,0,7.963-6.219c1.385-4.536-.91-9.271-5.118-10.557a7.481,7.481,0,0,0-2.182-.326,8.564,8.564,0,0,0-7.962,6.219c-1.386,4.536.91,9.271,5.118,10.557a7.47,7.47,0,0,0,2.181.326m1.047-24.845c-6.626,0-12.921,4.7-15.118,11.893-2.647,8.662,1.656,17.655,9.611,20.085a13.919,13.919,0,0,0,4.077.61c6.626,0,12.921-4.7,15.118-11.893,2.646-8.662-1.656-17.655-9.611-20.085a13.919,13.919,0,0,0-4.077-.61Zm-1.047,23.845a6.43,6.43,0,0,1-1.889-.283c-3.686-1.126-5.68-5.293-4.454-9.307a7.535,7.535,0,0,1,7.006-5.512,6.436,6.436,0,0,1,1.89.283c3.686,1.126,5.68,5.293,4.453,9.307a7.534,7.534,0,0,1-7.006,5.512Z" transform="translate(-14 -12.535)"/></g><path class="h" d="M502.14,279.8c-8.318,0-15.06,7.343-15.06,16.4s6.742,16.4,15.06,16.4,15.06-7.343,15.06-16.4S510.457,279.8,502.14,279.8Zm0,24c-3.855,0-6.979-3.4-6.979-7.6s3.124-7.6,6.979-7.6,6.979,3.4,6.979,7.6S505.994,303.8,502.14,303.8Z" transform="translate(-14 -12.535)"/><g class="e"><path d="M502.14,280.8c7.753,0,14.06,6.908,14.06,15.4s-6.307,15.4-14.06,15.4-14.06-6.908-14.06-15.4,6.307-15.4,14.06-15.4m0,24c4.4,0,7.979-3.858,7.979-8.6s-3.579-8.6-7.979-8.6-7.979,3.858-7.979,8.6,3.579,8.6,7.979,8.6m0-25c-8.318,0-15.06,7.343-15.06,16.4s6.742,16.4,15.06,16.4,15.06-7.343,15.06-16.4-6.743-16.4-15.06-16.4Zm0,24c-3.855,0-6.979-3.4-6.979-7.6s3.124-7.6,6.979-7.6,6.979,3.4,6.979,7.6-3.125,7.6-6.979,7.6Z" transform="translate(-14 -12.535)"/></g><path class="i" d="M388.7,374.116c-7.65,3.265-10.97,12.664-7.415,21s12.639,12.438,20.289,9.173,10.97-12.664,7.414-21S396.353,370.851,388.7,374.116Zm9.42,22.074c-3.545,1.513-7.755-.39-9.4-4.251s-.109-8.216,3.436-9.729,7.754.39,9.4,4.251S401.668,394.677,398.123,396.19Z" transform="translate(-14 -12.535)"/><g class="e"><path d="M394.2,374a15.352,15.352,0,0,1,13.876,9.686c3.333,7.811.243,16.64-6.888,19.683a12.914,12.914,0,0,1-5.1,1.041,15.352,15.352,0,0,1-13.875-9.686,16.057,16.057,0,0,1-.471-11.672,13.382,13.382,0,0,1,7.358-8.011A12.921,12.921,0,0,1,394.2,374m1.381,23.715a7.441,7.441,0,0,0,2.938-.6c4.047-1.727,5.825-6.68,3.964-11.042a8.574,8.574,0,0,0-7.776-5.378,7.446,7.446,0,0,0-2.939.6c-4.046,1.727-5.824,6.68-3.963,11.042a8.574,8.574,0,0,0,7.776,5.378M394.2,373a13.943,13.943,0,0,0-5.493,1.121c-7.65,3.265-10.97,12.664-7.415,21a16.44,16.44,0,0,0,14.8,10.294,13.944,13.944,0,0,0,5.494-1.121c7.65-3.265,10.97-12.664,7.414-21A16.438,16.438,0,0,0,394.2,373Zm1.381,23.715a7.617,7.617,0,0,1-6.856-4.771c-1.648-3.86-.109-8.216,3.436-9.729a6.455,6.455,0,0,1,2.546-.52,7.619,7.619,0,0,1,6.856,4.771c1.647,3.86.109,8.216-3.436,9.729a6.458,6.458,0,0,1-2.546.52Z" transform="translate(-14 -12.535)"/></g><path class="j" d="M335.336,386.346c-8.04-2.128-16.437,3.244-18.755,12s2.322,17.58,10.362,19.708,16.438-3.244,18.756-12S343.377,388.474,335.336,386.346Zm-6.141,23.2c-3.726-.986-5.876-5.075-4.8-9.133s4.965-6.547,8.692-5.561,5.876,5.075,4.8,9.133S332.921,410.533,329.2,409.547Z" transform="translate(-14 -12.535)"/><g class="e"><path d="M331.767,386.881a12.941,12.941,0,0,1,3.313.432,13.383,13.383,0,0,1,8.437,6.867,16.058,16.058,0,0,1,1.215,11.618c-1.827,6.9-7.674,11.721-14.219,11.721a12.949,12.949,0,0,1-3.314-.432c-7.494-1.983-11.824-10.276-9.651-18.485,1.827-6.9,7.674-11.721,14.219-11.721m-.918,23.882a8.48,8.48,0,0,0,8-6.521,8.9,8.9,0,0,0-.682-6.44,7.654,7.654,0,0,0-4.831-3.916,7.472,7.472,0,0,0-1.91-.249,8.482,8.482,0,0,0-8,6.521c-1.213,4.584,1.26,9.23,5.513,10.356a7.478,7.478,0,0,0,1.91.249m.918-24.882c-6.822,0-13.211,5-15.186,12.465-2.318,8.756,2.322,17.58,10.362,19.708a13.917,13.917,0,0,0,3.57.465c6.822,0,13.211-5,15.186-12.465,2.317-8.756-2.322-17.58-10.363-19.708a13.91,13.91,0,0,0-3.569-.465Zm-.918,23.882a6.45,6.45,0,0,1-1.654-.216c-3.726-.986-5.876-5.075-4.8-9.133a7.5,7.5,0,0,1,7.037-5.777,6.452,6.452,0,0,1,1.655.216c3.726.986,5.876,5.075,4.8,9.133a7.507,7.507,0,0,1-7.038,5.777Z" transform="translate(-14 -12.535)"/></g><path class="k" d="M307.657,482.491c-5.939,5.824-5.611,15.787.731,22.254s16.3,6.988,22.235,1.164,5.611-15.787-.731-22.254S313.6,476.667,307.657,482.491Zm16.8,17.135c-2.752,2.7-7.365,2.457-10.3-.539s-3.09-7.614-.339-10.313,7.366-2.457,10.305.539S327.213,496.927,324.461,499.626Z" transform="translate(-14 -12.535)"/><g class="e"><path d="M317.8,479.443a16.421,16.421,0,0,1,16.065,15.613,13.183,13.183,0,0,1-13.381,13.9,16.421,16.421,0,0,1-16.065-15.613,13.183,13.183,0,0,1,13.381-13.9m1.964,23.059a7.574,7.574,0,0,0,7.664-7.953,9.072,9.072,0,0,0-8.908-8.651,7.65,7.65,0,0,0-5.4,2.162c-3.141,3.081-3,8.341.325,11.727a8.936,8.936,0,0,0,6.319,2.715M317.8,478.443a14.337,14.337,0,0,0-10.141,4.048c-5.939,5.824-5.611,15.787.731,22.254a17.032,17.032,0,0,0,12.094,5.212,14.339,14.339,0,0,0,10.141-4.048c5.938-5.824,5.611-15.787-.731-22.254a17.036,17.036,0,0,0-12.094-5.212Zm1.964,23.059a7.892,7.892,0,0,1-5.605-2.415c-2.939-3-3.09-7.614-.339-10.313a6.648,6.648,0,0,1,4.7-1.876,7.894,7.894,0,0,1,5.605,2.415c2.939,3,3.09,7.614.338,10.313a6.644,6.644,0,0,1-4.7,1.876Z" transform="translate(-14 -12.535)"/></g><path class="l" d="M390.285,485.1c-8.163-1.595-16.188,4.318-17.926,13.208s3.472,17.388,11.635,18.984,16.189-4.318,17.926-13.208S398.448,486.7,390.285,485.1Zm-4.6,23.555c-3.783-.739-6.2-4.678-5.392-8.8s4.525-6.859,8.308-6.12,6.2,4.678,5.391,8.8S389.465,509.4,385.682,508.659Z" transform="translate(-14 -12.535)"/><g class="e"><path d="M387.608,485.845a13.009,13.009,0,0,1,2.486.241c7.608,1.487,12.474,9.477,10.845,17.811-1.433,7.335-7.434,12.658-14.267,12.658a13.009,13.009,0,0,1-2.486-.241c-7.609-1.487-12.474-9.477-10.845-17.811,1.433-7.335,7.433-12.658,14.267-12.658m-.685,23.934a8.441,8.441,0,0,0,8.048-7.049,8.9,8.9,0,0,0-1.1-6.38,7.651,7.651,0,0,0-5.078-3.59,7.425,7.425,0,0,0-1.432-.139,8.442,8.442,0,0,0-8.048,7.049,8.9,8.9,0,0,0,1.1,6.38,7.651,7.651,0,0,0,5.077,3.59,7.428,7.428,0,0,0,1.433.139m.685-24.934c-7.174,0-13.7,5.554-15.249,13.467-1.737,8.889,3.472,17.388,11.635,18.984a13.976,13.976,0,0,0,2.678.259c7.173,0,13.7-5.554,15.248-13.467,1.738-8.889-3.472-17.388-11.635-18.984a13.966,13.966,0,0,0-2.677-.259Zm-.685,23.934a6.488,6.488,0,0,1-1.241-.12c-3.783-.739-6.2-4.678-5.392-8.8a7.454,7.454,0,0,1,7.067-6.24,6.488,6.488,0,0,1,1.241.12c3.782.739,6.2,4.678,5.391,8.8a7.452,7.452,0,0,1-7.066,6.24Z" transform="translate(-14 -12.535)"/></g><path class="m" d="M441.613,508.927c-4.7,6.86-2.459,16.573,5.012,21.695s17.339,3.711,22.042-3.149,2.459-16.573-5.012-21.695S446.316,502.067,441.613,508.927Zm19.8,13.57c-2.179,3.179-6.752,3.833-10.214,1.459s-4.5-6.874-2.323-10.053,6.753-3.833,10.215-1.459S463.588,519.318,461.408,522.5Z" transform="translate(-14 -12.535)"/><g class="e"><path d="M453.884,503.7a16.251,16.251,0,0,1,9.206,2.905,16.06,16.06,0,0,1,6.662,9.6,13.384,13.384,0,0,1-1.91,10.708A13.588,13.588,0,0,1,456.4,532.7a16.248,16.248,0,0,1-9.206-2.9c-7-4.8-9.136-13.91-4.752-20.305a13.587,13.587,0,0,1,11.446-5.794m1.838,22.686a7.843,7.843,0,0,0,6.511-3.321,7.653,7.653,0,0,0,1.1-6.12,9.116,9.116,0,0,0-8.779-6.927,7.841,7.841,0,0,0-6.511,3.321c-2.488,3.629-1.33,8.763,2.581,11.444a8.984,8.984,0,0,0,5.094,1.6M453.884,502.7a14.673,14.673,0,0,0-12.271,6.229c-4.7,6.86-2.459,16.573,5.012,21.695a17.306,17.306,0,0,0,9.771,3.08,14.675,14.675,0,0,0,12.271-6.229c4.7-6.86,2.459-16.573-5.012-21.695a17.306,17.306,0,0,0-9.771-3.08Zm1.838,22.686a8.017,8.017,0,0,1-4.528-1.428c-3.462-2.373-4.5-6.874-2.323-10.053a6.8,6.8,0,0,1,5.687-2.887,8.019,8.019,0,0,1,4.528,1.428c3.462,2.373,4.5,6.874,2.322,10.053a6.8,6.8,0,0,1-5.686,2.887Z" transform="translate(-14 -12.535)"/></g><path class="n" d="M443.286,428.315c-6.534-5.145-16.374-3.548-21.978,3.568s-4.849,17.056,1.686,22.2,16.374,3.548,21.978-3.568S449.821,433.461,443.286,428.315Zm-14.848,18.856c-3.028-2.385-3.378-6.991-.781-10.289s7.157-4.038,10.185-1.653,3.378,6.991.781,10.289S431.466,449.556,428.438,447.171Z" transform="translate(-14 -12.535)"/><g class="e"><path d="M434.441,426.3a13.153,13.153,0,0,1,8.226,2.8,13.38,13.38,0,0,1,5.017,9.652A16.359,16.359,0,0,1,431.838,456.1a13.151,13.151,0,0,1-8.226-2.8c-6.091-4.8-6.772-14.126-1.518-20.8a15.952,15.952,0,0,1,12.347-6.2m-1.9,23.271a9.043,9.043,0,0,0,8.8-9.614,7.648,7.648,0,0,0-2.879-5.512,7.54,7.54,0,0,0-4.717-1.612,8.867,8.867,0,0,0-6.872,3.433c-2.934,3.725-2.508,8.971.948,11.693a7.551,7.551,0,0,0,4.718,1.612m1.9-24.271a16.869,16.869,0,0,0-13.133,6.585c-5.6,7.116-4.849,17.056,1.686,22.2a14.187,14.187,0,0,0,8.844,3.017,16.869,16.869,0,0,0,13.134-6.585c5.6-7.116,4.849-17.056-1.686-22.2a14.189,14.189,0,0,0-8.845-3.017Zm-1.9,23.271a6.573,6.573,0,0,1-4.1-1.4c-3.028-2.385-3.378-6.991-.781-10.289a7.819,7.819,0,0,1,6.086-3.051,6.573,6.573,0,0,1,4.1,1.4c3.028,2.385,3.378,6.991.781,10.289a7.819,7.819,0,0,1-6.086,3.051Z" transform="translate(-14 -12.535)"/></g><path class="o" d="M508.888,380.664c-7.88,2.664-11.916,11.779-9.015,20.359s11.64,13.377,19.519,10.713,11.916-11.779,9.015-20.359S516.767,378,508.888,380.664Zm7.686,22.736c-3.652,1.234-7.7-.989-9.046-4.965s.526-8.2,4.178-9.435,7.7.989,9.045,4.965S520.225,402.165,516.574,403.4Z" transform="translate(-14 -12.535)"/><g class="e"><path d="M513.358,380.928c6.257,0,11.924,4.328,14.1,10.769,2.72,8.044-1.043,16.609-8.387,19.092a12.941,12.941,0,0,1-4.15.683c-6.257,0-11.924-4.328-14.1-10.769-2.719-8.044,1.043-16.609,8.388-19.092a12.941,12.941,0,0,1,4.15-.683m1.144,23.813a7.46,7.46,0,0,0,2.392-.394,7.646,7.646,0,0,0,4.556-4.232,8.9,8.9,0,0,0,.249-6.47,8.519,8.519,0,0,0-7.921-5.986,7.455,7.455,0,0,0-2.392.394,7.65,7.65,0,0,0-4.557,4.232,8.9,8.9,0,0,0-.248,6.47,8.52,8.52,0,0,0,7.921,5.986m-1.144-24.813a13.912,13.912,0,0,0-4.47.736c-7.88,2.664-11.916,11.779-9.015,20.359,2.358,6.974,8.573,11.449,15.049,11.449a13.912,13.912,0,0,0,4.47-.736c7.88-2.664,11.916-11.779,9.015-20.359-2.358-6.974-8.574-11.449-15.049-11.449Zm1.144,23.813a7.558,7.558,0,0,1-6.974-5.306c-1.344-3.976.526-8.2,4.178-9.435a6.454,6.454,0,0,1,2.072-.341,7.556,7.556,0,0,1,6.973,5.306c1.345,3.976-.526,8.2-4.177,9.435a6.454,6.454,0,0,1-2.072.341Z" transform="translate(-14 -12.535)"/></g><path class="p" d="M529.409,436.046c-7.685-3.18-16.723,1.027-20.185,9.4s-.039,17.732,7.646,20.911,16.724-1.027,20.186-9.4S537.1,439.225,529.409,436.046Zm-9.174,22.177c-3.562-1.474-5.149-5.812-3.544-9.691s5.793-5.828,9.354-4.355,5.148,5.812,3.544,9.691S523.8,459.7,520.235,458.223Z" transform="translate(-14 -12.535)"/><g class="e"><path d="M524.061,435.985a12.92,12.92,0,0,1,4.966.985,13.38,13.38,0,0,1,7.447,7.929,16.056,16.056,0,0,1-.342,11.676c-2.435,5.886-8.027,9.84-13.914,9.84a12.918,12.918,0,0,1-4.965-.985c-7.164-2.963-10.352-11.758-7.105-19.605,2.435-5.886,8.026-9.84,13.913-9.84m-1.348,23.73a8.661,8.661,0,0,0,7.8-5.465c1.813-4.382-.02-9.315-4.086-11a7.452,7.452,0,0,0-2.86-.567,8.661,8.661,0,0,0-7.8,5.464c-1.813,4.382.02,9.315,4.085,11a7.461,7.461,0,0,0,2.861.568m1.348-24.73a16.418,16.418,0,0,0-14.837,10.458c-3.463,8.369-.039,17.732,7.646,20.911a13.943,13.943,0,0,0,5.348,1.061,16.419,16.419,0,0,0,14.838-10.458c3.463-8.369.039-17.732-7.647-20.911a13.939,13.939,0,0,0-5.348-1.061Zm-1.348,23.73a6.477,6.477,0,0,1-2.479-.492c-3.561-1.474-5.148-5.812-3.543-9.691a7.609,7.609,0,0,1,6.876-4.846,6.452,6.452,0,0,1,2.478.491c3.562,1.474,5.148,5.812,3.544,9.691a7.61,7.61,0,0,1-6.876,4.847Z" transform="translate(-14 -12.535)"/></g><path class="q" d="M559.927,303.232c-6.07,5.687-5.97,15.655.223,22.265s16.133,7.358,22.2,1.671,5.97-15.655-.223-22.265S566,297.545,559.927,303.232Zm16.409,17.514c-2.813,2.635-7.419,2.289-10.289-.774s-2.916-7.683-.1-10.318,7.419-2.289,10.289.774S579.149,318.111,576.336,320.746Z" transform="translate(-14 -12.535)"/><g class="e"><path d="M569.8,300.412a16.41,16.41,0,0,1,16.039,15.98,13.176,13.176,0,0,1-13.361,13.6,16.037,16.037,0,0,1-11.6-5.175c-5.805-6.2-5.926-15.551-.268-20.851a13.359,13.359,0,0,1,9.19-3.55m1.959,23.1a7.567,7.567,0,0,0,7.655-7.778,9.066,9.066,0,0,0-8.9-8.854,7.568,7.568,0,0,0-7.655,7.778,9.067,9.067,0,0,0,8.9,8.854m-1.959-24.1a14.307,14.307,0,0,0-9.874,3.82c-6.07,5.687-5.97,15.655.223,22.265a17,17,0,0,0,12.329,5.491,14.307,14.307,0,0,0,9.874-3.82c6.069-5.687,5.97-15.655-.223-22.265a17,17,0,0,0-12.329-5.491Zm1.959,23.1a7.876,7.876,0,0,1-5.713-2.544c-2.87-3.063-2.916-7.683-.1-10.318a6.629,6.629,0,0,1,4.575-1.77,7.873,7.873,0,0,1,5.714,2.544c2.87,3.063,2.916,7.683.1,10.318a6.631,6.631,0,0,1-4.576,1.77Z" transform="translate(-14 -12.535)"/></g><path class="r" d="M536.2,177.4c-7.507-3.582-16.755.14-20.656,8.314s-.978,17.705,6.528,21.288,16.754-.14,20.655-8.314S543.71,180.982,536.2,177.4Zm-10.338,21.66c-3.478-1.66-4.833-6.077-3.025-9.865s6.094-5.513,9.572-3.853,4.833,6.077,3.025,9.865S529.345,200.719,525.866,199.059Z" transform="translate(-14 -12.535)"/><g class="e"><path d="M530.162,177.036a12.922,12.922,0,0,1,5.611,1.266c7,3.339,9.713,12.29,6.056,19.954a15.521,15.521,0,0,1-13.711,9.108,12.919,12.919,0,0,1-5.611-1.266c-7-3.339-9.714-12.29-6.056-19.954a15.519,15.519,0,0,1,13.711-9.108m-1.5,23.655a8.662,8.662,0,0,0,7.675-5.054c2.042-4.28.474-9.3-3.5-11.2a7.441,7.441,0,0,0-3.23-.73,8.662,8.662,0,0,0-7.675,5.054,8.9,8.9,0,0,0-.524,6.455,7.65,7.65,0,0,0,4.021,4.743,7.438,7.438,0,0,0,3.23.73m1.5-24.655a16.51,16.51,0,0,0-14.614,9.677c-3.9,8.175-.978,17.705,6.528,21.288a13.974,13.974,0,0,0,6.042,1.363,16.508,16.508,0,0,0,14.613-9.677c3.9-8.175.979-17.705-6.527-21.288a13.974,13.974,0,0,0-6.042-1.363Zm-1.5,23.655a6.475,6.475,0,0,1-2.8-.632c-3.478-1.66-4.833-6.077-3.025-9.865a7.652,7.652,0,0,1,6.773-4.485,6.467,6.467,0,0,1,2.8.632c3.479,1.66,4.833,6.077,3.025,9.865a7.65,7.65,0,0,1-6.772,4.485Z" transform="translate(-14 -12.535)"/></g><path class="s" d="M475.274,127.916c-6.23,5.511-6.415,15.478-.414,22.262s15.916,7.817,22.146,2.306,6.415-15.478.414-22.262S481.5,122.405,475.274,127.916Zm15.9,17.977c-2.887,2.553-7.482,2.075-10.263-1.069s-2.695-7.763.193-10.317,7.481-2.075,10.262,1.069S494.062,143.339,491.175,145.893Z" transform="translate(-14 -12.535)"/><g class="e"><path d="M484.809,125.374A16.394,16.394,0,0,1,500.8,141.812a13.383,13.383,0,0,1-4.457,9.923,13.171,13.171,0,0,1-8.872,3.291,15.934,15.934,0,0,1-11.862-5.511c-5.627-6.36-5.479-15.713.328-20.85a13.171,13.171,0,0,1,8.872-3.291m1.948,23.16a7.563,7.563,0,0,0,7.64-7.56,9.06,9.06,0,0,0-8.874-9.108,7.65,7.65,0,0,0-5.081,1.892c-3.3,2.915-3.42,8.177-.279,11.729a8.854,8.854,0,0,0,6.594,3.047m-1.948-24.16a14.263,14.263,0,0,0-9.535,3.542c-6.23,5.511-6.415,15.478-.415,22.262a16.957,16.957,0,0,0,12.612,5.848,14.263,14.263,0,0,0,9.535-3.542c6.23-5.511,6.415-15.478.414-22.262a16.954,16.954,0,0,0-12.611-5.848Zm1.948,23.16a7.857,7.857,0,0,1-5.845-2.71c-2.781-3.144-2.695-7.763.193-10.317a6.609,6.609,0,0,1,4.418-1.641,7.855,7.855,0,0,1,5.844,2.71c2.781,3.144,2.695,7.763-.192,10.317a6.609,6.609,0,0,1-4.418,1.641Z" transform="translate(-14 -12.535)"/></g><path class="t" d="M338.963,189.976c-5.186-6.5-15.13-7.2-22.212-1.551s-8.619,15.5-3.434,22,15.13,7.2,22.212,1.551S344.148,196.479,338.963,189.976ZM320.2,204.938c-2.4-3.014-1.691-7.578,1.591-10.195s7.89-2.295,10.293.719,1.691,7.578-1.591,10.2S322.6,207.952,320.2,204.938Z" transform="translate(-14 -12.535)"/><g class="e"><path d="M327.451,185.605a13.577,13.577,0,0,1,10.73,4.994,13.382,13.382,0,0,1,2.677,10.543,16.058,16.058,0,0,1-5.953,10.051,16.262,16.262,0,0,1-10.076,3.6A13.576,13.576,0,0,1,314.1,209.8c-4.833-6.062-3.364-15.3,3.275-20.594a16.267,16.267,0,0,1,10.077-3.6m-1.919,22.822a9.007,9.007,0,0,0,5.582-1.988,8.9,8.9,0,0,0,3.292-5.577,7.643,7.643,0,0,0-1.542-6.023,7.747,7.747,0,0,0-6.117-2.866,9.009,9.009,0,0,0-5.582,1.988,8.907,8.907,0,0,0-3.292,5.577,7.647,7.647,0,0,0,1.543,6.023,7.746,7.746,0,0,0,6.116,2.866m1.919-23.822a17.207,17.207,0,0,0-10.7,3.82c-7.082,5.646-8.619,15.5-3.434,22a14.543,14.543,0,0,0,11.512,5.371,17.209,17.209,0,0,0,10.7-3.82c7.082-5.646,8.619-15.5,3.434-22a14.543,14.543,0,0,0-11.512-5.371Zm-1.919,22.822a6.738,6.738,0,0,1-5.334-2.489c-2.4-3.014-1.691-7.578,1.591-10.195a7.977,7.977,0,0,1,4.958-1.77,6.739,6.739,0,0,1,5.335,2.489c2.4,3.014,1.691,7.578-1.591,10.2a7.98,7.98,0,0,1-4.959,1.77Z" transform="translate(-14 -12.535)"/></g><path class="u" d="M385.588,184.206c-7.1,4.337-9.022,14.118-4.3,21.847s14.305,10.478,21.4,6.141,9.022-14.118,4.3-21.847S392.685,179.869,385.588,184.206ZM398.1,204.685c-3.289,2.01-7.73.736-9.918-2.846s-1.3-8.114,1.992-10.124,7.729-.736,9.918,2.846S401.392,202.675,398.1,204.685Z" transform="translate(-14 -12.535)"/><g class="e"><path d="M392.957,183.15a15.723,15.723,0,0,1,13.18,7.718,16.058,16.058,0,0,1,2.155,11.481,13.379,13.379,0,0,1-6.122,8.992,13.117,13.117,0,0,1-6.847,1.909,15.722,15.722,0,0,1-13.18-7.719c-4.428-7.245-2.649-16.429,3.967-20.472a13.115,13.115,0,0,1,6.847-1.909m1.731,23.488a7.545,7.545,0,0,0,3.936-1.1,7.645,7.645,0,0,0,3.51-5.133,8.9,8.9,0,0,0-1.186-6.366,8.757,8.757,0,0,0-7.356-4.277,7.54,7.54,0,0,0-3.936,1.1c-3.755,2.294-4.8,7.452-2.325,11.5a8.759,8.759,0,0,0,7.357,4.277m-1.731-24.488a14.049,14.049,0,0,0-7.369,2.056c-7.1,4.337-9.022,14.118-4.3,21.847a16.682,16.682,0,0,0,14.034,8.2,14.045,14.045,0,0,0,7.368-2.056c7.1-4.337,9.022-14.118,4.3-21.847a16.682,16.682,0,0,0-14.034-8.2Zm1.731,23.488a7.728,7.728,0,0,1-6.5-3.8c-2.189-3.581-1.3-8.114,1.992-10.124a6.511,6.511,0,0,1,3.415-.953,7.729,7.729,0,0,1,6.5,3.8c2.189,3.581,1.3,8.114-1.992,10.124a6.511,6.511,0,0,1-3.415.953Z" transform="translate(-14 -12.535)"/></g><path class="v" d="M415.868,105.316c-7.042-4.427-16.658-1.8-21.478,5.869s-3.02,17.473,4.022,21.9,16.658,1.8,21.478-5.869S422.91,109.742,415.868,105.316ZM403.1,125.634c-3.263-2.051-4.1-6.595-1.864-10.148s6.69-4.772,9.954-2.72,4.1,6.595,1.863,10.148S406.358,127.686,403.1,125.634Z" transform="translate(-14 -12.535)"/><g class="e"><path d="M408.339,104.165a13.123,13.123,0,0,1,7,2,13.383,13.383,0,0,1,6.008,9.068,16.059,16.059,0,0,1-2.3,11.453,15.77,15.77,0,0,1-13.1,7.552,13.123,13.123,0,0,1-7-2c-6.564-4.126-8.227-13.332-3.708-20.521a15.773,15.773,0,0,1,13.1-7.552m-1.755,23.466a8.784,8.784,0,0,0,7.311-4.184c2.524-4.015,1.547-9.186-2.178-11.528a7.545,7.545,0,0,0-4.021-1.15,8.783,8.783,0,0,0-7.311,4.184,8.906,8.906,0,0,0-1.267,6.351,7.65,7.65,0,0,0,3.445,5.177,7.542,7.542,0,0,0,4.021,1.15m1.755-24.466a16.7,16.7,0,0,0-13.949,8.02c-4.821,7.668-3.02,17.473,4.022,21.9a14.058,14.058,0,0,0,7.529,2.151,16.7,16.7,0,0,0,13.949-8.02c4.82-7.668,3.02-17.473-4.022-21.9a14.058,14.058,0,0,0-7.529-2.151Zm-1.755,23.466a6.511,6.511,0,0,1-3.489-1c-3.263-2.051-4.1-6.595-1.864-10.148a7.741,7.741,0,0,1,6.465-3.717,6.514,6.514,0,0,1,3.489,1c3.263,2.051,4.1,6.595,1.863,10.148a7.738,7.738,0,0,1-6.464,3.717Z" transform="translate(-14 -12.535)"/></g><path class="w" d="M315.957,15.988c-7.208,4.15-9.388,13.877-4.868,21.727s14.026,10.848,21.234,6.7,9.388-13.877,4.868-21.727S323.165,11.837,315.957,15.988Zm11.975,20.8c-3.34,1.924-7.746.534-9.84-3.1s-1.085-8.145,2.256-10.068,7.746-.534,9.84,3.1S331.272,34.863,327.932,36.786Z" transform="translate(-14 -12.535)"/><g class="e"><path d="M322.993,15.12a15.622,15.622,0,0,1,13.332,8.064c4.237,7.359,2.218,16.493-4.5,20.362a12.931,12.931,0,0,1-6.537,1.734,15.622,15.622,0,0,1-13.332-8.064c-4.237-7.359-2.218-16.493,4.5-20.362a12.931,12.931,0,0,1,6.537-1.734m1.678,23.532a7.548,7.548,0,0,0,3.76-1c3.813-2.2,4.99-7.325,2.624-11.434a8.705,8.705,0,0,0-7.447-4.471,7.547,7.547,0,0,0-3.759,1c-3.813,2.2-4.99,7.325-2.624,11.434a8.7,8.7,0,0,0,7.446,4.471M322.993,14.12a14.012,14.012,0,0,0-7.036,1.868c-7.208,4.15-9.388,13.877-4.868,21.727a16.636,16.636,0,0,0,14.2,8.565,14.015,14.015,0,0,0,7.036-1.868c7.208-4.15,9.388-13.877,4.868-21.727a16.636,16.636,0,0,0-14.2-8.565Zm1.678,23.532a7.708,7.708,0,0,1-6.579-3.97c-2.095-3.637-1.085-8.145,2.256-10.068a6.5,6.5,0,0,1,3.26-.866,7.709,7.709,0,0,1,6.58,3.97c2.094,3.637,1.084,8.145-2.256,10.068a6.5,6.5,0,0,1-3.261.866Z" transform="translate(-14 -12.535)"/></g><path class="x" d="M431.835,65.179c-4.068,7.255-.961,16.727,6.939,21.157s17.6,2.14,21.671-5.115.961-16.727-6.939-21.157S435.9,57.924,431.835,65.179Zm20.934,11.738c-1.885,3.362-6.381,4.423-10.043,2.37s-5.1-6.442-3.215-9.8,6.381-4.423,10.042-2.37S454.654,73.555,452.769,76.917Z" transform="translate(-14 -12.535)"/><g class="e"><path d="M444.987,58.807a16.477,16.477,0,0,1,8.03,2.129c7.406,4.153,10.347,13.034,6.555,19.8a13.764,13.764,0,0,1-12.279,6.861,16.477,16.477,0,0,1-8.03-2.129,16.056,16.056,0,0,1-7.5-8.959,13.386,13.386,0,0,1,.94-10.837,13.767,13.767,0,0,1,12.28-6.861m1.687,22.527a7.824,7.824,0,0,0,6.967-3.928,7.648,7.648,0,0,0,.55-6.194,8.9,8.9,0,0,0-4.149-4.972,9.1,9.1,0,0,0-4.437-1.174,7.826,7.826,0,0,0-6.966,3.928c-2.152,3.837-.538,8.846,3.6,11.166a9.1,9.1,0,0,0,4.437,1.174m-1.687-23.527a14.841,14.841,0,0,0-13.152,7.372c-4.068,7.255-.961,16.727,6.939,21.157a17.425,17.425,0,0,0,8.519,2.257,14.841,14.841,0,0,0,13.152-7.372c4.067-7.255.961-16.727-6.939-21.157a17.425,17.425,0,0,0-8.519-2.257Zm1.687,22.527a8.072,8.072,0,0,1-3.948-1.047c-3.661-2.052-5.1-6.442-3.215-9.8a6.881,6.881,0,0,1,6.094-3.417,8.069,8.069,0,0,1,3.948,1.047c3.661,2.052,5.1,6.442,3.216,9.8a6.88,6.88,0,0,1-6.1,3.417Z" transform="translate(-14 -12.535)"/></g><path class="y" d="M323.183,84.588c-4.368,7.079-1.659,16.673,6.049,21.429s17.5,2.873,21.865-4.2,1.659-16.673-6.049-21.429S327.55,77.51,323.183,84.588Zm20.425,12.6c-2.024,3.28-6.561,4.153-10.133,1.949s-4.827-6.65-2.8-9.931,6.56-4.153,10.133-1.949S345.632,93.91,343.608,97.191Z" transform="translate(-14 -12.535)"/><g class="e"><path d="M335.934,78.757a16.375,16.375,0,0,1,8.589,2.477c7.226,4.459,9.794,13.454,5.723,20.052a13.767,13.767,0,0,1-11.9,6.357,16.371,16.371,0,0,1-8.588-2.477,16.064,16.064,0,0,1-7.116-9.264,13.381,13.381,0,0,1,1.393-10.788,13.765,13.765,0,0,1,11.9-6.357m1.764,22.6a7.835,7.835,0,0,0,6.761-3.64c2.31-3.745.906-8.817-3.129-11.307a9.057,9.057,0,0,0-4.749-1.365,7.833,7.833,0,0,0-6.76,3.64,7.646,7.646,0,0,0-.808,6.166,8.9,8.9,0,0,0,3.937,5.141,9.051,9.051,0,0,0,4.748,1.365m-1.764-23.6a14.761,14.761,0,0,0-12.751,6.831c-4.368,7.079-1.659,16.673,6.049,21.429a17.372,17.372,0,0,0,9.113,2.626,14.761,14.761,0,0,0,12.752-6.831c4.367-7.079,1.659-16.673-6.049-21.429a17.375,17.375,0,0,0-9.114-2.626Zm1.764,22.6a8.057,8.057,0,0,1-4.223-1.216c-3.572-2.2-4.827-6.65-2.8-9.931a6.841,6.841,0,0,1,5.909-3.165,8.057,8.057,0,0,1,4.224,1.216c3.572,2.2,4.827,6.65,2.8,9.931a6.842,6.842,0,0,1-5.91,3.165Z" transform="translate(-14 -12.535)"/></g><path class="z" d="M449.183,224.588c-4.368,7.079-1.659,16.673,6.049,21.429s17.5,2.873,21.865-4.2,1.659-16.673-6.049-21.429S453.55,217.51,449.183,224.588Zm20.425,12.6c-2.024,3.28-6.561,4.153-10.133,1.949s-4.827-6.65-2.8-9.931,6.56-4.153,10.133-1.949S471.632,233.91,469.608,237.191Z" transform="translate(-14 -12.535)"/><g class="e"><path d="M461.934,218.757a16.375,16.375,0,0,1,8.589,2.477c7.226,4.459,9.794,13.454,5.723,20.052a13.767,13.767,0,0,1-11.9,6.357,16.371,16.371,0,0,1-8.588-2.477,16.064,16.064,0,0,1-7.116-9.264,13.381,13.381,0,0,1,1.393-10.788,13.765,13.765,0,0,1,11.9-6.357m1.765,22.6a7.834,7.834,0,0,0,6.76-3.64c2.31-3.745.906-8.817-3.129-11.307a9.057,9.057,0,0,0-4.749-1.365,7.833,7.833,0,0,0-6.76,3.64,7.646,7.646,0,0,0-.808,6.166,8.9,8.9,0,0,0,3.937,5.141,9.051,9.051,0,0,0,4.749,1.365m-1.765-23.6a14.761,14.761,0,0,0-12.751,6.831c-4.368,7.079-1.659,16.673,6.049,21.429a17.372,17.372,0,0,0,9.113,2.626,14.761,14.761,0,0,0,12.752-6.831c4.367-7.079,1.659-16.673-6.049-21.429a17.375,17.375,0,0,0-9.114-2.626Zm1.765,22.6a8.057,8.057,0,0,1-4.224-1.216c-3.572-2.2-4.827-6.65-2.8-9.931a6.841,6.841,0,0,1,5.909-3.165,8.057,8.057,0,0,1,4.224,1.216c3.572,2.2,4.827,6.65,2.8,9.931a6.841,6.841,0,0,1-5.909,3.165Z" transform="translate(-14 -12.535)"/></g><path class="aa" d="M317.774,565.258c.537,8.3,8.3,14.555,17.337,13.971s15.931-7.787,15.395-16.087-8.3-14.555-17.338-13.971S317.237,556.958,317.774,565.258Zm23.95-1.548c.249,3.846-2.945,7.184-7.134,7.455s-7.786-2.628-8.034-6.475,2.945-7.184,7.134-7.455S341.475,559.863,341.724,563.71Z" transform="translate(-14 -12.535)"/><g class="e"><path d="M334.337,550.133c8.033,0,14.7,5.743,15.171,13.074a13.383,13.383,0,0,1-3.831,10.18,16.062,16.062,0,0,1-10.63,4.844c-.367.024-.738.036-1.1.036-8.033,0-14.7-5.743-15.171-13.074a13.379,13.379,0,0,1,3.831-10.18,16.062,16.062,0,0,1,10.63-4.844c.367-.024.738-.036,1.1-.036m-.288,22.049c.2,0,.4-.006.606-.02a8.9,8.9,0,0,0,5.889-2.693,7.65,7.65,0,0,0,2.178-5.824,8.276,8.276,0,0,0-8.491-7.427c-.2,0-.4.006-.606.02a8.9,8.9,0,0,0-5.889,2.693,7.646,7.646,0,0,0-2.178,5.824,8.276,8.276,0,0,0,8.491,7.427m.288-23.049q-.581,0-1.169.038c-9.038.585-15.931,7.787-15.394,16.087.513,7.94,7.639,14.009,16.169,14.009q.581,0,1.168-.038c9.039-.585,15.931-7.787,15.395-16.087-.514-7.94-7.639-14.009-16.169-14.009Zm-.288,22.049a7.257,7.257,0,0,1-7.493-6.492c-.249-3.846,2.945-7.184,7.134-7.455.181-.011.362-.017.541-.017a7.257,7.257,0,0,1,7.493,6.492c.249,3.846-2.945,7.184-7.134,7.455-.181.011-.362.017-.541.017Z" transform="translate(-14 -12.535)"/></g></svg>