<svg xmlns="http://www.w3.org/2000/svg" xmlns:xlink="http://www.w3.org/1999/xlink" viewBox="0 0 577 559.256"><defs><style>.a{fill:url(#a);}.b{opacity:0.46;}.c{fill:#ae3c00;}.d{fill:url(#b);}.e{fill:url(#c);}.f{fill:url(#d);}.g{fill:url(#e);}.h{fill:url(#f);}.i{fill:url(#g);}.j{fill:url(#h);}.k{fill:url(#i);}.l{fill:url(#j);}.m{fill:url(#k);}.n{fill:url(#l);}.o{opacity:0;}.p{fill:url(#m);}</style><radialGradient id="a" cx="205" cy="524.256" r="35" gradientUnits="userSpaceOnUse"><stop offset="0.034" stop-color="#650000"/><stop offset="0.534" stop-color="#9f0000"/><stop offset="0.68" stop-color="#ae2302"/><stop offset="0.724" stop-color="#b32200"/><stop offset="0.893" stop-color="#650f0e"/></radialGradient><radialGradient id="b" cx="222" cy="434.256" r="35" xlink:href="#a"/><radialGradient id="c" cx="35" cy="319.256" r="35" xlink:href="#a"/><radialGradient id="d" cx="136" cy="345.256" r="35" xlink:href="#a"/><radialGradient id="e" cx="90" cy="437.256" r="35" xlink:href="#a"/><radialGradient id="f" cx="244" cy="341.256" r="35" xlink:href="#a"/><radialGradient id="g" cx="203.066" cy="539.746" r="35" gradientTransform="translate(556.103 -44.465) rotate(84)" xlink:href="#a"/><radialGradient id="h" cx="217.951" cy="443.941" r="35" gradientTransform="translate(556.103 -44.465) rotate(84)" xlink:href="#a"/><radialGradient id="i" cx="46.348" cy="319.28" r="35" gradientTransform="translate(556.103 -44.465) rotate(84)" xlink:href="#a"/><radialGradient id="j" cx="140" cy="351" r="35" gradientTransform="translate(556.103 -44.465) rotate(84)" xlink:href="#a"/><radialGradient id="k" cx="100" cy="454" r="35" gradientTransform="translate(556.103 -44.465) rotate(84)" xlink:href="#a"/><radialGradient id="l" cx="246.775" cy="353.303" r="35" gradientTransform="translate(556.103 -44.465) rotate(84)" xlink:href="#a"/><radialGradient id="m" cx="-452" cy="336" r="35" gradientTransform="translate(90 578.256) rotate(180)" xlink:href="#a"/></defs><title>pepleft</title><circle class="a" cx="205" cy="524.256" r="35"/><g class="b"><path class="c" d="M215,507a33,33,0,1,1-33,33,33.038,33.038,0,0,1,33-33m0-2a35,35,0,1,0,35,35,35,35,0,0,0-35-35Z" transform="translate(-10 -15.744)"/></g><circle class="d" cx="222" cy="434.256" r="35"/><g class="b"><path class="c" d="M232,417a33,33,0,1,1-33,33,33.038,33.038,0,0,1,33-33m0-2a35,35,0,1,0,35,35,35,35,0,0,0-35-35Z" transform="translate(-10 -15.744)"/></g><circle class="e" cx="35" cy="319.256" r="35"/><g class="b"><path class="c" d="M45,302a33,33,0,1,1-33,33,33.038,33.038,0,0,1,33-33m0-2a35,35,0,1,0,35,35,35,35,0,0,0-35-35Z" transform="translate(-10 -15.744)"/></g><circle class="f" cx="136" cy="345.256" r="35"/><g class="b"><path class="c" d="M146,328a33,33,0,1,1-33,33,33.038,33.038,0,0,1,33-33m0-2a35,35,0,1,0,35,35,35,35,0,0,0-35-35Z" transform="translate(-10 -15.744)"/></g><circle class="g" cx="90" cy="437.256" r="35"/><g class="b"><path class="c" d="M100,420a33,33,0,1,1-33,33,33.038,33.038,0,0,1,33-33m0-2a35,35,0,1,0,35,35,35,35,0,0,0-35-35Z" transform="translate(-10 -15.744)"/></g><circle class="h" cx="244" cy="341.256" r="35"/><g class="b"><path class="c" d="M254,324a33,33,0,1,1-33,33,33.038,33.038,0,0,1,33-33m0-2a35,35,0,1,0,35,35,35,35,0,0,0-35-35Z" transform="translate(-10 -15.744)"/></g><circle class="i" cx="40.54" cy="213.907" r="35"/><g class="b"><path class="c" d="M50.584,194.649v2h0a33,33,0,0,1,3.4,65.822,33.492,33.492,0,0,1-3.492.183,33,33,0,0,1-3.407-65.822,33.773,33.773,0,0,1,3.493-.183v-2m0,0a35.591,35.591,0,0,0-3.7.194A35,35,0,0,0,50.5,264.654a35.576,35.576,0,0,0,3.7-.194,35,35,0,0,0-3.616-69.811Z" transform="translate(-10 -15.744)"/></g><circle class="j" cx="137.376" cy="218.696" r="35"/><g class="b"><path class="c" d="M147.42,199.438v2h0a33,33,0,0,1,3.4,65.822,33.492,33.492,0,0,1-3.492.183,33,33,0,0,1-3.407-65.822,33.773,33.773,0,0,1,3.493-.183v-2m0,0a35.591,35.591,0,0,0-3.7.194,35,35,0,0,0,3.616,69.811,35.576,35.576,0,0,0,3.7-.194,35,35,0,0,0-3.616-69.811Z" transform="translate(-10 -15.744)"/></g><circle class="k" cx="243.416" cy="35.003" r="35"/><g class="b"><path class="c" d="M253.46,15.744v2h0a33,33,0,0,1,3.4,65.823,33.768,33.768,0,0,1-3.492.183,33,33,0,0,1-3.406-65.822,33.74,33.74,0,0,1,3.492-.184v-2m0,0a35.565,35.565,0,0,0-3.7.2,35,35,0,0,0,3.615,69.811,35.6,35.6,0,0,0,3.7-.194,35,35,0,0,0-3.616-69.812Z" transform="translate(-10 -15.744)"/></g><circle class="l" cx="221.659" cy="131.458" r="35"/><g class="b"><path class="c" d="M231.7,112.2v2h0a33,33,0,0,1,3.405,65.822,33.493,33.493,0,0,1-3.492.184,33,33,0,0,1-3.407-65.822,33.464,33.464,0,0,1,3.492-.184l0-2m0,0a35,35,0,1,0,34.766,31.344A35.306,35.306,0,0,0,231.7,112.2Z" transform="translate(-10 -15.744)"/></g><circle class="m" cx="115.042" cy="102.443" r="35"/><g class="b"><path class="c" d="M125.087,83.185v2h0a33,33,0,0,1,3.4,65.822,33.492,33.492,0,0,1-3.492.183,33,33,0,0,1-3.407-65.822,33.739,33.739,0,0,1,3.492-.183l0-2m0,0a35.591,35.591,0,0,0-3.7.194A35,35,0,0,0,125,153.19a35.591,35.591,0,0,0,3.7-.194,35,35,0,0,0-3.616-69.811Z" transform="translate(-10 -15.744)"/></g><circle class="n" cx="230.53" cy="237.888" r="35"/><g class="b"><path class="c" d="M240.575,218.629v2h0a33,33,0,0,1,3.405,65.822,33.493,33.493,0,0,1-3.492.184,33,33,0,0,1-3.407-65.822,33.464,33.464,0,0,1,3.492-.184l0-2m0,0a35,35,0,1,0,34.766,31.345,35.306,35.306,0,0,0-34.766-31.345Z" transform="translate(-10 -15.744)"/></g><g class="o"><circle class="p" cx="542" cy="242.256" r="35"/><g class="b"><path class="c" d="M552,225a33,33,0,1,1-33,33,33.038,33.038,0,0,1,33-33m0-2a35,35,0,1,0,35,35,35,35,0,0,0-35-35Z" transform="translate(-10 -15.744)"/></g></g></svg>