<svg xmlns="http://www.w3.org/2000/svg" xmlns:xlink="http://www.w3.org/1999/xlink" viewBox="0 0 572 573.43"><defs><style>.a{opacity:0.02;}.b{fill:#003c00;}.c{fill:none;stroke:#000;}.c,.d,.e,.f,.g,.h,.i,.j,.k,.l,.m,.n,.o,.p,.q,.r,.s,.t,.u{stroke-miterlimit:10;}.d,.e,.f,.g,.h,.i,.j,.k,.l,.m,.n,.o,.p,.q,.r,.s,.t,.u{stroke-width:0.605px;}.d{fill:url(#a);stroke:url(#b);}.e{fill:url(#c);stroke:url(#d);}.f{fill:url(#e);stroke:url(#f);}.g{fill:url(#g);stroke:url(#h);}.h{fill:url(#i);stroke:url(#j);}.i{fill:url(#k);stroke:url(#l);}.j{fill:url(#m);stroke:url(#n);}.k{fill:url(#o);stroke:url(#p);}.l{fill:url(#q);stroke:url(#r);}.m{fill:url(#s);stroke:url(#t);}.n{fill:url(#u);stroke:url(#v);}.o{fill:url(#w);stroke:url(#x);}.p{fill:url(#y);stroke:url(#z);}.q{fill:url(#aa);stroke:url(#ab);}.r{fill:url(#ac);stroke:url(#ad);}.s{fill:url(#ae);stroke:url(#af);}.t{fill:url(#ag);stroke:url(#ah);}.u{fill:url(#ai);stroke:url(#aj);}</style><radialGradient id="a" cx="417.239" cy="197.076" r="29.04" gradientTransform="translate(306.905 -526.971) rotate(27.432) scale(1 3)" gradientUnits="userSpaceOnUse"><stop offset="0.129" stop-color="#385d0c"/><stop offset="0.227" stop-color="#435c02"/><stop offset="0.407" stop-color="#214c0c"/><stop offset="0.615" stop-color="#617f21"/><stop offset="0.754" stop-color="#4a6002"/><stop offset="0.871" stop-color="#576802"/><stop offset="1" stop-color="#003f07"/></radialGradient><linearGradient id="b" x1="402.683" y1="197.076" x2="431.794" y2="197.076" gradientTransform="translate(801.557 425.689) rotate(-174.568)" gradientUnits="userSpaceOnUse"><stop offset="0.124" stop-color="#276102"/><stop offset="0.202" stop-color="#003f0c"/><stop offset="0.363" stop-color="#003f0c"/><stop offset="0.637" stop-color="#306800"/><stop offset="0.995" stop-color="#003f07"/></linearGradient><radialGradient id="c" cx="454.495" cy="150.409" r="29.04" gradientTransform="translate(-183.871 -58.07) rotate(-32.324) scale(1 3)" xlink:href="#a"/><linearGradient id="d" x1="439.94" y1="150.409" x2="469.05" y2="150.409" gradientTransform="translate(828.711 -201.275) rotate(125.676)" xlink:href="#b"/><radialGradient id="e" cx="378.188" cy="137.258" r="29.04" gradientTransform="translate(469.337 -330.474) rotate(57.257) scale(1 3)" xlink:href="#a"/><linearGradient id="f" x1="363.633" y1="137.258" x2="392.743" y2="137.258" gradientTransform="translate(557.123 540.728) rotate(-144.743)" xlink:href="#b"/><radialGradient id="g" cx="332.169" cy="69.196" r="29.04" gradientTransform="matrix(0.967, -0.254, 0.762, 2.902, -50.956, -54.966)" xlink:href="#a"/><linearGradient id="h" x1="317.614" y1="69.196" x2="346.725" y2="69.196" gradientTransform="translate(630.694 -81.565) rotate(143.294)" xlink:href="#b"/><radialGradient id="i" cx="402.931" cy="154.516" r="29.04" gradientTransform="translate(995.271 -68.563) rotate(113.328) scale(1 3)" xlink:href="#a"/><linearGradient id="j" x1="388.376" y1="154.516" x2="417.487" y2="154.516" gradientTransform="translate(246.247 517.111) rotate(-88.672)" xlink:href="#b"/><radialGradient id="k" cx="474.971" cy="217.868" r="29.04" gradientTransform="matrix(0.884, 0.468, -1.403, 2.652, 413.86, -603.226)" xlink:href="#a"/><linearGradient id="l" x1="460.416" y1="217.868" x2="489.526" y2="217.868" gradientTransform="translate(978.131 462.044) rotate(-174.116)" xlink:href="#b"/><radialGradient id="m" cx="480.67" cy="208.485" r="29.04" gradientTransform="matrix(-0.837, 0.548, -1.643, -2.51, 1213.437, 453.359)" xlink:href="#a"/><linearGradient id="n" x1="466.115" y1="208.485" x2="495.226" y2="208.485" gradientTransform="translate(23.233 469.156) rotate(-55.212)" xlink:href="#b"/><radialGradient id="o" cx="363.914" cy="345.722" r="29.04" gradientTransform="matrix(0.101, -0.995, 2.985, 0.303, -726.914, 556.448)" xlink:href="#a"/><linearGradient id="p" x1="349.359" y1="345.722" x2="378.469" y2="345.722" gradientTransform="translate(572.189 -146.697) rotate(73.8)" xlink:href="#b"/><radialGradient id="q" cx="316.209" cy="515.201" r="29.04" gradientTransform="matrix(-0.615, -0.789, 2.366, -1.845, -612.386, 1731.598)" xlink:href="#a"/><linearGradient id="r" x1="301.653" y1="515.201" x2="330.764" y2="515.201" gradientTransform="translate(396.329 -72.488) rotate(30.053)" xlink:href="#b"/><radialGradient id="s" cx="361.961" cy="298.388" r="29.04" gradientTransform="matrix(-0.817, 0.577, -1.73, -2.451, 1237.967, 820.258)" xlink:href="#a"/><linearGradient id="t" x1="347.406" y1="298.388" x2="376.517" y2="298.388" gradientTransform="translate(-20.797 440.354) rotate(-57.214)" xlink:href="#b"/><radialGradient id="u" cx="400.851" cy="331.912" r="29.04" gradientTransform="matrix(-0.91, -0.415, 1.245, -2.729, 438.09, 1374.924)" xlink:href="#a"/><linearGradient id="v" x1="386.296" y1="331.912" x2="415.406" y2="331.912" gradientTransform="translate(100.733 -46.58) rotate(2.519)" xlink:href="#b"/><radialGradient id="w" cx="468.246" cy="349.151" r="29.04" gradientTransform="matrix(-0.137, -0.991, 2.972, -0.412, -429.611, 922.665)" xlink:href="#a"/><linearGradient id="x" x1="453.691" y1="349.151" x2="482.802" y2="349.151" gradientTransform="translate(613.053 -264.856) rotate(60.112)" xlink:href="#b"/><radialGradient id="y" cx="419.964" cy="457.223" r="29.04" gradientTransform="matrix(0.795, -0.606, -1.818, -2.386, 1010.423, 1765.923)" xlink:href="#a"/><linearGradient id="z" x1="405.409" y1="457.223" x2="434.52" y2="457.223" gradientTransform="matrix(-0.965, 0.264, 0.264, 0.965, 797.485, -131.506)" xlink:href="#b"/><radialGradient id="aa" cx="328.846" cy="380.111" r="29.04" gradientTransform="matrix(-0.514, -0.858, 2.574, -1.541, -424.287, 1249.495)" xlink:href="#a"/><linearGradient id="ab" x1="314.291" y1="380.111" x2="343.402" y2="380.111" gradientTransform="translate(352.238 -119.863) rotate(37.097)" xlink:href="#b"/><radialGradient id="ac" cx="399.799" cy="382.95" r="29.04" gradientTransform="matrix(0.389, -0.921, 2.763, 1.168, -763.591, 347.604)" xlink:href="#a"/><linearGradient id="ad" x1="385.243" y1="382.95" x2="414.354" y2="382.95" gradientTransform="translate(839.547 33.033) rotate(90.915)" xlink:href="#b"/><radialGradient id="ae" cx="404.412" cy="452.542" r="29.04" gradientTransform="matrix(0.951, 0.308, -0.923, 2.854, 442.14, -943.53)" xlink:href="#a"/><linearGradient id="af" x1="389.857" y1="452.542" x2="418.968" y2="452.542" gradientTransform="translate(844.867 895.272) rotate(175.918)" xlink:href="#b"/><radialGradient id="ag" cx="376.874" cy="483.884" r="29.04" gradientTransform="translate(-849.673 -404.124) rotate(-37.764) scale(1 3)" xlink:href="#a"/><linearGradient id="ah" x1="362.319" y1="483.884" x2="391.429" y2="483.884" gradientTransform="matrix(-0.504, 0.864, -0.864, -0.504, 945.1, 430.733)" xlink:href="#b"/><radialGradient id="ai" cx="181.979" cy="493.382" r="29.04" gradientTransform="matrix(-0.998, -0.06, 0.181, -2.995, 408.373, 1891.111)" xlink:href="#a"/><linearGradient id="aj" x1="167.423" y1="493.382" x2="196.534" y2="493.382" gradientTransform="translate(-13.091 -7.291) rotate(-18.532)" xlink:href="#b"/></defs><title>peppersright</title><g class="a"><path class="b" d="M300,14.965a285.076,285.076,0,0,1,110.935,547.6A285.075,285.075,0,0,1,189.065,37.361,283.22,283.22,0,0,1,300,14.965m0-1c-157.953,0-286,128.047-286,286s128.047,286,286,286,286-128.047,286-286-128.047-286-286-286Z" transform="translate(-14 -12.535)"/><line class="c" x1="286.477" x2="286.477" y2="570.093"/><line class="c" x1="571.047" y1="286.953" x2="0.953" y2="286.953"/></g><path class="d" d="M401.7,227.947c-7.5,2.131-7.712-9.333-11.464-20.049-1-2.868-.931-7.929.4-17.025,2.074-14.131,8.651-22.484,10.845-24.563,8.259-7.825,17.3-14.885,19.5-13.313,2.875,2.061,2.208,2.236-6.7,12.72-11.132,13.1-11.627,17.856-12.8,26.187-1.113,7.913-1.909,9.507-1.519,15.971C400.739,220.774,405.231,226.943,401.7,227.947Z" transform="translate(-14 -12.535)"/><path class="e" d="M472.666,102.045c-1.934,7.548-11.947,1.961-23.094-.2-2.984-.577-7.319-3.189-14.5-8.924C423.9,84.017,420,74.128,419.309,71.186c-2.6-11.077-4.143-22.446-1.681-23.549,3.229-1.446,3.044-.782,7.614,12.2,5.709,16.214,9.569,19.038,16.176,24.246,6.276,4.947,7.252,6.438,13.032,9.356C465.986,99.26,473.578,98.486,472.666,102.045Z" transform="translate(-14 -12.535)"/><path class="f" d="M305.931,241.693c-7.562-1.879-2.048-11.932.027-23.095.555-2.987,3.135-7.342,8.817-14.569,8.828-11.227,18.688-15.2,21.625-15.916,11.057-2.681,22.416-4.307,23.536-1.853,1.47,3.218.8,3.038-12.141,7.7-16.171,5.827-18.968,9.708-24.127,16.353-4.9,6.311-6.385,7.3-9.261,13.1C308.667,234.993,309.5,242.579,305.931,241.693Z" transform="translate(-14 -12.535)"/><path class="g" d="M346.153,91.753c-4.128,6.609-11.98-1.747-21.952-7.176-2.668-1.453-6.01-5.254-11.123-12.895-7.943-11.87-8.67-22.477-8.438-25.491.874-11.343,2.845-22.647,5.526-22.953,3.514-.4,3.137.177,3.564,13.929.534,17.182,3.358,21.042,8.079,28.006,4.484,6.614,4.963,8.331,9.589,12.862C340.629,87.077,348.1,88.638,346.153,91.753Z" transform="translate(-14 -12.535)"/><path class="h" d="M371.983,117.441c-2.662-7.323,8.757-8.36,19.177-12.869,2.788-1.207,7.842-1.5,17.01-.816,14.243,1.058,23.046,7.019,25.276,9.059,8.4,7.678,16.086,16.194,14.675,18.494-1.85,3.016-2.072,2.363-13.168-5.774-13.861-10.166-18.642-10.319-27.036-10.892-7.972-.543-9.619-1.223-16.038-.372C379.069,115.972,373.237,120.894,371.983,117.441Z" transform="translate(-14 -12.535)"/><path class="i" d="M524.549,234.551c-7.512,2.072-7.638-9.394-11.3-20.139-.982-2.875-.869-7.936.538-17.021,2.185-14.114,8.827-22.415,11.038-24.477,8.32-7.76,17.421-14.748,19.6-13.159,2.859,2.084,2.191,2.253-6.8,12.667-11.235,13.011-11.768,17.764-13,26.086-1.175,7.9-1.984,9.491-1.645,15.958C523.647,227.37,528.09,233.574,524.549,234.551Z" transform="translate(-14 -12.535)"/><path class="j" d="M437.169,172c1.817-7.578,11.915-2.146,23.094-.163,2.992.531,7.368,3.075,14.641,8.7C486.2,189.269,490.26,199.1,491,202.027c2.771,11.035,4.49,22.379,2.045,23.52-3.206,1.5-3.031.829-7.8-12.077-5.96-16.124-9.864-18.888-16.55-23.993-6.352-4.849-7.351-6.325-13.176-9.153C443.891,174.679,436.312,175.57,437.169,172Z" transform="translate(-14 -12.535)"/><path class="k" d="M378.157,288.159c4.744,6.182-5.833,10.609-14.411,18.047-2.3,1.99-7.027,3.789-15.974,5.9-13.9,3.281-24.09.247-26.832-1.026-10.318-4.793-20.215-10.6-19.563-13.217.856-3.432,1.265-2.876,14.3,1.541,16.28,5.519,20.885,4.226,29.061,2.244,7.766-1.883,9.542-1.73,15.406-4.476C371.842,291.694,375.921,285.245,378.157,288.159Z" transform="translate(-14 -12.535)"/><path class="l" d="M430.685,498.623c7.7,1.186,3.122,11.7,2.068,23-.282,3.026-2.456,7.6-7.46,15.309-7.773,11.982-17.231,16.836-20.092,17.812-10.768,3.673-21.932,6.323-23.271,3.98-1.755-3.071-1.076-2.952,11.392-8.772,15.577-7.27,18.01-11.388,22.545-18.474,4.309-6.73,5.7-7.847,8.035-13.886C428.567,505.544,427.054,498.064,430.685,498.623Z" transform="translate(-14 -12.535)"/><path class="m" d="M393.8,277.393c1.551-7.637,11.833-2.561,23.075-.97,3.008.426,7.47,2.816,14.935,8.181,11.6,8.336,16,18.015,16.834,20.919,3.156,10.931,5.27,22.208,2.866,23.434-3.151,1.607-3,.934-8.218-11.8-6.52-15.9-10.518-18.531-17.379-23.4-6.516-4.624-7.567-6.064-13.487-8.687C400.614,279.837,393.071,280.993,393.8,277.393Z" transform="translate(-14 -12.535)"/><path class="n" d="M487.828,264.569c7.378-2.509,8.176,8.929,12.468,19.44,1.148,2.813,1.333,7.872.462,17.024-1.353,14.218-7.5,22.895-9.582,25.082-7.851,8.235-16.525,15.746-18.8,14.287-2.976-1.912-2.318-2.12,6.047-13.044,10.452-13.648,10.7-18.424,11.452-26.8.709-7.959,1.423-9.592.7-16.027C489.15,271.684,484.35,265.752,487.828,264.569Z" transform="translate(-14 -12.535)"/><path class="o" d="M576.455,295.73c6.072,4.884-3.157,11.688-9.731,20.945-1.76,2.477-5.931,5.344-14.124,9.513-12.73,6.478-23.348,5.941-26.312,5.353-11.16-2.215-22.15-5.513-22.135-8.211.019-3.538.547-3.095,14.253-1.886,17.124,1.51,21.292-.837,28.767-4.7,7.1-3.667,8.861-3.939,13.909-7.994C571.156,300.66,573.593,293.428,576.455,295.73Z" transform="translate(-14 -12.535)"/><path class="p" d="M503.507,383.516c-7.75-.814-6,10.518-7.856,21.718-.5,3,.442,7.972,3.318,16.7,4.466,13.566,12.378,20.668,14.9,22.339,9.479,6.293,19.6,11.7,21.491,9.773,2.48-2.524,1.792-2.582-8.784-11.383-13.213-10.995-14.517-15.6-17.1-23.6-2.453-7.6-3.511-9.039-4.235-15.474C503.792,390.748,507.16,383.9,503.507,383.516Z" transform="translate(-14 -12.535)"/><path class="q" d="M407.868,351.023c7.5,2.121,1.664,11.992-.768,23.082-.651,2.968-3.369,7.238-9.281,14.279-9.183,10.939-19.166,14.6-22.124,15.214-11.138,2.325-22.542,3.586-23.584,1.1-1.365-3.263-.7-3.062,12.382-7.308,16.351-5.306,19.27-9.1,24.64-15.57,5.1-6.151,6.616-7.09,9.677-12.8C404.918,357.632,404.333,350.023,407.868,351.023Z" transform="translate(-14 -12.535)"/><path class="r" d="M488.343,426.821c2.715,7.3-8.7,8.423-19.084,13.007-2.779,1.227-7.83,1.553-17,.939-14.251-.955-23.1-6.853-25.341-8.877-8.452-7.617-16.2-16.077-14.808-18.388,1.828-3.028,2.055-2.377,13.209,5.68,13.935,10.065,18.716,10.184,27.114,10.7,7.976.486,9.628,1.154,16.04.256C481.268,428.342,487.064,423.378,488.343,426.821Z" transform="translate(-14 -12.535)"/><path class="s" d="M412.429,510.616c-7.04,3.341-9.148-7.93-14.62-17.879-1.464-2.662-2.229-7.665-2.416-16.857-.29-14.28,4.815-23.605,6.635-26.018,6.852-9.083,14.606-17.541,17.029-16.353,3.176,1.557,2.547,1.84-4.508,13.653-8.813,14.759-8.515,19.533-8.294,27.943.211,7.988-.311,9.692,1.142,16C410.3,503.7,415.748,509.041,412.429,510.616Z" transform="translate(-14 -12.535)"/><path class="t" d="M370.39,531.449c-1.21,7.7-11.707,3.085-23.009,2-3.024-.291-7.588-2.48-15.285-7.508-11.957-7.812-16.781-17.286-17.747-20.149-3.639-10.78-6.253-21.953-3.906-23.284,3.077-1.745,2.956-1.066,8.735,11.42,7.221,15.6,11.332,18.046,18.4,22.6,6.716,4.33,7.83,5.722,13.861,8.079C363.476,529.31,370.96,527.82,370.39,531.449Z" transform="translate(-14 -12.535)"/><path class="u" d="M303.731,366.711c5.983-4.992,10.838,5.4,18.618,13.665,2.083,2.212,4.072,6.867,6.546,15.721,3.845,13.755,1.228,24.06.067,26.85-4.369,10.506-9.766,20.631-12.409,20.085-3.464-.715-2.926-1.146.958-14.346,4.852-16.491,3.372-21.04,1.059-29.128-2.2-7.683-2.117-9.463-5.1-15.211C307.52,372.876,300.91,369.064,303.731,366.711Z" transform="translate(-14 -12.535)"/></svg>