<svg xmlns="http://www.w3.org/2000/svg" xmlns:xlink="http://www.w3.org/1999/xlink" viewBox="0 0 572 573.43"><defs><style>.a{opacity:0.02;}.b{fill:#003c00;}.c{fill:none;stroke:#000;}.c,.d,.e,.f,.g,.h,.i,.j,.k,.l,.m,.n,.o,.p,.q,.r,.s,.t,.u{stroke-miterlimit:10;}.d,.e,.f,.g,.h,.i,.j,.k,.l,.m,.n,.o,.p,.q,.r,.s,.t,.u{stroke-width:0.605px;}.d{fill:url(#a);stroke:url(#b);}.e{fill:url(#c);stroke:url(#d);}.f{fill:url(#e);stroke:url(#f);}.g{fill:url(#g);stroke:url(#h);}.h{fill:url(#i);stroke:url(#j);}.i{fill:url(#k);stroke:url(#l);}.j{fill:url(#m);stroke:url(#n);}.k{fill:url(#o);stroke:url(#p);}.l{fill:url(#q);stroke:url(#r);}.m{fill:url(#s);stroke:url(#t);}.n{fill:url(#u);stroke:url(#v);}.o{fill:url(#w);stroke:url(#x);}.p{fill:url(#y);stroke:url(#z);}.q{fill:url(#aa);stroke:url(#ab);}.r{fill:url(#ac);stroke:url(#ad);}.s{fill:url(#ae);stroke:url(#af);}.t{fill:url(#ag);stroke:url(#ah);}.u{fill:url(#ai);stroke:url(#aj);}</style><radialGradient id="a" cx="635.558" cy="175.465" r="29.04" gradientTransform="matrix(0.988, 0.153, -0.458, 2.965, -275.946, -168.874)" gradientUnits="userSpaceOnUse"><stop offset="0.129" stop-color="#385d0c"/><stop offset="0.227" stop-color="#435c02"/><stop offset="0.407" stop-color="#214c0c"/><stop offset="0.615" stop-color="#617f21"/><stop offset="0.754" stop-color="#4a6002"/><stop offset="0.871" stop-color="#576802"/><stop offset="1" stop-color="#003f07"/></radialGradient><linearGradient id="b" x1="621.003" y1="175.465" x2="650.113" y2="175.465" gradientTransform="translate(930.575 473.987) rotate(166.787)" gradientUnits="userSpaceOnUse"><stop offset="0.124" stop-color="#276102"/><stop offset="0.202" stop-color="#003f0c"/><stop offset="0.363" stop-color="#003f0c"/><stop offset="0.637" stop-color="#306800"/><stop offset="0.995" stop-color="#003f07"/></linearGradient><radialGradient id="c" cx="611.179" cy="372.21" r="29.04" gradientTransform="matrix(0.984, -0.179, 0.538, 2.951, -652.972, -482.381)" xlink:href="#a"/><linearGradient id="d" x1="596.623" y1="372.21" x2="625.734" y2="372.21" gradientTransform="translate(864.162 493.994) rotate(147.662)" xlink:href="#b"/><radialGradient id="e" cx="579.159" cy="-43.55" r="29.04" gradientTransform="translate(535.866 -126.008) rotate(135.257) scale(1 3)" xlink:href="#a"/><linearGradient id="f" x1="564.604" y1="-43.55" x2="593.714" y2="-43.55" gradientTransform="translate(27.794 923.766) rotate(-66.743)" xlink:href="#b"/><radialGradient id="g" cx="544.276" cy="238.309" r="29.04" gradientTransform="matrix(0.449, 0.893, -2.68, 1.348, 649.765, -286.868)" xlink:href="#a"/><linearGradient id="h" x1="529.721" y1="238.309" x2="558.831" y2="238.309" gradientTransform="translate(507.369 1058.872) rotate(-138.706)" xlink:href="#b"/><radialGradient id="i" cx="411.674" cy="-138.976" r="29.04" gradientTransform="matrix(-0.981, -0.196, 0.589, -2.942, 662.462, 112.105)" xlink:href="#a"/><linearGradient id="j" x1="397.118" y1="-138.976" x2="426.229" y2="-138.976" gradientTransform="translate(-201.903 652.858) rotate(-10.672)" xlink:href="#b"/><radialGradient id="k" cx="731.62" cy="202.068" r="29.04" gradientTransform="translate(-116.03 -540.369) rotate(39.156) scale(1 3)" xlink:href="#a"/><linearGradient id="l" x1="717.065" y1="202.068" x2="746.175" y2="202.068" gradientTransform="translate(707.984 800.549) rotate(-162.844)" xlink:href="#b"/><radialGradient id="m" cx="333.209" cy="-19.206" r="29.04" gradientTransform="translate(400.244 580.117) rotate(-135.212) scale(1 3)" xlink:href="#a"/><linearGradient id="n" x1="318.653" y1="-19.206" x2="347.764" y2="-19.206" gradientTransform="translate(-191.469 274.914) rotate(22.788)" xlink:href="#b"/><radialGradient id="o" cx="242.319" cy="583.167" r="29.04" gradientTransform="matrix(0.986, 0.168, -0.505, 2.957, 342.469, -1471.573)" xlink:href="#a"/><linearGradient id="p" x1="227.764" y1="583.167" x2="256.875" y2="583.167" gradientTransform="translate(647.774 811.872) rotate(167.694)" xlink:href="#b"/><radialGradient id="q" cx="85.643" cy="643.99" r="29.04" gradientTransform="matrix(-0.048, -0.999, 2.997, -0.144, -1748.09, 242.724)" xlink:href="#a"/><linearGradient id="r" x1="71.088" y1="643.99" x2="100.198" y2="643.99" gradientTransform="translate(726.509 -282.986) rotate(65.248)" xlink:href="#b"/><radialGradient id="s" cx="259.966" cy="64.621" r="29.04" gradientTransform="matrix(0.26, -0.966, 2.897, 0.779, -52.004, 509.508)" xlink:href="#a"/><linearGradient id="t" x1="245.411" y1="64.621" x2="274.522" y2="64.621" gradientTransform="translate(235.385 42.912) rotate(83.048)" xlink:href="#b"/><radialGradient id="u" cx="136.51" cy="311.855" r="29.04" gradientTransform="matrix(0.956, -0.295, 0.884, 2.867, -283.871, -571.355)" xlink:href="#a"/><linearGradient id="v" x1="121.954" y1="311.855" x2="151.065" y2="311.855" gradientTransform="matrix(-0.776, 0.631, -0.631, -0.776, 425.13, 438.061)" xlink:href="#b"/><radialGradient id="w" cx="341.735" cy="570.738" r="29.04" gradientTransform="matrix(-0.043, -0.999, 2.997, -0.13, -1638.605, 696.645)" xlink:href="#a"/><linearGradient id="x" x1="327.179" y1="570.738" x2="356.29" y2="570.738" gradientTransform="translate(435.097 -266.263) rotate(65.523)" xlink:href="#b"/><radialGradient id="y" cx="670.55" cy="369.218" r="29.04" gradientTransform="matrix(0.758, 0.652, 1.956, -2.275, -1153.112, 566.285)" xlink:href="#a"/><linearGradient id="z" x1="655.995" y1="369.218" x2="685.106" y2="369.218" gradientTransform="matrix(-0.459, -0.889, -0.889, 0.459, 713.199, 590.099)" xlink:href="#b"/><radialGradient id="aa" cx="96.045" cy="538.572" r="29.04" gradientTransform="matrix(0.733, -0.681, 2.042, 2.198, -966.679, -922.196)" xlink:href="#a"/><linearGradient id="ab" x1="81.49" y1="538.572" x2="110.6" y2="538.572" gradientTransform="translate(732.06 337.392) rotate(115.097)" xlink:href="#b"/><radialGradient id="ac" cx="409.485" cy="671.155" r="29.04" gradientTransform="matrix(-0.548, -0.836, 2.509, -1.645, -1329.1, 1622.373)" xlink:href="#a"/><linearGradient id="ad" x1="394.93" y1="671.155" x2="424.04" y2="671.155" gradientTransform="translate(175.909 -609.176) rotate(34.739)" xlink:href="#b"/><radialGradient id="ae" cx="660.26" cy="488.988" r="29.04" gradientTransform="matrix(0.446, 0.895, -2.686, 1.337, 1211.259, -1131.775)" xlink:href="#a"/><linearGradient id="af" x1="645.705" y1="488.988" x2="674.816" y2="488.988" gradientTransform="translate(362.274 916.887) rotate(-138.465)" xlink:href="#b"/><radialGradient id="ag" cx="488.995" cy="735.468" r="29.04" gradientTransform="matrix(0.763, 0.646, -1.938, 2.29, 1312.105, -1936.685)" xlink:href="#a"/><linearGradient id="ah" x1="474.44" y1="735.468" x2="503.55" y2="735.468" gradientTransform="translate(494.473 915.069) rotate(-161.764)" xlink:href="#b"/><radialGradient id="ai" cx="-72.293" cy="398.861" r="29.04" gradientTransform="matrix(-0.148, -0.989, 2.967, -0.445, -925.151, 281.947)" xlink:href="#a"/><linearGradient id="aj" x1="-86.849" y1="398.861" x2="-57.738" y2="398.861" gradientTransform="translate(649.199 35.555) rotate(59.468)" xlink:href="#b"/></defs><title>peppersleft</title><g class="a"><path class="b" d="M300,14.965a285.076,285.076,0,0,1,110.935,547.6A285.075,285.075,0,0,1,189.065,37.361,283.22,283.22,0,0,1,300,14.965m0-1c-157.953,0-286,128.047-286,286s128.047,286,286,286,286-128.047,286-286-128.047-286-286-286Z" transform="translate(-14 -12.535)"/><line class="c" x1="286.477" x2="286.477" y2="570.093"/><line class="c" x1="571.047" y1="286.953" x2="0.953" y2="286.953"/></g><path class="d" d="M280.882,485.4c-6.421,4.416-10.291-6.378-17.272-15.332-1.868-2.4-3.417-7.215-5.06-16.26-2.553-14.053,1.008-24.07,2.422-26.741,5.324-10.055,11.637-19.636,14.218-18.848,3.383,1.033,2.807,1.413-2.284,14.195-6.359,15.97-5.308,20.637-3.755,28.905,1.476,7.853,1.231,9.619,3.667,15.618C277.68,478.908,283.909,483.317,280.882,485.4Z" transform="translate(-14 -12.535)"/><path class="e" d="M169.425,538.368c-4.62,6.276-11.813-2.654-21.342-8.826-2.55-1.652-5.593-5.7-10.108-13.705-7.016-12.441-6.934-23.072-6.473-26.059,1.736-11.245,4.561-22.365,7.258-22.466,3.535-.132,3.114.415,2.493,14.16-.776,17.172,1.746,21.237,5.923,28.54,3.967,6.936,4.314,8.684,8.581,13.554C164.273,533.285,171.6,535.41,169.425,538.368Z" transform="translate(-14 -12.535)"/><path class="f" d="M181.308,359.856c.266-7.788,11.246-4.485,22.6-4.776,3.038-.078,7.834,1.54,16.084,5.6,12.818,6.3,18.757,15.118,20.065,17.843,4.921,10.258,8.873,21.03,6.705,22.636-2.842,2.107-2.8,1.418-10.058-10.274-9.062-14.607-13.44-16.535-21.012-20.2-7.192-3.482-8.466-4.728-14.739-6.335C188.431,361.139,181.183,363.527,181.308,359.856Z" transform="translate(-14 -12.535)"/><path class="g" d="M230.919,549.55c-7.323-2.664-.782-12.082,2.455-22.964.866-2.913,3.89-6.972,10.3-13.561,9.959-10.238,20.183-13.155,23.179-13.554,11.277-1.5,22.744-1.926,23.6.633,1.123,3.354.48,3.105-12.883,6.382-16.7,4.1-19.884,7.66-25.714,13.725-5.538,5.761-7.117,6.587-10.587,12.054C234.344,543.175,234.371,550.806,230.919,549.55Z" transform="translate(-14 -12.535)"/><path class="h" d="M169.414,402.715c6.611-4.127,10,6.828,16.575,16.083,1.761,2.476,3.095,7.359,4.335,16.468,1.927,14.152-2.074,24-3.606,26.608-5.764,9.809-12.495,19.1-15.039,18.2-3.334-1.183-2.741-1.536,2.911-14.081,7.061-15.672,6.218-20.38,5.033-28.709-1.126-7.911-.8-9.664-2.971-15.766C172.325,409.341,166.3,404.66,169.414,402.715Z" transform="translate(-14 -12.535)"/><path class="i" d="M57.723,428.184c-7.772.564-5.655-10.706-7.151-21.96-.4-3.012.7-7.953,3.854-16.588,4.9-13.415,13.039-20.258,15.61-21.847,9.677-5.984,19.967-11.059,21.8-9.074,2.4,2.6,1.708,2.638-9.147,11.093-13.56,10.564-15.012,15.121-17.852,23.04-2.7,7.522-3.8,8.921-4.732,15.329C58.242,420.965,61.386,427.918,57.723,428.184Z" transform="translate(-14 -12.535)"/><path class="j" d="M137.5,350.987c7.79.2,4.576,11.209,4.961,22.556.1,3.037-1.476,7.846-5.464,16.129-6.2,12.869-14.964,18.88-17.679,20.21-10.217,5-20.956,9.045-22.581,6.891-2.129-2.825-1.44-2.793,10.192-10.142,14.532-9.182,16.425-13.575,20.028-21.177,3.422-7.221,4.658-8.5,6.214-14.79C136.273,358.12,133.826,350.892,137.5,350.987Z" transform="translate(-14 -12.535)"/><path class="k" d="M295.292,330.854c-6.49,4.314-10.189-6.54-17.027-15.6-1.83-2.425-3.3-7.268-4.8-16.338-2.329-14.092,1.389-24.051,2.846-26.7,5.482-9.969,11.946-19.449,14.514-18.62,3.366,1.087,2.784,1.456-2.508,14.157-6.612,15.868-5.634,20.55-4.212,28.842,1.351,7.875,1.078,9.637,3.419,15.674C292.193,324.314,298.351,328.821,295.292,330.854Z" transform="translate(-14 -12.535)"/><path class="l" d="M211.929,48.066c5.61,5.408-4.191,11.359-11.567,19.989-1.974,2.31-6.386,4.792-14.92,8.211-13.258,5.312-23.785,3.827-26.685,2.976-10.917-3.2-21.567-7.474-21.311-10.16.336-3.522.823-3.033,14.365-.6,16.92,3.036,21.282,1.073,29.072-2.1,7.4-3.017,9.178-3.13,14.569-6.717C206.21,52.5,209.284,45.517,211.929,48.066Z" transform="translate(-14 -12.535)"/><path class="m" d="M240.446,303.729c3.689,6.864-7.462,9.533-17.124,15.5-2.585,1.6-7.544,2.611-16.715,3.257-14.247,1-23.817-3.627-26.318-5.324-9.414-6.389-18.249-13.709-17.184-16.189,1.4-3.25,1.71-2.636,13.861,3.819,15.182,8.063,19.935,7.527,28.323,6.884,7.967-.61,9.7-.174,15.925-1.941C233.645,306.2,238.707,300.493,240.446,303.729Z" transform="translate(-14 -12.535)"/><path class="n" d="M146.778,311.627c-3.843,6.779-12.044-1.235-22.237-6.235-2.728-1.338-6.229-4.994-11.662-12.41-8.441-11.521-9.62-22.087-9.516-25.108.39-11.37,1.877-22.748,4.543-23.167,3.494-.55,3.142.043,4.154,13.764,1.265,17.144,4.251,20.88,9.264,27.637,4.762,6.417,5.313,8.111,10.128,12.441C141.06,307.19,148.59,308.431,146.778,311.627Z" transform="translate(-14 -12.535)"/><path class="o" d="M91.708,265.041c5.585,5.435-4.245,11.339-11.663,19.934-1.985,2.3-6.408,4.761-14.959,8.139-13.283,5.248-23.8,3.713-26.7,2.848-10.9-3.257-21.531-7.577-21.262-10.262.353-3.52.837-3.029,14.368-.534,16.905,3.118,21.276,1.175,29.081-1.963,7.414-2.981,9.193-3.086,14.6-6.647C85.968,269.449,89.075,262.479,91.708,265.041Z" transform="translate(-14 -12.535)"/><path class="p" d="M111.55,146.59c-.815-7.75-11.535-3.679-22.877-3.168-3.035.136-7.7,2.089-15.649,6.717-12.341,7.19-17.642,16.405-18.754,19.216-4.185,10.58-7.366,21.6-5.09,23.053,2.983,1.9,2.9,1.216,9.307-10.958,8.008-15.211,12.239-17.443,19.533-21.634,6.929-3.981,8.112-5.314,14.255-7.36C104.535,148.373,111.934,150.243,111.55,146.59Z" transform="translate(-14 -12.535)"/><path class="q" d="M238.27,211.674c-.515,7.775-11.384,4.121-22.737,4.048-3.039-.019-7.78-1.791-15.9-6.109-12.609-6.709-18.263-15.712-19.482-18.478-4.589-10.411-8.194-21.3-5.976-22.84,2.909-2.014,2.849-1.327,9.724,10.592,8.588,14.89,12.9,16.958,20.353,20.864,7.077,3.711,8.31,5,14.528,6.805C231.192,210.163,238.513,208.008,238.27,211.674Z" transform="translate(-14 -12.535)"/><path class="r" d="M151.272,144.14c7.58,1.811,2.156,11.914.183,23.1-.528,2.992-3.069,7.37-8.686,14.648-8.725,11.307-18.549,15.372-21.48,16.111-11.032,2.781-22.375,4.51-23.518,2.065-1.5-3.2-.831-3.03,12.071-7.811,16.118-5.974,18.879-9.88,23.979-16.571,4.843-6.355,6.318-7.356,9.141-13.183C148.6,150.865,147.7,143.287,151.272,144.14Z" transform="translate(-14 -12.535)"/><path class="s" d="M167.364,141.855c-7.312-2.694-.731-12.085,2.552-22.953.878-2.909,3.919-6.955,10.357-13.518,10-10.2,20.238-13.069,23.236-13.456,11.284-1.456,22.752-1.831,23.6.732,1.109,3.359.467,3.107-12.91,6.328-16.712,4.024-19.916,7.576-25.771,13.617-5.562,5.738-7.145,6.557-10.638,12.009C170.816,135.5,170.811,143.126,167.364,141.855Z" transform="translate(-14 -12.535)"/><path class="t" d="M248.709,99.824c-7.782.417-5.452-10.811-6.735-22.092-.344-3.018.848-7.938,4.166-16.511,5.154-13.321,13.419-20.009,16.019-21.55,9.788-5.8,20.172-10.68,21.963-8.661,2.346,2.647,1.657,2.67-9.355,10.919-13.758,10.306-15.3,14.835-18.284,22.7-2.839,7.47-3.968,8.848-5.02,15.237C249.364,92.616,252.377,99.627,248.709,99.824Z" transform="translate(-14 -12.535)"/><path class="u" d="M301.481,156.178c6.127,4.815-3.026,11.723-9.5,21.053-1.732,2.5-5.871,5.411-14.017,9.672-12.656,6.62-23.279,6.2-26.25,5.648-11.184-2.089-22.21-5.264-22.226-7.962-.02-3.538.513-3.1,14.232-2.046,17.139,1.317,21.281-1.076,28.712-5.02,7.058-3.747,8.816-4.038,13.818-8.15C296.238,161.167,298.593,153.908,301.481,156.178Z" transform="translate(-14 -12.535)"/></svg>