<svg xmlns="http://www.w3.org/2000/svg" xmlns:xlink="http://www.w3.org/1999/xlink" viewBox="0 0 577 560.256"><defs><style>.a{fill:url(#a);}.b{opacity:0.46;}.c{fill:#ae3c00;}.d{fill:url(#b);}.e{fill:url(#c);}.f{fill:url(#d);}.g{fill:url(#e);}.h{fill:url(#f);}.i{fill:url(#g);}.j{fill:url(#h);}.k{fill:url(#i);}.l{fill:url(#j);}.m{fill:url(#k);}.n{fill:url(#l);}.o{opacity:0;}</style><radialGradient id="a" cx="-278" cy="536" r="35" gradientTransform="translate(90 571) rotate(180)" gradientUnits="userSpaceOnUse"><stop offset="0.034" stop-color="#650000"/><stop offset="0.534" stop-color="#9f0000"/><stop offset="0.68" stop-color="#ae2302"/><stop offset="0.724" stop-color="#b32200"/><stop offset="0.893" stop-color="#650f0e"/></radialGradient><radialGradient id="b" cx="-237" cy="448" r="35" xlink:href="#a"/><radialGradient id="c" cx="-452" cy="336" r="35" xlink:href="#a"/><radialGradient id="d" cx="-353" cy="358" r="35" xlink:href="#a"/><radialGradient id="e" cx="-390" cy="456" r="35" xlink:href="#a"/><radialGradient id="f" cx="-254" cy="346" r="35" xlink:href="#a"/><radialGradient id="g" cx="-295.511" cy="529.663" r="35" gradientTransform="translate(-24.191 109.822) rotate(-96)" xlink:href="#a"/><radialGradient id="h" cx="-292.978" cy="436.582" r="35" gradientTransform="translate(-24.191 109.822) rotate(-96)" xlink:href="#a"/><radialGradient id="i" cx="-449.926" cy="306.423" r="35" gradientTransform="translate(-24.191 109.822) rotate(-96)" xlink:href="#a"/><radialGradient id="j" cx="-356.274" cy="338.143" r="35" gradientTransform="translate(-24.191 109.822) rotate(-96)" xlink:href="#a"/><radialGradient id="k" cx="-398" cy="448" r="35" gradientTransform="translate(-24.191 109.822) rotate(-96)" xlink:href="#a"/><radialGradient id="l" cx="-254" cy="345" r="35" gradientTransform="translate(-24.191 109.822) rotate(-96)" xlink:href="#a"/></defs><title>pepright</title><circle class="a" cx="368" cy="35" r="35"/><g class="b"><path class="c" d="M378,25a33,33,0,1,1-33,33,33.038,33.038,0,0,1,33-33m0-2a35,35,0,1,0,35,35,35,35,0,0,0-35-35Z" transform="translate(-10 -23)"/></g><circle class="d" cx="327" cy="123" r="35"/><g class="b"><path class="c" d="M337,113a33,33,0,1,1-33,33,33.038,33.038,0,0,1,33-33m0-2a35,35,0,1,0,35,35,35,35,0,0,0-35-35Z" transform="translate(-10 -23)"/></g><circle class="e" cx="542" cy="235" r="35"/><g class="b"><path class="c" d="M552,225a33,33,0,1,1-33,33,33.038,33.038,0,0,1,33-33m0-2a35,35,0,1,0,35,35,35,35,0,0,0-35-35Z" transform="translate(-10 -23)"/></g><circle class="f" cx="443" cy="213" r="35"/><g class="b"><path class="c" d="M453,203a33,33,0,1,1-33,33,33.038,33.038,0,0,1,33-33m0-2a35,35,0,1,0,35,35,35,35,0,0,0-35-35Z" transform="translate(-10 -23)"/></g><circle class="g" cx="480" cy="115" r="35"/><g class="b"><path class="c" d="M490,105a33,33,0,1,1-33,33,33.038,33.038,0,0,1,33-33m0-2a35,35,0,1,0,35,35,35,35,0,0,0-35-35Z" transform="translate(-10 -23)"/></g><circle class="h" cx="344" cy="225" r="35"/><g class="b"><path class="c" d="M354,215a33,33,0,1,1-33,33,33.038,33.038,0,0,1,33-33m0-2a35,35,0,1,0,35,35,35,35,0,0,0-35-35Z" transform="translate(-10 -23)"/></g><circle class="i" cx="533.46" cy="348.348" r="35"/><g class="b"><path class="c" d="M543.505,336.346v2h0a33,33,0,0,1,3.4,65.822,33.511,33.511,0,0,1-3.493.183,33,33,0,0,1-3.406-65.822,33.739,33.739,0,0,1,3.492-.183l0-2m0,0a35.576,35.576,0,0,0-3.7.194,35,35,0,0,0,3.615,69.811,35.6,35.6,0,0,0,3.7-.194,35,35,0,0,0-3.616-69.811Z" transform="translate(-10 -23)"/></g><circle class="j" cx="440.624" cy="355.559" r="35"/><g class="b"><path class="c" d="M450.669,343.557v2h0a33,33,0,0,1,3.405,65.822,33.768,33.768,0,0,1-3.492.183,33,33,0,0,1-3.407-65.822,33.463,33.463,0,0,1,3.492-.183l0-2m0,0a35.576,35.576,0,0,0-3.7.194,35,35,0,0,0,3.616,69.811,35.591,35.591,0,0,0,3.7-.194,35,35,0,0,0-3.616-69.811Z" transform="translate(-10 -23)"/></g><circle class="k" cx="327.584" cy="525.253" r="35"/><g class="b"><path class="c" d="M337.628,513.25v2h0a33,33,0,0,1,3.4,65.822,33.493,33.493,0,0,1-3.492.184,33,33,0,0,1-3.406-65.823,33.739,33.739,0,0,1,3.492-.183v-2m0,0a35.6,35.6,0,0,0-3.7.194,34.977,34.977,0,1,0,3.7-.194Z" transform="translate(-10 -23)"/></g><circle class="l" cx="349.341" cy="428.798" r="35"/><g class="b"><path class="c" d="M359.385,416.8v2h0a33,33,0,0,1,3.405,65.822,33.493,33.493,0,0,1-3.492.184,33,33,0,0,1-3.407-65.822,33.493,33.493,0,0,1,3.492-.184l0-2m0,0a35,35,0,1,0,34.766,31.345A35.32,35.32,0,0,0,359.383,416.8Z" transform="translate(-10 -23)"/></g><circle class="m" cx="462.958" cy="458.812" r="35"/><g class="b"><path class="c" d="M473,446.81v2h0a33,33,0,0,1,3.4,65.822,33.492,33.492,0,0,1-3.492.183,33,33,0,0,1-3.407-65.822A33.492,33.492,0,0,1,473,448.81l0-2m0,0a35.591,35.591,0,0,0-3.7.194,35,35,0,0,0,3.616,69.811,35.591,35.591,0,0,0,3.7-.194A35,35,0,0,0,473,446.81Z" transform="translate(-10 -23)"/></g><circle class="n" cx="345.47" cy="326.368" r="35"/><g class="b"><path class="c" d="M355.514,314.365v2h0a33,33,0,0,1,3.4,65.822,33.493,33.493,0,0,1-3.492.184,33,33,0,0,1-3.407-65.822,33.493,33.493,0,0,1,3.492-.184l0-2m0,0a35.591,35.591,0,0,0-3.7.194,34.977,34.977,0,1,0,3.7-.194Z" transform="translate(-10 -23)"/></g><circle class="o" cx="35" cy="312" r="35"/></svg>