<svg xmlns="http://www.w3.org/2000/svg" xmlns:xlink="http://www.w3.org/1999/xlink" viewBox="0 0 568.173 511.991"><defs><style>.b{opacity:.22}</style><radialGradient id="a" cx="38.83" cy="226.77" r="20.958" gradientTransform="matrix(-.072 .997 -1.736 -.125 946.221 306.835)" gradientUnits="userSpaceOnUse"><stop offset=".256" stop-color="#930"/><stop offset=".488" stop-color="#aa3d00"/><stop offset=".863" stop-color="#650f0e"/><stop offset="1" stop-color="#7f2300"/></radialGradient><radialGradient id="b" cx="549.819" cy="317.233" r="20.896" gradientTransform="rotate(-171.895 555.437 237.925) scale(1 .5)" gradientUnits="userSpaceOnUse"><stop offset=".034" stop-color="#650000"/><stop offset=".241" stop-color="#8b2a00"/><stop offset=".246" stop-color="#7f2300"/><stop offset=".605" stop-color="#aa3d00"/><stop offset=".744" stop-color="#930"/><stop offset="1" stop-color="#650f0e"/></radialGradient><radialGradient id="c" cx="176.273" cy="143.152" r="20.958" gradientTransform="matrix(.283 .959 -1.669 .493 609.863 69.739)" xlink:href="#a"/><radialGradient id="d" cx="421.204" cy="309.41" r="21.194" gradientTransform="rotate(167.554 412.77 232.058) scale(1 .5)" xlink:href="#b"/><radialGradient id="e" cx="-58.442" cy="138.284" r="20.958" gradientTransform="rotate(126.739 178.4 482.454) scale(1 1.74)" xlink:href="#a"/><radialGradient id="f" cx="514.077" cy="437.832" r="21.437" gradientTransform="rotate(-139.261 554.717 328.374) scale(1 .5)" xlink:href="#b"/><radialGradient id="g" cx="104.48" cy="39.578" r="20.958" gradientTransform="matrix(.4061 .91383 -1.59006 .70661 460.376 313.875)" xlink:href="#a"/><radialGradient id="h" cx="440.358" cy="437.42" r="21.287" gradientTransform="rotate(160.04 421.115 328.064) scale(1 .5)" xlink:href="#b"/><radialGradient id="i" cx="21.13" cy="-38.517" r="20.958" gradientTransform="matrix(.005 1 -1.74 .009 346.752 516.518)" xlink:href="#a"/><radialGradient id="j" cx="413.839" cy="537.274" r="20.915" gradientTransform="rotate(-176.281 418.2 402.955) scale(1 .5)" xlink:href="#b"/><radialGradient id="k" cx="180.242" cy="313.525" r="20.958" gradientTransform="matrix(.97 .243 -.423 1.688 482.298 -377.838)" xlink:href="#a"/><radialGradient id="l" cx="524.772" cy="195.171" r="21.035" gradientTransform="rotate(108.054 489.358 146.379) scale(1 .5)" xlink:href="#b"/><radialGradient id="m" cx="359.811" cy="295.427" r="20.958" gradientTransform="matrix(.99 -.143 .248 1.722 -33.525 -228.198)" xlink:href="#a"/><radialGradient id="n" cx="395.891" cy="229.216" r="21.044" gradientTransform="rotate(85.806 334.233 171.913) scale(1 .5)" xlink:href="#b"/><radialGradient id="o" cx="220.002" cy="272.091" r="20.958" gradientTransform="matrix(-.238 .971 -1.69 -.414 933.081 64.386)" xlink:href="#a"/><radialGradient id="p" cx="420.836" cy="165.419" r="21.032" gradientTransform="matrix(-.952 -.305 .153 -.476 796.328 372.661)" xlink:href="#b"/><radialGradient id="q" cx="259.222" cy="325.282" r="20.958" gradientTransform="matrix(-.058 .998 -1.737 -.1 1017.853 -135.879)" xlink:href="#a"/><radialGradient id="r" cx="437.821" cy="90.21" r="20.885" gradientTransform="rotate(-172.699 439.26 67.66) scale(1 .5)" xlink:href="#b"/><radialGradient id="s" cx="228.759" cy="77.659" r="20.958" gradientTransform="matrix(.052 .999 -1.738 .09 469.992 165.879)" xlink:href="#a"/><radialGradient id="t" cx="346.862" cy="401.309" r="20.945" gradientTransform="rotate(-178.964 347.769 300.983) scale(1 .5)" xlink:href="#b"/><radialGradient id="u" cx="290.642" cy="396.023" r="20.958" gradientTransform="matrix(-.995 -.104 .18 -1.731 545.587 781.794)" xlink:href="#a"/><radialGradient id="v" cx="327.909" cy="66.261" r="20.921" gradientTransform="rotate(-80.055 347.633 49.695) scale(1 .5)" xlink:href="#b"/><radialGradient id="w" cx="169.826" cy="109.985" r="20.958" gradientTransform="matrix(-.878 .48 -.834 -1.527 564.667 386.825)" xlink:href="#a"/><radialGradient id="x" cx="323.843" cy="300.866" r="21.334" gradientTransform="rotate(-114.653 372.081 225.65) scale(1 .5)" xlink:href="#b"/><radialGradient id="y" cx="274.752" cy="166.051" r="20.958" gradientTransform="matrix(-.636 .772 -1.343 -1.106 715.565 170.866)" xlink:href="#a"/><radialGradient id="z" cx="318.109" cy="199.854" r="21.45" gradientTransform="rotate(-136.533 338.025 149.891) scale(1 .5)" xlink:href="#b"/><radialGradient id="aa" cx="183.855" cy="74.607" r="20.958" gradientTransform="matrix(.258 -.966 1.681 .448 174.078 646.528)" xlink:href="#a"/><radialGradient id="ab" cx="346.905" cy="502.205" r="21.047" gradientTransform="rotate(18.927 -406.3 376.66) scale(1 .5)" xlink:href="#b"/><radialGradient id="ac" cx="19.951" cy="277.36" r="20.958" gradientTransform="rotate(168.064 263.574 419.473) scale(1 1.74)" xlink:href="#a"/><radialGradient id="ad" cx="488.825" cy="307.529" r="21.12" gradientTransform="rotate(-97.936 555.732 230.647) scale(1 .5)" xlink:href="#b"/><radialGradient id="ae" cx="392.025" cy="-83.418" r="20.958" gradientTransform="rotate(126.739 95.507 -8.212) scale(1 1.74)" xlink:href="#a"/><radialGradient id="af" cx="28.077" cy="311.832" r="21.437" gradientTransform="rotate(-139.261 57.021 233.873) scale(1 .5)" xlink:href="#b"/></defs><path d="M525.576 314.218c1.071-5.524 4.607-9.726 10.743-11.6 3.661-1.507 10.7-2.818 19.374-1.281 3.755.666 9.618 3.39 14.145 7.065 1.488 1.208 5.336 5.092 4.248 12.726-.759 5.331-1.345 7.355-6.5 10.185-.054.03-2.061.691-2.121.708-8.66 2.4-9.333 1.7-16.4 1.7-7.179 0-13.095-2.341-17.256-6.5-2.243-2.231-7.582-6.048-6.233-13.003z" transform="translate(-6.104 -41.842)" fill="url(#a)"/><path d="M548.006 300.648v2a42.181 42.181 0 0 1 7.338.657c3.206.569 8.782 3.035 13.234 6.649 1.369 1.111 4.453 4.4 3.528 10.891-.691 4.854-1.056 6.259-5.348 8.639-.405.139-1.634.545-1.86.618-5.262 1.458-7.392 1.715-9.915 1.715-.676 0-1.381-.017-2.171-.037-1.048-.026-2.235-.056-3.705-.056h-.061c-6.484 0-11.957-2.044-15.828-5.912-.289-.288-.625-.6-.992-.942-2.389-2.218-5.659-5.255-4.687-10.271s4.21-8.5 9.364-10.069l.09-.028.087-.035a29.262 29.262 0 0 1 10.925-1.819v-2m0 0a31.879 31.879 0 0 0-11.686 1.969c-6.136 1.875-9.672 6.077-10.743 11.6-1.349 6.955 3.99 10.772 6.228 13.008 4.158 4.155 10.068 6.5 17.242 6.5h.061c2.575 0 4.3.093 5.876.093 2.724 0 5.008-.278 10.481-1.8.06-.017 2.067-.678 2.121-.708 5.156-2.83 5.742-4.854 6.5-10.185 1.088-7.634-2.76-11.518-4.248-12.726-4.527-3.675-10.39-6.4-14.145-7.065a44.052 44.052 0 0 0-7.688-.688z" transform="translate(-6.104 -41.842)" fill="url(#b)"/><path d="M397.034 314.945c-.937-5.549.9-10.725 5.987-14.634 2.9-2.7 9.031-6.4 17.691-8 3.75-.695 10.2-.2 15.725 1.65 1.818.609 6.783 2.9 8.445 10.425 1.161 5.258 1.323 7.359-2.511 11.819a124.13 124.13 0 0 1-1.738 1.408c-7.266 5.29-8.142 4.869-14.762 7.354-6.722 2.523-13.084 2.4-18.439-.027-2.88-1.309-9.219-3.009-10.398-9.995z" transform="translate(-6.104 -41.842)" fill="url(#c)"/><path d="M424.516 294.009a37.581 37.581 0 0 1 11.286 1.847c1.672.56 5.714 2.555 7.127 8.96 1.057 4.788 1.208 6.232-1.975 9.967-.33.272-1.338 1.083-1.525 1.231-5.5 4-7.03 4.532-10.727 5.814-1 .347-2.137.741-3.534 1.265a25.339 25.339 0 0 1-8.893 1.718 19.253 19.253 0 0 1-8.016-1.693c-.371-.168-.8-.344-1.259-.534-3.015-1.238-7.144-2.933-7.994-7.972s.96-9.431 5.233-12.715l.075-.057.069-.064c2.859-2.66 8.746-6.026 16.694-7.5a19.5 19.5 0 0 1 3.439-.268m0-2a21.364 21.364 0 0 0-3.8.3c-8.66 1.605-14.792 5.3-17.691 8-5.088 3.909-6.924 9.085-5.987 14.634 1.179 6.986 7.518 8.686 10.4 9.994a21.235 21.235 0 0 0 8.843 1.872 27.313 27.313 0 0 0 9.6-1.845c6.62-2.485 7.5-2.064 14.762-7.354.05-.037 1.7-1.361 1.738-1.408 3.834-4.46 3.672-6.561 2.511-11.819-1.662-7.53-6.627-9.816-8.445-10.425a39.324 39.324 0 0 0-11.921-1.951z" transform="translate(-6.104 -41.842)" fill="url(#d)"/><path d="M495.083 421.605c3.882-4.075 9.125-5.707 15.3-3.977 3.9.705 10.532 3.4 17.006 9.369 2.8 2.586 6.272 8.042 8.1 13.578.6 1.82 1.748 7.165-3.285 13.008-3.514 4.08-5.1 5.468-10.967 5.071-.062 0-2.109-.529-2.168-.547-8.59-2.647-8.777-3.6-14.734-7.411-6.048-3.869-9.766-9.034-11.028-14.778-.672-3.09-3.107-9.184 1.776-14.313z" transform="translate(-6.104 -41.842)" fill="url(#e)"/><path d="M505.645 418.944a15.635 15.635 0 0 1 4.2.61l.091.025.092.017c3.843.7 10.065 3.391 16.007 8.871 2.394 2.208 5.759 7.292 7.559 12.736.554 1.674 1.38 6.105-2.9 11.075-3.1 3.6-4.182 4.441-7.69 4.441-.451 0-.935-.016-1.473-.05-.416-.1-1.669-.422-1.9-.483-6.5-2-7.841-2.913-11.082-5.1-.879-.594-1.874-1.267-3.131-2.071-5.466-3.5-8.977-8.173-10.152-13.522-.088-.4-.2-.844-.327-1.329-.816-3.155-1.933-7.476 1.592-11.176a12.223 12.223 0 0 1 9.113-4.04m0-2a14.257 14.257 0 0 0-10.562 4.661c-4.886 5.129-2.448 11.223-1.77 14.313 1.263 5.744 4.98 10.909 11.028 14.778 5.957 3.81 6.144 4.764 14.734 7.411.059.018 2.106.543 2.168.547.635.043 1.219.065 1.762.065 4.471 0 6.071-1.5 9.205-5.136 5.033-5.843 3.887-11.188 3.285-13.008-1.83-5.536-5.3-10.992-8.1-13.578-6.474-5.971-13.11-8.664-17.006-9.369a17.579 17.579 0 0 0-4.742-.684z" transform="translate(-6.104 -41.842)" fill="url(#f)"/><path d="M416.974 446.015c-1.654-5.379-.511-10.751 4.022-15.292 2.522-3.053 8.117-7.522 16.493-10.246 3.627-1.179 10.082-1.533 15.806-.42 1.882.365 7.1 1.982 9.736 9.231 1.838 5.061 2.273 7.123-.945 12.046-.033.051-1.493 1.579-1.538 1.622-6.512 6.2-7.435 5.892-13.673 9.222-6.334 3.381-12.658 4.1-18.285 2.385-3.027-.92-9.533-1.777-11.616-8.548z" transform="translate(-6.104 -41.842)" fill="url(#g)"/><path d="M446.005 421.383a36.783 36.783 0 0 1 6.908.637c1.731.336 6 1.785 8.238 7.95 1.674 4.609 2.013 6.02-.655 10.14-.291.313-1.185 1.249-1.35 1.42-4.927 4.685-6.378 5.413-9.875 7.167-.948.475-2.022 1.014-3.338 1.716a23.9 23.9 0 0 1-11.268 3.044 18.876 18.876 0 0 1-5.493-.808c-.39-.118-.834-.236-1.318-.364-3.151-.833-7.466-1.974-8.968-6.858s-.282-9.477 3.526-13.291l.066-.067.06-.072c2.487-3.011 7.883-7.118 15.57-9.618a27.354 27.354 0 0 1 7.9-1m0-2a29.261 29.261 0 0 0-8.516 1.094c-8.376 2.724-13.971 7.193-16.493 10.246-4.533 4.541-5.676 9.913-4.022 15.292 2.083 6.771 8.589 7.628 11.616 8.548a20.821 20.821 0 0 0 6.075.894 25.947 25.947 0 0 0 12.21-3.279c6.238-3.33 7.161-3.026 13.673-9.222.045-.043 1.5-1.571 1.538-1.622 3.218-4.923 2.783-6.985.945-12.046-2.632-7.249-7.854-8.866-9.736-9.231a38.7 38.7 0 0 0-7.29-.674z" transform="translate(-6.104 -41.842)" fill="url(#h)"/><path d="M389.41 536.086c.645-5.59 3.849-10.051 9.824-12.389 3.536-1.783 10.455-3.629 19.219-2.759 3.8.376 9.85 2.644 14.645 5.962 1.576 1.091 5.709 4.669 5.209 12.364-.35 5.373-.779 7.436-5.7 10.652-.052.034-2 .847-2.061.869-8.452 3.058-9.176 2.41-16.226 2.953-7.158.553-13.236-1.332-17.7-5.159-2.408-2.058-8.02-5.456-7.21-12.493z" transform="translate(-6.104 -41.842)" fill="url(#i)"/><path d="M414.007 522.716c1.4 0 2.83.071 4.249.212 3.241.321 8.989 2.354 13.7 5.617 1.45 1 4.776 4.043 4.351 10.589-.318 4.893-.574 6.321-4.672 9.023-.393.17-1.586.668-1.807.758-6.394 2.312-8.014 2.4-11.922 2.6-1.059.055-2.259.117-3.746.231-.763.059-1.525.089-2.265.089a21.1 21.1 0 0 1-13.983-4.772c-.31-.266-.669-.552-1.061-.864-2.551-2.028-6.044-4.806-5.458-9.882s3.547-8.791 8.566-10.756l.088-.034.084-.042c1.287-.649 6.091-2.767 13.872-2.767m0-2a34.207 34.207 0 0 0-14.773 2.981c-5.975 2.338-9.179 6.8-9.824 12.389-.813 7.037 4.8 10.435 7.2 12.493a22.984 22.984 0 0 0 15.284 5.254q1.187 0 2.418-.095c7.05-.543 7.774.1 16.226-2.953.059-.022 2.009-.835 2.061-.869 4.924-3.216 5.353-5.279 5.7-10.652.5-7.7-3.633-11.273-5.209-12.364-4.8-3.318-10.85-5.586-14.645-5.962a45.025 45.025 0 0 0-4.446-.222z" transform="translate(-6.104 -41.842)" fill="url(#j)"/><path d="M517.418 218.532c-5.257-2.01-8.785-6.218-9.571-12.586-.852-3.867-.927-11.028 2.085-19.3 1.305-3.584 5-8.888 9.4-12.712 1.447-1.257 5.937-4.375 13.268-1.986 5.12 1.669 7.012 2.6 8.909 8.163.02.059.325 2.15.331 2.212.871 8.945.063 9.486-1.155 16.452-1.238 7.072-4.569 12.494-9.382 15.874-2.586 1.814-7.268 6.413-13.885 3.883z" transform="translate(-6.104 -41.842)" fill="url(#k)"/><path d="M527.407 173.068a14.839 14.839 0 0 1 4.577.778c4.662 1.52 5.982 2.121 7.585 6.76.067.423.254 1.7.287 1.939.657 6.767.337 8.358-.435 12.194-.209 1.039-.446 2.217-.7 3.687-1.118 6.392-4.078 11.435-8.56 14.582-.334.234-.7.512-1.1.814-1.922 1.457-4.553 3.452-7.776 3.452a8.824 8.824 0 0 1-3.15-.61c-4.77-1.824-7.64-5.614-8.3-10.963l-.012-.093-.02-.092c-.84-3.814-.753-10.594 2.012-18.19 1.113-3.06 4.506-8.126 8.834-11.886a10.177 10.177 0 0 1 6.761-2.372m0-2a12.234 12.234 0 0 0-8.071 2.862c-4.4 3.824-8.1 9.128-9.4 12.712-3.012 8.276-2.937 15.437-2.085 19.3.786 6.368 4.314 10.576 9.571 12.586a10.75 10.75 0 0 0 3.864.742c4.6 0 7.972-3.188 10.024-4.629 4.813-3.38 8.144-8.8 9.382-15.874 1.218-6.966 2.026-7.507 1.155-16.452-.006-.062-.311-2.153-.331-2.212-1.9-5.567-3.789-6.494-8.909-8.163a16.726 16.726 0 0 0-5.2-.876z" transform="translate(-6.104 -41.842)" fill="url(#l)"/><path d="M398.021 253.719c-5.626.13-10.485-2.429-13.624-8.025-2.253-3.257-5.033-9.856-5.379-18.657-.149-3.811 1.264-10.119 3.89-15.325.864-1.712 3.839-6.3 11.529-6.862 5.371-.394 7.473-.252 11.336 4.182.041.047 1.115 1.867 1.144 1.922 4.193 7.95 3.65 8.756 5.159 15.665 1.533 7.014.5 13.293-2.673 18.244-1.703 2.663-4.303 8.692-11.382 8.856z" transform="translate(-6.104 -41.842)" fill="url(#m)"/><path d="M397.451 206.708c2.656 0 4.087.535 6.713 3.522.222.366.88 1.48 1 1.686 3.171 6.014 3.476 7.608 4.214 11.451.2 1.041.427 2.221.745 3.678 1.386 6.34.555 12.128-2.4 16.738-.22.343-.454.739-.709 1.17-1.658 2.806-3.928 6.648-9.037 6.766h-.36c-4.934 0-8.9-2.424-11.472-7.009l-.046-.082-.054-.077c-2.221-3.211-4.708-9.52-5.025-17.6-.128-3.255 1.094-9.227 3.677-14.347.794-1.574 3.348-5.288 9.89-5.767.971-.071 1.99-.137 2.867-.137m0-2c-.89 0-1.879.059-3.013.142-7.69.564-10.665 5.15-11.529 6.862-2.626 5.206-4.039 11.514-3.89 15.325.346 8.8 3.126 15.4 5.379 18.657 3.063 5.46 7.764 8.03 13.217 8.03h.407c7.082-.164 9.674-6.193 11.382-8.856 3.176-4.951 4.206-11.23 2.673-18.244-1.509-6.909-.966-7.715-5.159-15.665-.029-.055-1.1-1.875-1.144-1.922-3.047-3.5-5-4.324-8.323-4.324z" transform="translate(-6.104 -41.842)" fill="url(#n)"/><path d="M397.442 158.181c1.984-5.267 6.175-8.815 12.539-9.632 3.863-.871 11.023-.981 19.314 1.992 3.59 1.287 8.912 4.957 12.757 9.34 1.265 1.441 4.4 5.916 2.05 13.259-1.644 5.128-2.561 7.025-8.119 8.949-.059.02-2.148.335-2.21.341-8.941.914-9.486.109-16.457-1.076-7.078-1.2-12.517-4.507-15.92-9.3-1.83-2.584-6.452-7.244-3.954-13.873z" transform="translate(-6.104 -41.842)" fill="url(#o)"/><path d="M415.458 150.012a39.34 39.34 0 0 1 13.162 2.411c3.066 1.1 8.148 4.467 11.929 8.777 1.163 1.326 3.652 5.083 1.649 11.33-1.5 4.669-2.093 5.992-6.724 7.618-.422.069-1.7.262-1.937.3-2.548.26-4.444.381-5.963.381a28.356 28.356 0 0 1-6.233-.757c-1.04-.2-2.219-.435-3.69-.685-6.4-1.088-11.455-4.023-14.624-8.49-.235-.333-.515-.7-.819-1.095-1.982-2.588-4.7-6.131-2.9-10.912s5.578-7.667 10.923-8.353l.093-.012.092-.021a23.138 23.138 0 0 1 5.037-.488m0-2a25.386 25.386 0 0 0-5.476.537c-6.364.817-10.555 4.365-12.539 9.632-2.5 6.629 2.124 11.289 3.954 13.869 3.4 4.8 8.841 8.1 15.92 9.3 4.871.829 6.6 1.471 10.258 1.471a61.817 61.817 0 0 0 6.2-.395c.062-.006 2.151-.321 2.21-.341 5.558-1.924 6.475-3.821 8.119-8.949 2.355-7.343-.785-11.818-2.05-13.259-3.845-4.383-9.167-8.053-12.757-9.34a41.43 41.43 0 0 0-13.838-2.529z" transform="translate(-6.104 -41.842)" fill="url(#p)"/><path d="M413.535 87.559c.993-5.539 4.47-9.79 10.579-11.75 3.64-1.559 10.661-2.969 19.354-1.553 3.764.613 9.665 3.255 14.243 6.866 1.5 1.187 5.406 5.016 4.426 12.665-.684 5.341-1.242 7.373-6.357 10.275-.054.031-2.051.721-2.111.738-8.626 2.524-9.308 1.832-16.379 1.934-7.179.1-13.127-2.157-17.345-6.255-2.269-2.205-7.661-5.946-6.41-12.92z" transform="translate(-6.104 -41.842)" fill="url(#q)"/><path d="M436.359 73.672v2a42.412 42.412 0 0 1 6.788.558c3.214.523 8.824 2.911 13.326 6.462 1.384 1.092 4.514 4.334 3.681 10.841-.624 4.863-.969 6.273-5.227 8.713-.4.145-1.626.568-1.851.644-5.73 1.675-7.7 1.859-10.552 1.859-.475 0-.973-.006-1.509-.012-.644-.007-1.344-.014-2.128-.014-.5 0-1.044 0-1.625.011h-.444c-6.293 0-11.646-1.969-15.48-5.694-.292-.284-.633-.592-1-.928-2.419-2.183-5.732-5.174-4.83-10.2s4.091-8.553 9.222-10.2l.09-.029.086-.037a29.656 29.656 0 0 1 11.457-1.975v-2m0 0a32.325 32.325 0 0 0-12.244 2.137c-6.109 1.96-9.586 6.212-10.579 11.75-1.251 6.974 4.141 10.715 6.41 12.92 4.125 4.008 9.905 6.259 16.873 6.259h.472c.572-.008 1.1-.011 1.6-.011 1.439 0 2.589.026 3.637.026 3.057 0 5.24-.221 11.145-1.949.06-.017 2.057-.707 2.111-.738 5.115-2.9 5.673-4.934 6.357-10.275.98-7.649-2.921-11.478-4.426-12.665-4.578-3.611-10.479-6.253-14.243-6.866a44.292 44.292 0 0 0-7.11-.584z" transform="translate(-6.104 -41.842)" fill="url(#r)"/><path d="M322.379 401.232c.383-5.614 3.375-10.22 9.234-12.835 3.448-1.947 10.273-4.114 19.069-3.656 3.808.2 9.962 2.181 14.907 5.271 1.626 1.016 5.921 4.4 5.782 12.106-.1 5.384-.43 7.465-5.2 10.908-.05.036-1.961.94-2.018.964-8.3 3.451-9.053 2.836-16.07 3.71-7.124.886-13.284-.712-17.924-4.325-2.495-1.944-8.259-5.075-7.78-12.143z" transform="translate(-6.104 -41.842)" fill="url(#s)"/><path d="M348.309 386.679c.75 0 1.513.02 2.269.06 3.252.169 9.089 1.93 13.951 4.969 1.5.934 4.961 3.816 4.842 10.374-.088 4.9-.278 6.342-4.244 9.232-.385.188-1.554.742-1.77.842-6.278 2.608-7.893 2.768-11.787 3.152-1.055.105-2.251.223-3.732.407a28.759 28.759 0 0 1-3.534.225 20.755 20.755 0 0 1-12.915-4.143c-.321-.251-.694-.52-1.1-.813-2.643-1.907-6.263-4.518-5.915-9.616s3.133-8.948 8.054-11.145l.086-.038.082-.046c2.962-1.673 8.646-3.46 15.713-3.46m0-2c-7.648 0-13.565 1.95-16.7 3.718-5.859 2.615-8.851 7.221-9.234 12.835-.482 7.068 5.285 10.2 7.782 12.143a22.6 22.6 0 0 0 14.143 4.565 30.6 30.6 0 0 0 3.781-.24c7.017-.874 7.771-.259 16.07-3.71a120.42 120.42 0 0 0 2.018-.964c4.768-3.443 5.1-5.524 5.2-10.908.139-7.71-4.156-11.09-5.782-12.106-4.945-3.09-11.1-5.072-14.907-5.271q-1.212-.063-2.373-.062z" transform="translate(-6.104 -41.842)" fill="url(#t)"/><path d="M331.752 42.132c5.487 1.248 9.574 4.917 11.25 11.11 1.39 3.708 2.474 10.787.659 19.406-.786 3.731-3.7 9.5-7.515 13.911-1.255 1.448-5.261 5.169-12.856 3.837-5.3-.93-7.308-1.58-9.971-6.824-.028-.056-.625-2.083-.64-2.143-2.124-8.733-1.4-9.383-1.177-16.45.228-7.176 2.76-13.014 7.049-17.039 2.306-2.165 6.293-7.378 13.201-5.808z" transform="translate(-6.104 -41.842)" fill="url(#u)"/><path d="M329.249 43.842a9.29 9.29 0 0 1 2.059.241c4.979 1.132 8.356 4.48 9.764 9.682l.024.091.034.088c1.369 3.656 2.24 10.382.574 18.291-.671 3.187-3.315 8.681-7.07 13.014a10.625 10.625 0 0 1-8.213 3.43 16.2 16.2 0 0 1-2.786-.253c-4.829-.846-6.221-1.256-8.463-5.623-.126-.409-.492-1.649-.557-1.878-1.605-6.606-1.513-8.227-1.29-12.134.061-1.058.129-2.258.176-3.749.206-6.486 2.425-11.9 6.418-15.644.3-.278.621-.605.973-.96 1.92-1.94 4.55-4.6 8.357-4.6m0-2c-5.393 0-8.685 4.209-10.7 6.1-4.289 4.025-6.821 9.863-7.049 17.039-.224 7.067-.947 7.717 1.177 16.45.015.06.612 2.087.64 2.143 2.663 5.244 4.667 5.894 9.971 6.824a18.072 18.072 0 0 0 3.131.283 12.57 12.57 0 0 0 9.725-4.12c3.818-4.407 6.729-10.18 7.515-13.911 1.815-8.619.731-15.7-.659-19.406-1.676-6.193-5.763-9.862-11.25-11.11a11.29 11.29 0 0 0-2.5-.29z" transform="translate(-6.104 -41.842)" fill="url(#v)"/><path d="M313.333 278.207c5.226-2.088 10.673-1.389 15.569 2.757 3.249 2.264 8.161 7.475 11.561 15.6 1.472 3.518 2.354 9.923 1.713 15.718-.211 1.906-1.395 7.243-8.4 10.459-4.894 2.246-6.913 2.848-12.083.044-.054-.029-1.7-1.359-1.743-1.4-6.707-5.983-6.481-6.929-10.309-12.874-3.888-6.036-5.118-12.279-3.873-18.027.665-3.092.987-9.647 7.565-12.277z" transform="translate(-6.104 -41.842)" fill="url(#w)"/><path d="M319.016 279.066a13.164 13.164 0 0 1 8.594 3.425l.072.061.077.053c3.2 2.233 7.739 7.275 10.859 14.731 1.257 3 2.2 9.028 1.57 14.727-.194 1.752-1.289 6.124-7.25 8.86-2.571 1.18-4.04 1.742-5.439 1.742a10.263 10.263 0 0 1-4.721-1.565 173.884 173.884 0 0 1-1.525-1.23c-5.073-4.526-5.916-5.913-7.951-9.255a138.224 138.224 0 0 0-1.984-3.187c-3.514-5.455-4.758-11.168-3.6-16.521.086-.4.167-.851.255-1.344.573-3.208 1.357-7.6 6.1-9.5a13.321 13.321 0 0 1 4.94-1m0-2a15.3 15.3 0 0 0-5.683 1.141c-6.578 2.63-6.9 9.185-7.569 12.277-1.245 5.748-.015 11.991 3.873 18.027 3.828 5.945 3.6 6.891 10.309 12.874.046.041 1.689 1.371 1.743 1.4a12.208 12.208 0 0 0 5.81 1.88c1.882 0 3.671-.73 6.273-1.924 7.009-3.216 8.193-8.553 8.4-10.459.641-5.795-.241-12.2-1.713-15.718-3.4-8.125-8.312-13.336-11.561-15.6a15.134 15.134 0 0 0-9.886-3.9z" transform="translate(-6.104 -41.842)" fill="url(#x)"/><path d="M299.853 182.728c4.07-3.885 9.386-5.266 15.475-3.243 3.858.889 10.358 3.895 16.541 10.167 2.677 2.716 5.882 8.331 7.447 13.948.514 1.847 1.4 7.241-3.9 12.837-3.7 3.908-5.354 5.22-11.2 4.544-.062-.007-2.081-.629-2.139-.65-8.454-3.053-8.6-4.014-14.365-8.1-5.856-4.153-9.324-9.488-10.312-15.286-.528-3.123-2.672-9.326 2.453-14.217z" transform="translate(-6.104 -41.842)" fill="url(#y)"/><path d="M309.906 180.558a15.217 15.217 0 0 1 4.791.825l.09.029.091.021c3.805.878 9.892 3.867 15.567 9.623 2.286 2.32 5.405 7.558 6.944 13.081.474 1.7 1.087 6.164-3.425 10.924-2.929 3.09-4.131 4.089-7.156 4.089a19.994 19.994 0 0 1-2.206-.139c-.411-.121-1.647-.5-1.874-.573-6.394-2.31-7.694-3.282-10.827-5.625a139.378 139.378 0 0 0-3.029-2.218c-5.294-3.753-8.578-8.591-9.5-13.99-.068-.4-.162-.852-.264-1.342-.664-3.191-1.574-7.56 2.122-11.088a12.263 12.263 0 0 1 8.673-3.617m0-2a14.286 14.286 0 0 0-10.052 4.17c-5.125 4.891-2.981 11.094-2.45 14.213.988 5.8 4.456 11.133 10.312 15.286 5.769 4.09 5.911 5.051 14.365 8.1.058.021 2.077.643 2.139.65a22.692 22.692 0 0 0 2.589.169c3.857 0 5.517-1.453 8.607-4.713 5.305-5.6 4.415-10.99 3.9-12.837-1.565-5.617-4.77-11.232-7.447-13.948-6.183-6.272-12.683-9.278-16.541-10.167a17.173 17.173 0 0 0-5.423-.927z" transform="translate(-6.104 -41.842)" fill="url(#z)"/><path d="M370.157 509.925c-2.089 5.226-6.351 8.689-12.73 9.378-3.879.793-11.04.759-19.27-2.379-3.563-1.359-8.811-5.136-12.567-9.595-1.235-1.466-4.285-6-1.783-13.3 1.746-5.093 2.7-6.971 8.3-8.783.058-.019 2.154-.292 2.216-.3 8.958-.735 9.486.081 16.432 1.406 7.053 1.345 12.423 4.758 15.729 9.622 1.777 2.626 6.304 7.373 3.673 13.951z" transform="translate(-6.104 -41.842)" fill="url(#aa)"/><path d="M339.851 486.674a27.709 27.709 0 0 1 6.852.888c1.036.225 2.21.48 3.675.76 6.375 1.215 11.372 4.252 14.45 8.782.229.337.5.708.8 1.111 1.929 2.626 4.572 6.223 2.674 10.968s-5.73 7.553-11.088 8.132l-.093.01-.092.019a22.357 22.357 0 0 1-4.428.392 38.817 38.817 0 0 1-13.729-2.681c-3.043-1.16-8.056-4.629-11.75-9.015-1.136-1.348-3.549-5.155-1.421-11.36 1.59-4.638 2.212-5.949 6.875-7.482.424-.06 1.707-.228 1.943-.257 2.231-.182 3.926-.267 5.334-.267m0-2c-1.448 0-3.205.086-5.529.277-.062 0-2.158.278-2.216.3-5.6 1.812-6.552 3.69-8.3 8.783-2.5 7.3.548 11.832 1.783 13.3 3.756 4.459 9 8.236 12.567 9.595a41.061 41.061 0 0 0 14.442 2.812 24.5 24.5 0 0 0 4.828-.433c6.379-.689 10.641-4.152 12.73-9.378 2.631-6.578-1.9-11.329-3.675-13.946-3.306-4.864-8.676-8.277-15.729-9.622-5.144-.981-6.768-1.683-10.9-1.683z" transform="translate(-6.104 -41.842)" fill="url(#ab)"/><path d="M485.139 283.11c5.605-.5 10.621 1.74 14.118 7.119 2.46 3.1 5.666 9.506 6.585 18.266.4 3.792-.6 10.18-2.881 15.546-.75 1.765-3.42 6.535-11.057 7.6-5.333.743-7.44.739-11.585-3.434-.044-.044-1.234-1.79-1.267-1.843-4.7-7.659-4.213-8.5-6.17-15.294-1.987-6.9-1.369-13.233 1.476-18.38 1.531-2.769 3.724-8.954 10.781-9.58z" transform="translate(-6.104 -41.842)" fill="url(#ac)"/><path d="M486.643 285.042c4.55 0 8.229 2.112 10.937 6.277l.051.079.059.074c2.426 3.059 5.319 9.192 6.163 17.231.34 3.239-.49 9.279-2.733 14.556-.69 1.623-3 5.5-9.492 6.4a28.581 28.581 0 0 1-3.752.356c-1.967 0-3.382-.469-6.029-3.109-.246-.351-.975-1.419-1.107-1.617-3.556-5.794-3.966-7.365-4.953-11.151a140.852 140.852 0 0 0-.983-3.623c-1.8-6.236-1.345-12.065 1.305-16.858.2-.357.405-.767.631-1.214 1.471-2.908 3.486-6.89 8.576-7.342.446-.04.893-.06 1.327-.06m0-2c-.5 0-1 .023-1.5.068-7.057.626-9.25 6.811-10.781 9.58-2.845 5.147-3.463 11.481-1.476 18.38 1.957 6.8 1.468 7.635 6.17 15.294.033.053 1.223 1.8 1.267 1.843 2.916 2.937 4.824 3.809 7.557 3.809a30.266 30.266 0 0 0 4.028-.375c7.637-1.065 10.307-5.835 11.057-7.6 2.281-5.366 3.279-11.754 2.881-15.546-.919-8.76-4.125-15.164-6.585-18.266-3.182-4.894-7.619-7.187-12.615-7.187z" transform="translate(-6.104 -41.842)" fill="url(#ad)"/></svg>