<svg xmlns="http://www.w3.org/2000/svg" xmlns:xlink="http://www.w3.org/1999/xlink" viewBox="0 0 572.173 511.991"><defs><style>.b{opacity:.22}</style><radialGradient id="a" cx="55.194" cy="320.398" r="20.958" gradientTransform="matrix(.072 -.997 1.736 .125 -518.506 300.5)" gradientUnits="userSpaceOnUse"><stop offset=".256" stop-color="#930"/><stop offset=".488" stop-color="#aa3d00"/><stop offset=".863" stop-color="#650f0e"/><stop offset="1" stop-color="#7f2300"/></radialGradient><radialGradient id="b" cx="41.563" cy="285.442" r="20.896" gradientTransform="rotate(8.105 -965.678 214.081) scale(1 .5)" gradientUnits="userSpaceOnUse"><stop offset=".034" stop-color="#650000"/><stop offset=".241" stop-color="#8b2a00"/><stop offset=".246" stop-color="#7f2300"/><stop offset=".605" stop-color="#aa3d00"/><stop offset=".744" stop-color="#930"/><stop offset="1" stop-color="#650f0e"/></radialGradient><radialGradient id="c" cx="160.911" cy="245.24" r="20.958" gradientTransform="matrix(-.283 -.959 1.669 -.493 -189.197 576.492)" xlink:href="#a"/><radialGradient id="d" cx="174.178" cy="301.265" r="21.194" gradientTransform="rotate(-12.446 864.893 225.949) scale(1 .5)" xlink:href="#b"/><radialGradient id="e" cx="14.082" cy="211.758" r="20.958" gradientTransform="rotate(-53.261 -146.752 203.674) scale(1 1.74)" xlink:href="#a"/><radialGradient id="f" cx="81.305" cy="172.844" r="21.437" gradientTransform="rotate(40.739 -35.075 129.633) scale(1 .5)" xlink:href="#b"/><radialGradient id="g" cx="75.899" cy="138.78" r="20.958" gradientTransform="rotate(-113.96 93.568 181.549) scale(1 1.74)" xlink:href="#a"/><radialGradient id="h" cx="155.024" cy="173.255" r="21.287" gradientTransform="rotate(-19.96 401.172 129.94) scale(1 .5)" xlink:href="#b"/><radialGradient id="i" cx="34.796" cy="63.813" r="20.958" gradientTransform="matrix(-.005 -1 1.74 -.009 70.646 108.697)" xlink:href="#a"/><radialGradient id="j" cx="181.542" cy="73.401" r="20.915" gradientTransform="rotate(3.719 -383.685 55.054) scale(1 .5)" xlink:href="#b"/><radialGradient id="k" cx="95.335" cy="336.994" r="20.958" gradientTransform="matrix(-.97 -.243 .423 -1.688 9.801 992.509)" xlink:href="#a"/><radialGradient id="l" cx="59.609" cy="400.504" r="21.035" gradientTransform="rotate(-71.946 197.557 300.378) scale(1 .5)" xlink:href="#b"/><radialGradient id="m" cx="256.575" cy="294.876" r="20.958" gradientTransform="matrix(-.99 .143 -.248 -1.722 526.588 852.637)" xlink:href="#a"/><radialGradient id="n" cx="199.49" cy="381.459" r="21.044" gradientTransform="rotate(-94.194 288.117 286.095) scale(1 .5)" xlink:href="#b"/><radialGradient id="o" cx="248.017" cy="366.022" r="20.958" gradientTransform="matrix(.238 -.971 1.69 .414 -512.11 529.578)" xlink:href="#a"/><radialGradient id="p" cx="165.545" cy="440.256" r="21.032" gradientTransform="rotate(17.776 -538.272 330.196) scale(1 .5)" xlink:href="#b"/><radialGradient id="q" cx="279.256" cy="426.557" r="20.958" gradientTransform="matrix(.058 -.998 1.737 .1 -599.552 756.406)" xlink:href="#a"/><radialGradient id="r" cx="157.56" cy="520.465" r="20.885" gradientTransform="rotate(7.301 -1881.88 390.37) scale(1 .5)" xlink:href="#b"/><radialGradient id="s" cx="220.479" cy="172.824" r="20.958" gradientTransform="matrix(-.052 -.999 1.738 -.09 -57.405 437.088)" xlink:href="#a"/><radialGradient id="t" cx="231.519" cy="201.366" r="20.945" gradientTransform="rotate(1.036 -5336.503 151.065) scale(1 .5)" xlink:href="#b"/><radialGradient id="u" cx="390.885" cy="371.341" r="20.958" gradientTransform="matrix(.995 .104 -.18 1.731 -54.358 -138.784)" xlink:href="#a"/><radialGradient id="v" cx="267.472" cy="544.414" r="20.921" gradientTransform="rotate(99.945 153.157 408.309) scale(1 .5)" xlink:href="#b"/><radialGradient id="w" cx="226.319" cy="199.208" r="20.958" gradientTransform="rotate(-53.261 194.274 300.369) scale(1 1.74)" xlink:href="#a"/><radialGradient id="x" cx="250.305" cy="301.844" r="21.437" gradientTransform="rotate(40.739 47.066 226.383) scale(1 .5)" xlink:href="#b"/><radialGradient id="y" cx="306.69" cy="268.141" r="20.958" gradientTransform="matrix(.329 -.944 1.643 .573 -282.048 544.225)" xlink:href="#a"/><radialGradient id="z" cx="259.506" cy="408.167" r="21.119" gradientTransform="rotate(23.234 -236.85 306.127) scale(1 .5)" xlink:href="#b"/><radialGradient id="aa" cx="103.201" cy="37.7" r="20.958" gradientTransform="matrix(-.85 .527 -.917 -1.479 367.785 91.725)" xlink:href="#a"/><radialGradient id="ab" cx="245.559" cy="90.932" r="21.364" gradientTransform="rotate(-117.8 259.273 68.199) scale(1 .5)" xlink:href="#b"/><radialGradient id="ac" cx="122.931" cy="284.648" r="20.958" gradientTransform="rotate(-11.936 -803.262 477.862) scale(1 1.74)" xlink:href="#a"/><radialGradient id="ad" cx="106.556" cy="303.146" r="21.12" gradientTransform="rotate(82.064 19.472 227.36) scale(1 .5)" xlink:href="#b"/><radialGradient id="ae" cx="464.548" cy="-9.944" r="20.958" gradientTransform="rotate(-53.261 831.785 38.361) scale(1 1.74)" xlink:href="#a"/><radialGradient id="af" cx="567.305" cy="298.844" r="21.437" gradientTransform="rotate(40.739 366.086 224.134) scale(1 .5)" xlink:href="#b"/></defs><path d="M65.806 288.457c-1.071 5.524-4.607 9.726-10.743 11.6-3.662 1.507-10.7 2.818-19.374 1.281-3.756-.665-9.619-3.39-14.146-7.065-1.488-1.208-5.335-5.092-4.248-12.726.759-5.331 1.345-7.355 6.5-10.185.054-.03 2.061-.691 2.121-.708 8.661-2.4 9.333-1.7 16.4-1.7 7.18 0 13.1 2.341 17.256 6.5 2.243 2.231 7.582 6.046 6.234 13.003z" transform="translate(-17.104 -56.842)" fill="url(#a)"/><path d="M36.4 270.858c.677 0 1.381.017 2.171.037 1.048.026 2.235.056 3.706.056h.062c6.482 0 11.955 2.044 15.827 5.912.288.289.625.6.992.943 2.388 2.217 5.659 5.254 4.686 10.27s-4.21 8.5-9.364 10.069l-.09.028-.087.036a29.29 29.29 0 0 1-10.924 1.818 42.166 42.166 0 0 1-7.339-.657c-3.207-.569-8.782-3.035-13.234-6.649-1.369-1.111-4.454-4.4-3.529-10.891.691-4.854 1.056-6.259 5.349-8.639.4-.139 1.633-.545 1.859-.618 5.262-1.458 7.392-1.715 9.915-1.715m0-2c-2.724 0-5.007.278-10.481 1.8-.06.017-2.067.678-2.121.708-5.156 2.83-5.742 4.854-6.5 10.185-1.087 7.634 2.76 11.518 4.248 12.726 4.527 3.675 10.39 6.4 14.146 7.065a44.043 44.043 0 0 0 7.688.688 31.888 31.888 0 0 0 11.686-1.969c6.136-1.875 9.672-6.077 10.743-11.6 1.348-6.955-3.991-10.772-6.229-13.008-4.158-4.155-10.068-6.5-17.242-6.5h-.06c-2.577 0-4.3-.093-5.877-.093z" transform="translate(-17.104 -56.842)" fill="url(#b)"/><path d="M198.348 295.73c.936 5.549-.9 10.725-5.987 14.634-2.9 2.7-9.032 6.4-17.692 8-3.749.695-10.2.2-15.725-1.65-1.817-.609-6.783-2.895-8.445-10.425-1.16-5.258-1.322-7.359 2.512-11.819.04-.047 1.687-1.371 1.737-1.407 7.266-5.291 8.142-4.87 14.762-7.355 6.722-2.523 13.084-2.405 18.439.027 2.881 1.309 9.22 3.009 10.399 9.995z" transform="translate(-17.104 -56.842)" fill="url(#c)"/><path d="M179.107 285.864a19.245 19.245 0 0 1 8.015 1.693c.371.169.8.344 1.26.534 3.014 1.238 7.143 2.933 7.993 7.972s-.96 9.432-5.233 12.715l-.074.058-.068.064c-2.859 2.659-8.746 6.025-16.694 7.5a19.5 19.5 0 0 1-3.439.268 37.582 37.582 0 0 1-11.287-1.847c-1.672-.56-5.713-2.555-7.127-8.96-1.057-4.788-1.208-6.231 1.975-9.967.33-.272 1.338-1.083 1.525-1.231 5.5-4 7.03-4.532 10.727-5.814 1-.347 2.137-.741 3.534-1.265a25.34 25.34 0 0 1 8.894-1.718m0-2a27.321 27.321 0 0 0-9.6 1.845c-6.62 2.485-7.5 2.064-14.762 7.355-.05.036-1.7 1.36-1.737 1.407-3.834 4.46-3.672 6.561-2.512 11.819 1.662 7.53 6.628 9.816 8.445 10.425a39.331 39.331 0 0 0 11.922 1.951 21.352 21.352 0 0 0 3.8-.3c8.66-1.605 14.792-5.3 17.692-8 5.087-3.909 6.923-9.085 5.987-14.634-1.179-6.986-7.518-8.686-10.4-9.994a21.232 21.232 0 0 0-8.843-1.872z" transform="translate(-17.104 -56.842)" fill="url(#d)"/><path d="M100.3 189.07c-3.881 4.075-9.125 5.707-15.3 3.977-3.9-.7-10.532-3.4-17.007-9.369-2.8-2.586-6.271-8.042-8.1-13.578-.6-1.82-1.747-7.165 3.285-13.008 3.514-4.08 5.1-5.468 10.968-5.071.061 0 2.108.529 2.168.547 8.589 2.647 8.777 3.6 14.733 7.411 6.048 3.87 9.766 9.034 11.028 14.778.672 3.09 3.109 9.184-1.775 14.313z" transform="translate(-17.104 -56.842)" fill="url(#e)"/><path d="M72.377 153.956c.451 0 .934.016 1.473.05.416.1 1.669.422 1.9.483 6.5 2 7.841 2.913 11.083 5.1.878.594 1.873 1.267 3.13 2.071 5.467 3.5 8.977 8.173 10.153 13.522.087.4.2.844.327 1.329.815 3.155 1.932 7.476-1.592 11.176a12.226 12.226 0 0 1-9.113 4.04 15.636 15.636 0 0 1-4.2-.61l-.09-.025-.093-.017c-3.842-.7-10.065-3.391-16.007-8.871-2.394-2.208-5.759-7.292-7.559-12.736-.554-1.674-1.379-6.1 2.9-11.074 3.1-3.6 4.182-4.442 7.69-4.442m0-2c-4.472 0-6.072 1.5-9.206 5.136-5.032 5.843-3.887 11.188-3.285 13.008 1.831 5.536 5.3 10.992 8.1 13.578 6.475 5.971 13.11 8.664 17.007 9.369a17.568 17.568 0 0 0 4.742.684 14.253 14.253 0 0 0 10.563-4.657c4.886-5.129 2.449-11.223 1.77-14.313-1.262-5.744-4.98-10.908-11.028-14.778-5.956-3.81-6.144-4.764-14.733-7.411-.06-.018-2.107-.543-2.168-.547a26.172 26.172 0 0 0-1.762-.065z" transform="translate(-17.104 -56.842)" fill="url(#f)"/><path d="M178.407 164.661c1.654 5.378.511 10.75-4.022 15.291-2.521 3.053-8.117 7.522-16.493 10.246-3.627 1.179-10.082 1.533-15.806.421-1.881-.366-7.1-1.983-9.736-9.231-1.838-5.062-2.273-7.123.945-12.046.034-.052 1.494-1.58 1.538-1.623 6.512-6.2 7.436-5.892 13.674-9.222 6.334-3.38 12.657-4.1 18.284-2.385 3.027.921 9.534 1.777 11.616 8.549z" transform="translate(-17.104 -56.842)" fill="url(#g)"/><path d="M160.717 155.218v2a18.864 18.864 0 0 1 5.492.808c.39.118.835.236 1.319.364 3.15.833 7.465 1.974 8.967 6.858s.282 9.477-3.525 13.291l-.067.067-.06.072c-2.486 3.011-7.882 7.118-15.569 9.618a27.361 27.361 0 0 1-7.9 1 36.791 36.791 0 0 1-6.908-.637c-1.731-.336-6-1.785-8.238-7.95-1.673-4.609-2.012-6.02.655-10.14.292-.313 1.185-1.249 1.351-1.42 4.926-4.685 6.377-5.412 9.875-7.167.947-.475 2.021-1.014 3.338-1.716a23.9 23.9 0 0 1 11.267-3.044v-2m0 0a25.946 25.946 0 0 0-12.209 3.279c-6.238 3.33-7.162 3.026-13.674 9.222-.045.043-1.5 1.571-1.538 1.623-3.218 4.922-2.783 6.984-.945 12.046 2.633 7.248 7.855 8.865 9.736 9.231a38.784 38.784 0 0 0 7.29.673 29.256 29.256 0 0 0 8.516-1.094c8.376-2.724 13.972-7.193 16.493-10.246 4.533-4.541 5.676-9.913 4.022-15.291-2.082-6.772-8.589-7.628-11.616-8.549a20.821 20.821 0 0 0-6.075-.894z" transform="translate(-17.104 -56.842)" fill="url(#h)"/><path d="M205.972 74.589c-.646 5.591-3.85 10.051-9.825 12.389-3.535 1.783-10.455 3.629-19.219 2.759-3.795-.376-9.849-2.644-14.644-5.962-1.576-1.091-5.709-4.669-5.209-12.364.349-5.373.779-7.436 5.7-10.652.052-.034 2-.847 2.06-.868 8.452-3.059 9.176-2.41 16.226-2.954 7.158-.553 13.236 1.332 17.7 5.159 2.408 2.058 8.023 5.456 7.211 12.493z" transform="translate(-17.104 -56.842)" fill="url(#i)"/><path d="M183.483 58.842a21.1 21.1 0 0 1 13.982 4.772c.31.266.67.552 1.061.864 2.551 2.028 6.045 4.806 5.459 9.882s-3.548 8.792-8.567 10.756l-.087.034-.084.042c-1.287.65-6.091 2.767-13.873 2.767-1.4 0-2.83-.071-4.249-.212-3.24-.321-8.988-2.354-13.7-5.617-1.45-1-4.777-4.043-4.351-10.589.318-4.893.574-6.322 4.671-9.023.393-.17 1.587-.668 1.808-.758 6.393-2.312 8.014-2.4 11.922-2.6 1.058-.055 2.258-.117 3.746-.231a29.473 29.473 0 0 1 2.265-.089m0-2q-1.188 0-2.419.095c-7.05.544-7.774-.1-16.226 2.954-.058.021-2.008.834-2.06.868-4.924 3.216-5.354 5.279-5.7 10.652-.5 7.695 3.633 11.273 5.209 12.364 4.8 3.318 10.849 5.586 14.644 5.962a45.04 45.04 0 0 0 4.446.222 34.2 34.2 0 0 0 14.773-2.981c5.975-2.338 9.179-6.8 9.825-12.389.812-7.037-4.8-10.435-7.205-12.493a22.988 22.988 0 0 0-15.284-5.254z" transform="translate(-17.104 -56.842)" fill="url(#j)"/><path d="M66.964 377.143c5.256 2.01 8.784 6.218 9.571 12.586.852 3.867.927 11.028-2.086 19.3-1.3 3.584-5 8.888-9.4 12.712-1.449 1.259-5.939 4.38-13.271 1.99-5.12-1.669-7.012-2.6-8.909-8.163-.02-.059-.325-2.15-.331-2.212-.871-8.945-.063-9.486 1.156-16.452 1.237-7.072 4.568-12.494 9.381-15.874 2.589-1.818 7.272-6.416 13.889-3.887z" transform="translate(-17.104 -56.842)" fill="url(#k)"/><path d="M63.1 378.4a8.824 8.824 0 0 1 3.15.61c4.769 1.824 7.639 5.615 8.3 10.963l.011.094.02.091c.841 3.814.754 10.6-2.011 18.19-1.114 3.06-4.506 8.126-8.835 11.886a10.176 10.176 0 0 1-6.76 2.372 14.8 14.8 0 0 1-4.577-.778c-4.662-1.519-5.982-2.121-7.586-6.76-.067-.423-.254-1.7-.286-1.939-.657-6.767-.337-8.358.435-12.194.209-1.039.446-2.217.7-3.687 1.118-6.392 4.079-11.435 8.561-14.582.333-.234.7-.511 1.1-.814 1.922-1.457 4.553-3.452 7.777-3.452m0-2c-4.6 0-7.971 3.188-10.024 4.629-4.813 3.38-8.144 8.8-9.381 15.874-1.219 6.966-2.027 7.507-1.156 16.452.006.062.311 2.153.331 2.212 1.9 5.567 3.789 6.494 8.909 8.163a16.731 16.731 0 0 0 5.2.876 12.234 12.234 0 0 0 8.072-2.862c4.4-3.824 8.1-9.128 9.4-12.712 3.013-8.276 2.938-15.437 2.086-19.3-.787-6.368-4.315-10.576-9.571-12.586a10.751 10.751 0 0 0-3.865-.746z" transform="translate(-17.104 -56.842)" fill="url(#l)"/><path d="M197.361 356.956c5.626-.13 10.485 2.429 13.623 8.025 2.253 3.257 5.034 9.856 5.379 18.657.149 3.811-1.263 10.119-3.89 15.325-.863 1.712-3.838 6.3-11.529 6.862-5.37.394-7.473.252-11.336-4.182a115.782 115.782 0 0 1-1.144-1.922c-4.193-7.95-3.65-8.756-5.159-15.664-1.532-7.015-.5-13.294 2.673-18.245 1.708-2.663 4.3-8.692 11.383-8.856z" transform="translate(-17.104 -56.842)" fill="url(#m)"/><path d="M197.768 358.951c4.933 0 8.9 2.424 11.472 7.009l.046.082.053.077c2.222 3.211 4.709 9.521 5.025 17.6.128 3.255-1.094 9.227-3.676 14.347-.795 1.574-3.348 5.288-9.89 5.767-.971.072-1.991.137-2.867.137-2.656 0-4.087-.535-6.714-3.522-.222-.366-.88-1.48-1-1.686-3.17-6.014-3.476-7.608-4.214-11.451a140.92 140.92 0 0 0-.745-3.678c-1.385-6.34-.554-12.128 2.4-16.738.221-.343.455-.739.71-1.17 1.657-2.805 3.928-6.648 9.036-6.766h.361m0-2h-.407c-7.083.164-9.675 6.193-11.383 8.856-3.175 4.951-4.205 11.23-2.673 18.245 1.509 6.908.966 7.714 5.159 15.664.029.055 1.1 1.875 1.144 1.922 3.047 3.5 5 4.324 8.323 4.324.89 0 1.879-.059 3.013-.142 7.691-.564 10.666-5.15 11.529-6.861 2.627-5.206 4.039-11.515 3.89-15.326-.345-8.8-3.126-15.4-5.379-18.657-3.063-5.46-7.763-8.03-13.216-8.03z" transform="translate(-17.104 -56.842)" fill="url(#n)"/><path d="M188.94 447.5c-1.984 5.266-6.176 8.814-12.54 9.631-3.862.871-11.023.981-19.314-1.992-3.59-1.287-8.912-4.957-12.757-9.34-1.264-1.441-4.4-5.916-2.05-13.259 1.644-5.128 2.562-7.025 8.12-8.949.058-.02 2.148-.335 2.209-.341 8.942-.914 9.487-.109 16.458 1.076 7.078 1.2 12.516 4.507 15.919 9.3 1.831 2.579 6.452 7.239 3.955 13.874z" transform="translate(-17.104 -56.842)" fill="url(#o)"/><path d="M158.808 424.85a28.339 28.339 0 0 1 6.232.757c1.04.2 2.22.435 3.691.685 6.4 1.088 11.454 4.024 14.623 8.49.236.333.515.7.819 1.1 1.982 2.587 4.7 6.13 2.9 10.911s-5.577 7.667-10.922 8.353l-.094.012-.092.021a23.071 23.071 0 0 1-5.036.488 39.349 39.349 0 0 1-13.163-2.411c-3.065-1.1-8.147-4.467-11.929-8.777-1.163-1.326-3.651-5.083-1.648-11.33 1.5-4.669 2.092-5.992 6.723-7.618.422-.069 1.7-.262 1.937-.3 2.548-.26 4.444-.381 5.964-.381m0-2a62.119 62.119 0 0 0-6.2.395c-.061.006-2.151.321-2.209.341-5.558 1.924-6.476 3.821-8.12 8.949-2.354 7.343.786 11.818 2.05 13.259 3.845 4.383 9.167 8.053 12.757 9.34a41.434 41.434 0 0 0 13.838 2.529 25.379 25.379 0 0 0 5.476-.537c6.364-.817 10.556-4.365 12.54-9.631 2.5-6.63-2.124-11.29-3.955-13.87-3.4-4.8-8.841-8.1-15.919-9.3-4.872-.828-6.6-1.471-10.258-1.471z" transform="translate(-17.104 -56.842)" fill="url(#p)"/><path d="M181.847 523.116c-.994 5.539-4.47 9.79-10.579 11.75-3.641 1.559-10.662 2.969-19.355 1.553-3.764-.613-9.664-3.254-14.243-6.866-1.5-1.187-5.406-5.016-4.426-12.665.684-5.341 1.242-7.373 6.358-10.275.053-.031 2.051-.72 2.11-.738 8.627-2.524 9.309-1.832 16.379-1.934 7.179-.1 13.127 2.157 17.346 6.255 2.269 2.204 7.663 5.947 6.41 12.92z" transform="translate(-17.104 -56.842)" fill="url(#q)"/><path d="M152.857 505.926c.476 0 .973.006 1.509.012.645.007 1.344.014 2.129.014.5 0 1.043 0 1.625-.011h.444c6.293 0 11.645 1.968 15.479 5.693.292.284.633.592 1 .928 2.419 2.183 5.732 5.174 4.83 10.2s-4.09 8.552-9.222 10.2l-.089.029-.087.037A29.656 29.656 0 0 1 159.023 535a42.393 42.393 0 0 1-6.788-.558c-3.215-.523-8.824-2.911-13.326-6.462-1.385-1.092-4.515-4.334-3.681-10.841.623-4.863.968-6.273 5.226-8.713.4-.145 1.626-.568 1.852-.644 5.729-1.675 7.7-1.859 10.551-1.859m0-2c-3.057 0-5.24.221-11.145 1.949-.059.018-2.057.707-2.11.738-5.116 2.9-5.674 4.934-6.358 10.275-.98 7.649 2.921 11.478 4.426 12.665 4.579 3.612 10.479 6.253 14.243 6.866a44.3 44.3 0 0 0 7.11.584 32.335 32.335 0 0 0 12.245-2.137c6.109-1.96 9.585-6.211 10.579-11.75 1.25-6.974-4.141-10.715-6.41-12.92-4.126-4.008-9.906-6.259-16.874-6.258h-.472c-.571.008-1.1.011-1.6.011-1.439 0-2.59-.026-3.638-.026z" transform="translate(-17.104 -56.842)" fill="url(#r)"/><path d="M256 201.443c-.383 5.614-3.374 10.22-9.233 12.835-3.449 1.947-10.274 4.114-19.069 3.656-3.809-.2-9.963-2.181-14.908-5.271-1.625-1.015-5.921-4.4-5.782-12.106.1-5.384.43-7.465 5.2-10.908.05-.036 1.96-.94 2.017-.964 8.3-3.45 9.053-2.836 16.07-3.71 7.125-.886 13.284.712 17.925 4.325 2.497 1.944 8.265 5.075 7.78 12.143z" transform="translate(-17.104 -56.842)" fill="url(#s)"/><path d="M234.077 186.735a20.755 20.755 0 0 1 12.915 4.143c.322.251.694.52 1.1.813 2.643 1.907 6.263 4.518 5.915 9.616s-3.132 8.948-8.054 11.145l-.085.038-.082.046c-2.963 1.673-8.647 3.46-15.714 3.46-.75 0-1.513-.02-2.268-.059-3.253-.17-9.089-1.931-13.952-4.97-1.5-.934-4.961-3.816-4.842-10.374.089-4.9.278-6.341 4.245-9.232.384-.188 1.554-.742 1.77-.842 6.278-2.608 7.893-2.768 11.787-3.152 1.055-.1 2.251-.223 3.731-.407a28.759 28.759 0 0 1 3.534-.225m0-2a30.607 30.607 0 0 0-3.781.24c-7.017.874-7.77.26-16.07 3.71-.057.024-1.967.928-2.017.964-4.769 3.443-5.1 5.524-5.2 10.908-.139 7.71 4.157 11.091 5.782 12.106 4.945 3.09 11.1 5.072 14.908 5.271q1.211.063 2.372.062c7.648 0 13.565-1.95 16.7-3.718 5.859-2.615 8.85-7.221 9.233-12.835.483-7.068-5.285-10.2-7.781-12.143a22.6 22.6 0 0 0-14.144-4.565z" transform="translate(-17.104 -56.842)" fill="url(#t)"/><path d="M263.629 568.543c-5.487-1.248-9.573-4.917-11.25-11.11-1.389-3.708-2.473-10.787-.659-19.4.786-3.732 3.7-9.5 7.516-13.912 1.255-1.448 5.26-5.169 12.855-3.837 5.3.93 7.308 1.581 9.972 6.824.028.056.625 2.083.639 2.143 2.124 8.733 1.4 9.383 1.177 16.45-.227 7.176-2.76 13.014-7.048 17.039-2.307 2.16-6.294 7.374-13.202 5.803z" transform="translate(-17.104 -56.842)" fill="url(#u)"/><path d="M268.961 522a16.18 16.18 0 0 1 2.785.253c4.83.847 6.222 1.256 8.463 5.623.126.409.492 1.65.558 1.879 1.605 6.606 1.512 8.226 1.289 12.133-.06 1.058-.129 2.258-.176 3.749-.2 6.486-2.425 11.9-6.418 15.644-.3.279-.621.6-.973.961-1.92 1.939-4.55 4.595-8.356 4.595a9.3 9.3 0 0 1-2.06-.241c-4.979-1.132-8.355-4.48-9.763-9.682l-.025-.091-.033-.088c-1.37-3.656-2.24-10.382-.575-18.291.671-3.187 3.315-8.681 7.07-13.014a10.628 10.628 0 0 1 8.214-3.43m0-2a12.57 12.57 0 0 0-9.725 4.12c-3.819 4.407-6.73 10.18-7.516 13.912-1.814 8.618-.73 15.7.659 19.4 1.677 6.193 5.763 9.862 11.25 11.11a11.29 11.29 0 0 0 2.5.29c5.394 0 8.685-4.209 10.7-6.1 4.288-4.025 6.821-9.863 7.048-17.039.224-7.067.947-7.717-1.177-16.45-.014-.06-.611-2.087-.639-2.143-2.663-5.243-4.668-5.894-9.972-6.824a18.052 18.052 0 0 0-3.13-.283z" transform="translate(-17.104 -56.842)" fill="url(#v)"/><path d="M269.3 318.07c-3.881 4.075-9.125 5.707-15.3 3.977-3.9-.705-10.532-3.4-17.007-9.369-2.8-2.586-6.271-8.042-8.1-13.578-.6-1.82-1.747-7.165 3.285-13.008 3.514-4.08 5.1-5.468 10.968-5.071.061 0 2.108.529 2.168.547 8.589 2.647 8.777 3.6 14.733 7.411 6.048 3.87 9.766 9.034 11.028 14.778.672 3.09 3.109 9.184-1.775 14.313z" transform="translate(-17.104 -56.842)" fill="url(#w)"/><path d="M241.377 282.956c.451 0 .934.016 1.473.05.416.1 1.669.422 1.9.483 6.5 2 7.841 2.913 11.083 5.1.878.594 1.873 1.267 3.13 2.071 5.467 3.5 8.977 8.173 10.153 13.522.087.4.2.844.327 1.329.815 3.155 1.932 7.476-1.592 11.176a12.226 12.226 0 0 1-9.113 4.04 15.636 15.636 0 0 1-4.2-.61l-.09-.025-.093-.017c-3.842-.695-10.065-3.391-16.007-8.871-2.394-2.208-5.759-7.292-7.559-12.736-.554-1.674-1.379-6.1 2.9-11.074 3.1-3.6 4.182-4.442 7.69-4.442m0-2c-4.472 0-6.072 1.5-9.206 5.136-5.032 5.843-3.887 11.188-3.285 13.008 1.831 5.536 5.3 10.992 8.1 13.578 6.475 5.971 13.11 8.664 17.007 9.369a17.568 17.568 0 0 0 4.742.684 14.253 14.253 0 0 0 10.563-4.657c4.886-5.129 2.449-11.223 1.77-14.313-1.262-5.744-4.98-10.908-11.028-14.778-5.956-3.81-6.144-4.764-14.733-7.411-.06-.018-2.107-.543-2.168-.547a26.172 26.172 0 0 0-1.762-.065z" transform="translate(-17.104 -56.842)" fill="url(#x)"/><path d="M282.154 417.691c-2.475 5.053-6.985 8.187-13.4 8.4-3.928.5-11.067-.072-19.037-3.82-3.451-1.622-8.4-5.782-11.811-10.511-1.122-1.555-3.822-6.308-.78-13.394 2.125-4.948 3.219-6.749 8.934-8.136.06-.014 2.17-.129 2.233-.13 8.987-.059 9.453.794 16.28 2.637 6.932 1.871 12.031 5.677 14.962 10.776 1.579 2.738 5.736 7.816 2.619 14.178z" transform="translate(-17.104 -56.842)" fill="url(#y)"/><path d="M249.147 392.093c6.129 0 7.749.481 11.3 1.536 1.016.3 2.168.645 3.609 1.034 6.265 1.691 11.02 5.094 13.749 9.842.2.353.447.744.712 1.168 1.727 2.764 4.092 6.549 1.843 11.138s-6.281 7.1-11.667 7.276h-.094l-.093.012a19.206 19.206 0 0 1-2.4.139 37.116 37.116 0 0 1-15.531-3.784c-2.947-1.386-7.686-5.222-11.04-9.872-1.032-1.431-3.152-5.408-.564-11.435 1.934-4.506 2.653-5.766 7.418-6.944a176.6 176.6 0 0 1 1.956-.111h.807m0-2h-.851c-.063 0-2.173.116-2.233.13-5.715 1.387-6.809 3.188-8.934 8.136-3.042 7.086-.342 11.839.78 13.394 3.411 4.729 8.36 8.889 11.811 10.511a39.5 39.5 0 0 0 16.382 3.975 21.155 21.155 0 0 0 2.655-.155c6.413-.208 10.923-3.342 13.4-8.4 3.117-6.362-1.04-11.44-2.617-14.183-2.931-5.1-8.03-8.9-14.962-10.776-6.6-1.783-7.255-2.639-15.429-2.639z" transform="translate(-17.104 -56.842)" fill="url(#z)"/><path d="M233.769 68.858c5.1-2.372 10.58-1.973 15.7 1.9 3.369 2.082 8.559 7.015 12.4 14.941 1.663 3.432 2.9 9.779 2.573 15.6-.106 1.914-1 7.308-7.817 10.9-4.763 2.512-6.746 3.224-12.062.708a138.95 138.95 0 0 1-1.817-1.3c-7.026-5.606-6.852-6.562-11-12.288-4.213-5.814-5.784-11.98-4.857-17.788.495-3.124.456-9.687 6.88-12.673z" transform="translate(-17.104 -56.842)" fill="url(#aa)"/><path d="M240.137 69.386a13.364 13.364 0 0 1 8.123 2.965l.075.057.08.049c3.321 2.053 8.126 6.838 11.651 14.112 1.42 2.931 2.692 8.894 2.376 14.619-.1 1.76-.95 6.186-6.752 9.245-2.683 1.414-4.132 2.045-5.627 2.045a11.036 11.036 0 0 1-4.508-1.311c-.35-.246-1.4-1-1.591-1.144-5.313-4.241-6.232-5.579-8.447-8.8-.6-.874-1.28-1.864-2.155-3.073-3.808-5.254-5.365-10.89-4.5-16.3.065-.4.121-.858.182-1.355.4-3.235.937-7.665 5.57-9.82a13.071 13.071 0 0 1 5.525-1.285m0-2a15.038 15.038 0 0 0-6.368 1.472c-6.424 2.986-6.385 9.549-6.884 12.673-.927 5.808.644 11.974 4.857 17.788 4.149 5.726 3.975 6.682 11 12.288.048.039 1.761 1.276 1.817 1.3a12.962 12.962 0 0 0 5.5 1.568c2.037 0 3.848-.846 6.559-2.276 6.822-3.6 7.711-8.99 7.817-10.9.322-5.822-.91-12.169-2.573-15.6-3.841-7.926-9.031-12.859-12.4-14.941a15.325 15.325 0 0 0-9.329-3.37z" transform="translate(-17.104 -56.842)" fill="url(#ab)"/><path d="M110.243 327.565c-5.606.5-10.621-1.74-14.119-7.119-2.46-3.1-5.665-9.506-6.584-18.266-.4-3.792.6-10.18 2.881-15.546.75-1.764 3.419-6.535 11.056-7.6 5.334-.743 7.441-.739 11.585 3.434.044.044 1.234 1.79 1.267 1.843 4.7 7.659 4.214 8.5 6.171 15.294 1.987 6.9 1.369 13.233-1.477 18.38-1.53 2.769-3.723 8.954-10.78 9.58z" transform="translate(-17.104 -56.842)" fill="url(#ac)"/><path d="M107.506 280.659c1.966 0 3.381.469 6.029 3.109.245.351.974 1.419 1.107 1.617 3.556 5.8 3.965 7.365 4.952 11.151.268 1.026.571 2.189.984 3.623 1.8 6.236 1.344 12.065-1.305 16.858-.2.357-.405.767-.631 1.214-1.472 2.908-3.486 6.891-8.576 7.342-.447.04-.893.06-1.327.06-4.55 0-8.23-2.112-10.938-6.277l-.051-.079-.059-.074c-2.426-3.059-5.319-9.192-6.162-17.231-.34-3.239.489-9.279 2.732-14.556.69-1.623 3-5.5 9.493-6.4a28.566 28.566 0 0 1 3.752-.356m0-2a30.28 30.28 0 0 0-4.029.375c-7.637 1.065-10.306 5.836-11.056 7.6-2.281 5.365-3.279 11.753-2.881 15.545.919 8.76 4.124 15.164 6.584 18.266 3.182 4.894 7.619 7.187 12.615 7.187q.744 0 1.5-.068c7.056-.626 9.25-6.811 10.78-9.58 2.846-5.147 3.464-11.481 1.477-18.38-1.957-6.8-1.468-7.635-6.171-15.294-.033-.053-1.223-1.8-1.267-1.843-2.916-2.936-4.824-3.809-7.556-3.809z" transform="translate(-17.104 -56.842)" fill="url(#ad)"/></svg>